%TF.GenerationSoftware,KiCad,Pcbnew,(5.1.9)-1*%
%TF.CreationDate,2021-06-09T10:26:03+02:00*%
%TF.ProjectId,Frontplatte,46726f6e-7470-46c6-9174-74652e6b6963,rev?*%
%TF.SameCoordinates,Original*%
%TF.FileFunction,Soldermask,Top*%
%TF.FilePolarity,Negative*%
%FSLAX46Y46*%
G04 Gerber Fmt 4.6, Leading zero omitted, Abs format (unit mm)*
G04 Created by KiCad (PCBNEW (5.1.9)-1) date 2021-06-09 10:26:03*
%MOMM*%
%LPD*%
G01*
G04 APERTURE LIST*
%ADD10O,1.600000X1.600000*%
%ADD11C,1.600000*%
%ADD12O,1.400000X1.400000*%
%ADD13C,1.400000*%
%ADD14R,1.700000X1.700000*%
%ADD15O,1.700000X1.700000*%
%ADD16R,1.600000X1.600000*%
%ADD17C,2.000000*%
%ADD18C,1.800000*%
%ADD19R,1.800000X1.800000*%
G04 APERTURE END LIST*
D10*
%TO.C,R10*%
X124460000Y-83820000D03*
D11*
X124460000Y-99060000D03*
%TD*%
D10*
%TO.C,R8*%
X111760000Y-83820000D03*
D11*
X111760000Y-99060000D03*
%TD*%
D10*
%TO.C,R6*%
X99060000Y-83820000D03*
D11*
X99060000Y-99060000D03*
%TD*%
D10*
%TO.C,R4*%
X86360000Y-83820000D03*
D11*
X86360000Y-99060000D03*
%TD*%
D10*
%TO.C,R2*%
X73660000Y-83820000D03*
D11*
X73660000Y-99060000D03*
%TD*%
D12*
%TO.C,R18*%
X215537500Y-78740000D03*
D13*
X213637500Y-78740000D03*
%TD*%
%TO.C,R16*%
X193524500Y-78740000D03*
D12*
X195424500Y-78740000D03*
%TD*%
%TO.C,R14*%
X175151500Y-78740000D03*
D13*
X173251500Y-78740000D03*
%TD*%
D12*
%TO.C,R22*%
X165100000Y-68580000D03*
D13*
X157480000Y-68580000D03*
%TD*%
D12*
%TO.C,R21*%
X165100000Y-71120000D03*
D13*
X157480000Y-71120000D03*
%TD*%
D12*
%TO.C,R20*%
X165100000Y-73660000D03*
D13*
X157480000Y-73660000D03*
%TD*%
D12*
%TO.C,R13*%
X165100000Y-90805000D03*
D13*
X157480000Y-90805000D03*
%TD*%
D12*
%TO.C,R12*%
X165100000Y-93980000D03*
D13*
X157480000Y-93980000D03*
%TD*%
D14*
%TO.C,J4*%
X195072000Y-55880000D03*
D15*
X195072000Y-58420000D03*
X195072000Y-60960000D03*
X195072000Y-63500000D03*
%TD*%
D12*
%TO.C,R19*%
X220980000Y-55880000D03*
D13*
X219080000Y-55880000D03*
%TD*%
%TO.C,R17*%
X198887000Y-55880000D03*
D12*
X200787000Y-55880000D03*
%TD*%
%TO.C,R15*%
X180594000Y-55880000D03*
D13*
X178694000Y-55880000D03*
%TD*%
D12*
%TO.C,R11*%
X134620000Y-86995000D03*
D13*
X142240000Y-86995000D03*
%TD*%
D12*
%TO.C,R9*%
X134620000Y-89535000D03*
D13*
X142240000Y-89535000D03*
%TD*%
D12*
%TO.C,R7*%
X134620000Y-92075000D03*
D13*
X142240000Y-92075000D03*
%TD*%
D12*
%TO.C,R5*%
X134620000Y-94615000D03*
D13*
X142240000Y-94615000D03*
%TD*%
D12*
%TO.C,R3*%
X134620000Y-97155000D03*
D13*
X142240000Y-97155000D03*
%TD*%
D12*
%TO.C,R1*%
X59055000Y-81915000D03*
D13*
X66675000Y-81915000D03*
%TD*%
D16*
%TO.C,D10*%
X156845000Y-51435000D03*
D10*
X164465000Y-51435000D03*
%TD*%
%TO.C,S10*%
G36*
G01*
X216805000Y-69080000D02*
X216805000Y-68080000D01*
G75*
G02*
X217305000Y-67580000I500000J0D01*
G01*
X218305000Y-67580000D01*
G75*
G02*
X218805000Y-68080000I0J-500000D01*
G01*
X218805000Y-69080000D01*
G75*
G02*
X218305000Y-69580000I-500000J0D01*
G01*
X217305000Y-69580000D01*
G75*
G02*
X216805000Y-69080000I0J500000D01*
G01*
G37*
G36*
G01*
X216805000Y-74160000D02*
X216805000Y-73160000D01*
G75*
G02*
X217305000Y-72660000I500000J0D01*
G01*
X218305000Y-72660000D01*
G75*
G02*
X218805000Y-73160000I0J-500000D01*
G01*
X218805000Y-74160000D01*
G75*
G02*
X218305000Y-74660000I-500000J0D01*
G01*
X217305000Y-74660000D01*
G75*
G02*
X216805000Y-74160000I0J500000D01*
G01*
G37*
G36*
G01*
X216805000Y-79240000D02*
X216805000Y-78240000D01*
G75*
G02*
X217305000Y-77740000I500000J0D01*
G01*
X218305000Y-77740000D01*
G75*
G02*
X218805000Y-78240000I0J-500000D01*
G01*
X218805000Y-79240000D01*
G75*
G02*
X218305000Y-79740000I-500000J0D01*
G01*
X217305000Y-79740000D01*
G75*
G02*
X216805000Y-79240000I0J500000D01*
G01*
G37*
G36*
G01*
X226965000Y-69080000D02*
X226965000Y-68080000D01*
G75*
G02*
X227465000Y-67580000I500000J0D01*
G01*
X228465000Y-67580000D01*
G75*
G02*
X228965000Y-68080000I0J-500000D01*
G01*
X228965000Y-69080000D01*
G75*
G02*
X228465000Y-69580000I-500000J0D01*
G01*
X227465000Y-69580000D01*
G75*
G02*
X226965000Y-69080000I0J500000D01*
G01*
G37*
G36*
G01*
X226965000Y-74160000D02*
X226965000Y-73160000D01*
G75*
G02*
X227465000Y-72660000I500000J0D01*
G01*
X228465000Y-72660000D01*
G75*
G02*
X228965000Y-73160000I0J-500000D01*
G01*
X228965000Y-74160000D01*
G75*
G02*
X228465000Y-74660000I-500000J0D01*
G01*
X227465000Y-74660000D01*
G75*
G02*
X226965000Y-74160000I0J500000D01*
G01*
G37*
G36*
G01*
X226965000Y-79240000D02*
X226965000Y-78240000D01*
G75*
G02*
X227465000Y-77740000I500000J0D01*
G01*
X228465000Y-77740000D01*
G75*
G02*
X228965000Y-78240000I0J-500000D01*
G01*
X228965000Y-79240000D01*
G75*
G02*
X228465000Y-79740000I-500000J0D01*
G01*
X227465000Y-79740000D01*
G75*
G02*
X226965000Y-79240000I0J500000D01*
G01*
G37*
D17*
X222885000Y-68580000D03*
X222885000Y-78740000D03*
%TD*%
D16*
%TO.C,SW1*%
X165227000Y-78486000D03*
D10*
X157607000Y-86106000D03*
X165227000Y-81026000D03*
X157607000Y-83566000D03*
X165227000Y-83566000D03*
X157607000Y-81026000D03*
X165227000Y-86106000D03*
X157607000Y-78486000D03*
%TD*%
D17*
%TO.C,C1*%
X153550000Y-59055000D03*
X146050000Y-59055000D03*
%TD*%
%TO.C,S9*%
X202692000Y-78740000D03*
X202692000Y-68580000D03*
G36*
G01*
X206772000Y-79240000D02*
X206772000Y-78240000D01*
G75*
G02*
X207272000Y-77740000I500000J0D01*
G01*
X208272000Y-77740000D01*
G75*
G02*
X208772000Y-78240000I0J-500000D01*
G01*
X208772000Y-79240000D01*
G75*
G02*
X208272000Y-79740000I-500000J0D01*
G01*
X207272000Y-79740000D01*
G75*
G02*
X206772000Y-79240000I0J500000D01*
G01*
G37*
G36*
G01*
X206772000Y-74160000D02*
X206772000Y-73160000D01*
G75*
G02*
X207272000Y-72660000I500000J0D01*
G01*
X208272000Y-72660000D01*
G75*
G02*
X208772000Y-73160000I0J-500000D01*
G01*
X208772000Y-74160000D01*
G75*
G02*
X208272000Y-74660000I-500000J0D01*
G01*
X207272000Y-74660000D01*
G75*
G02*
X206772000Y-74160000I0J500000D01*
G01*
G37*
G36*
G01*
X206772000Y-69080000D02*
X206772000Y-68080000D01*
G75*
G02*
X207272000Y-67580000I500000J0D01*
G01*
X208272000Y-67580000D01*
G75*
G02*
X208772000Y-68080000I0J-500000D01*
G01*
X208772000Y-69080000D01*
G75*
G02*
X208272000Y-69580000I-500000J0D01*
G01*
X207272000Y-69580000D01*
G75*
G02*
X206772000Y-69080000I0J500000D01*
G01*
G37*
G36*
G01*
X196612000Y-79240000D02*
X196612000Y-78240000D01*
G75*
G02*
X197112000Y-77740000I500000J0D01*
G01*
X198112000Y-77740000D01*
G75*
G02*
X198612000Y-78240000I0J-500000D01*
G01*
X198612000Y-79240000D01*
G75*
G02*
X198112000Y-79740000I-500000J0D01*
G01*
X197112000Y-79740000D01*
G75*
G02*
X196612000Y-79240000I0J500000D01*
G01*
G37*
G36*
G01*
X196612000Y-74160000D02*
X196612000Y-73160000D01*
G75*
G02*
X197112000Y-72660000I500000J0D01*
G01*
X198112000Y-72660000D01*
G75*
G02*
X198612000Y-73160000I0J-500000D01*
G01*
X198612000Y-74160000D01*
G75*
G02*
X198112000Y-74660000I-500000J0D01*
G01*
X197112000Y-74660000D01*
G75*
G02*
X196612000Y-74160000I0J500000D01*
G01*
G37*
G36*
G01*
X196612000Y-69080000D02*
X196612000Y-68080000D01*
G75*
G02*
X197112000Y-67580000I500000J0D01*
G01*
X198112000Y-67580000D01*
G75*
G02*
X198612000Y-68080000I0J-500000D01*
G01*
X198612000Y-69080000D01*
G75*
G02*
X198112000Y-69580000I-500000J0D01*
G01*
X197112000Y-69580000D01*
G75*
G02*
X196612000Y-69080000I0J500000D01*
G01*
G37*
%TD*%
%TO.C,S8*%
G36*
G01*
X176419000Y-69080000D02*
X176419000Y-68080000D01*
G75*
G02*
X176919000Y-67580000I500000J0D01*
G01*
X177919000Y-67580000D01*
G75*
G02*
X178419000Y-68080000I0J-500000D01*
G01*
X178419000Y-69080000D01*
G75*
G02*
X177919000Y-69580000I-500000J0D01*
G01*
X176919000Y-69580000D01*
G75*
G02*
X176419000Y-69080000I0J500000D01*
G01*
G37*
G36*
G01*
X176419000Y-74160000D02*
X176419000Y-73160000D01*
G75*
G02*
X176919000Y-72660000I500000J0D01*
G01*
X177919000Y-72660000D01*
G75*
G02*
X178419000Y-73160000I0J-500000D01*
G01*
X178419000Y-74160000D01*
G75*
G02*
X177919000Y-74660000I-500000J0D01*
G01*
X176919000Y-74660000D01*
G75*
G02*
X176419000Y-74160000I0J500000D01*
G01*
G37*
G36*
G01*
X176419000Y-79240000D02*
X176419000Y-78240000D01*
G75*
G02*
X176919000Y-77740000I500000J0D01*
G01*
X177919000Y-77740000D01*
G75*
G02*
X178419000Y-78240000I0J-500000D01*
G01*
X178419000Y-79240000D01*
G75*
G02*
X177919000Y-79740000I-500000J0D01*
G01*
X176919000Y-79740000D01*
G75*
G02*
X176419000Y-79240000I0J500000D01*
G01*
G37*
G36*
G01*
X186579000Y-69080000D02*
X186579000Y-68080000D01*
G75*
G02*
X187079000Y-67580000I500000J0D01*
G01*
X188079000Y-67580000D01*
G75*
G02*
X188579000Y-68080000I0J-500000D01*
G01*
X188579000Y-69080000D01*
G75*
G02*
X188079000Y-69580000I-500000J0D01*
G01*
X187079000Y-69580000D01*
G75*
G02*
X186579000Y-69080000I0J500000D01*
G01*
G37*
G36*
G01*
X186579000Y-74160000D02*
X186579000Y-73160000D01*
G75*
G02*
X187079000Y-72660000I500000J0D01*
G01*
X188079000Y-72660000D01*
G75*
G02*
X188579000Y-73160000I0J-500000D01*
G01*
X188579000Y-74160000D01*
G75*
G02*
X188079000Y-74660000I-500000J0D01*
G01*
X187079000Y-74660000D01*
G75*
G02*
X186579000Y-74160000I0J500000D01*
G01*
G37*
G36*
G01*
X186579000Y-79240000D02*
X186579000Y-78240000D01*
G75*
G02*
X187079000Y-77740000I500000J0D01*
G01*
X188079000Y-77740000D01*
G75*
G02*
X188579000Y-78240000I0J-500000D01*
G01*
X188579000Y-79240000D01*
G75*
G02*
X188079000Y-79740000I-500000J0D01*
G01*
X187079000Y-79740000D01*
G75*
G02*
X186579000Y-79240000I0J500000D01*
G01*
G37*
X182499000Y-68580000D03*
X182499000Y-78740000D03*
%TD*%
D15*
%TO.C,J5*%
X215265000Y-63500000D03*
X215265000Y-60960000D03*
X215265000Y-58420000D03*
D14*
X215265000Y-55880000D03*
%TD*%
D15*
%TO.C,J3*%
X174879000Y-63500000D03*
X174879000Y-60960000D03*
X174879000Y-58420000D03*
D14*
X174879000Y-55880000D03*
%TD*%
D18*
%TO.C,D9*%
X222885000Y-62865000D03*
D19*
X222885000Y-60325000D03*
%TD*%
%TO.C,D8*%
X202692000Y-60325000D03*
D18*
X202692000Y-62865000D03*
%TD*%
%TO.C,D7*%
X182499000Y-62865000D03*
D19*
X182499000Y-60325000D03*
%TD*%
D14*
%TO.C,J2*%
X164465000Y-63627000D03*
D15*
X164465000Y-61087000D03*
X164465000Y-58547000D03*
X164465000Y-56007000D03*
%TD*%
D14*
%TO.C,J1*%
X158115000Y-63627000D03*
D15*
X158115000Y-61087000D03*
X158115000Y-58547000D03*
X158115000Y-56007000D03*
%TD*%
D19*
%TO.C,D6*%
X121920000Y-79375000D03*
D18*
X121920000Y-81915000D03*
%TD*%
D19*
%TO.C,D5*%
X109220000Y-79375000D03*
D18*
X109220000Y-81915000D03*
%TD*%
D19*
%TO.C,D4*%
X96520000Y-79375000D03*
D18*
X96520000Y-81915000D03*
%TD*%
D19*
%TO.C,D3*%
X83820000Y-79375000D03*
D18*
X83820000Y-81915000D03*
%TD*%
D19*
%TO.C,D2*%
X71120000Y-79375000D03*
D18*
X71120000Y-81915000D03*
%TD*%
D19*
%TO.C,D1*%
X54610000Y-79375000D03*
D18*
X54610000Y-81915000D03*
%TD*%
D16*
%TO.C,U1*%
X146050000Y-97155000D03*
D10*
X153670000Y-64135000D03*
X146050000Y-94615000D03*
X153670000Y-66675000D03*
X146050000Y-92075000D03*
X153670000Y-69215000D03*
X146050000Y-89535000D03*
X153670000Y-71755000D03*
X146050000Y-86995000D03*
X153670000Y-74295000D03*
X146050000Y-84455000D03*
X153670000Y-76835000D03*
X146050000Y-81915000D03*
X153670000Y-79375000D03*
X146050000Y-79375000D03*
X153670000Y-81915000D03*
X146050000Y-76835000D03*
X153670000Y-84455000D03*
X146050000Y-74295000D03*
X153670000Y-86995000D03*
X146050000Y-71755000D03*
X153670000Y-89535000D03*
X146050000Y-69215000D03*
X153670000Y-92075000D03*
X146050000Y-66675000D03*
X153670000Y-94615000D03*
X146050000Y-64135000D03*
X153670000Y-97155000D03*
%TD*%
%TO.C,S7*%
G36*
G01*
X131080000Y-54475000D02*
X131080000Y-53475000D01*
G75*
G02*
X131580000Y-52975000I500000J0D01*
G01*
X132580000Y-52975000D01*
G75*
G02*
X133080000Y-53475000I0J-500000D01*
G01*
X133080000Y-54475000D01*
G75*
G02*
X132580000Y-54975000I-500000J0D01*
G01*
X131580000Y-54975000D01*
G75*
G02*
X131080000Y-54475000I0J500000D01*
G01*
G37*
G36*
G01*
X131080000Y-59555000D02*
X131080000Y-58555000D01*
G75*
G02*
X131580000Y-58055000I500000J0D01*
G01*
X132580000Y-58055000D01*
G75*
G02*
X133080000Y-58555000I0J-500000D01*
G01*
X133080000Y-59555000D01*
G75*
G02*
X132580000Y-60055000I-500000J0D01*
G01*
X131580000Y-60055000D01*
G75*
G02*
X131080000Y-59555000I0J500000D01*
G01*
G37*
G36*
G01*
X131080000Y-64635000D02*
X131080000Y-63635000D01*
G75*
G02*
X131580000Y-63135000I500000J0D01*
G01*
X132580000Y-63135000D01*
G75*
G02*
X133080000Y-63635000I0J-500000D01*
G01*
X133080000Y-64635000D01*
G75*
G02*
X132580000Y-65135000I-500000J0D01*
G01*
X131580000Y-65135000D01*
G75*
G02*
X131080000Y-64635000I0J500000D01*
G01*
G37*
G36*
G01*
X141240000Y-54475000D02*
X141240000Y-53475000D01*
G75*
G02*
X141740000Y-52975000I500000J0D01*
G01*
X142740000Y-52975000D01*
G75*
G02*
X143240000Y-53475000I0J-500000D01*
G01*
X143240000Y-54475000D01*
G75*
G02*
X142740000Y-54975000I-500000J0D01*
G01*
X141740000Y-54975000D01*
G75*
G02*
X141240000Y-54475000I0J500000D01*
G01*
G37*
G36*
G01*
X141240000Y-59555000D02*
X141240000Y-58555000D01*
G75*
G02*
X141740000Y-58055000I500000J0D01*
G01*
X142740000Y-58055000D01*
G75*
G02*
X143240000Y-58555000I0J-500000D01*
G01*
X143240000Y-59555000D01*
G75*
G02*
X142740000Y-60055000I-500000J0D01*
G01*
X141740000Y-60055000D01*
G75*
G02*
X141240000Y-59555000I0J500000D01*
G01*
G37*
G36*
G01*
X141240000Y-64635000D02*
X141240000Y-63635000D01*
G75*
G02*
X141740000Y-63135000I500000J0D01*
G01*
X142740000Y-63135000D01*
G75*
G02*
X143240000Y-63635000I0J-500000D01*
G01*
X143240000Y-64635000D01*
G75*
G02*
X142740000Y-65135000I-500000J0D01*
G01*
X141740000Y-65135000D01*
G75*
G02*
X141240000Y-64635000I0J500000D01*
G01*
G37*
D17*
X137160000Y-53975000D03*
X137160000Y-64135000D03*
%TD*%
%TO.C,S6*%
G36*
G01*
X131080000Y-69715000D02*
X131080000Y-68715000D01*
G75*
G02*
X131580000Y-68215000I500000J0D01*
G01*
X132580000Y-68215000D01*
G75*
G02*
X133080000Y-68715000I0J-500000D01*
G01*
X133080000Y-69715000D01*
G75*
G02*
X132580000Y-70215000I-500000J0D01*
G01*
X131580000Y-70215000D01*
G75*
G02*
X131080000Y-69715000I0J500000D01*
G01*
G37*
G36*
G01*
X131080000Y-74795000D02*
X131080000Y-73795000D01*
G75*
G02*
X131580000Y-73295000I500000J0D01*
G01*
X132580000Y-73295000D01*
G75*
G02*
X133080000Y-73795000I0J-500000D01*
G01*
X133080000Y-74795000D01*
G75*
G02*
X132580000Y-75295000I-500000J0D01*
G01*
X131580000Y-75295000D01*
G75*
G02*
X131080000Y-74795000I0J500000D01*
G01*
G37*
G36*
G01*
X131080000Y-79875000D02*
X131080000Y-78875000D01*
G75*
G02*
X131580000Y-78375000I500000J0D01*
G01*
X132580000Y-78375000D01*
G75*
G02*
X133080000Y-78875000I0J-500000D01*
G01*
X133080000Y-79875000D01*
G75*
G02*
X132580000Y-80375000I-500000J0D01*
G01*
X131580000Y-80375000D01*
G75*
G02*
X131080000Y-79875000I0J500000D01*
G01*
G37*
G36*
G01*
X141240000Y-69715000D02*
X141240000Y-68715000D01*
G75*
G02*
X141740000Y-68215000I500000J0D01*
G01*
X142740000Y-68215000D01*
G75*
G02*
X143240000Y-68715000I0J-500000D01*
G01*
X143240000Y-69715000D01*
G75*
G02*
X142740000Y-70215000I-500000J0D01*
G01*
X141740000Y-70215000D01*
G75*
G02*
X141240000Y-69715000I0J500000D01*
G01*
G37*
G36*
G01*
X141240000Y-74795000D02*
X141240000Y-73795000D01*
G75*
G02*
X141740000Y-73295000I500000J0D01*
G01*
X142740000Y-73295000D01*
G75*
G02*
X143240000Y-73795000I0J-500000D01*
G01*
X143240000Y-74795000D01*
G75*
G02*
X142740000Y-75295000I-500000J0D01*
G01*
X141740000Y-75295000D01*
G75*
G02*
X141240000Y-74795000I0J500000D01*
G01*
G37*
G36*
G01*
X141240000Y-79875000D02*
X141240000Y-78875000D01*
G75*
G02*
X141740000Y-78375000I500000J0D01*
G01*
X142740000Y-78375000D01*
G75*
G02*
X143240000Y-78875000I0J-500000D01*
G01*
X143240000Y-79875000D01*
G75*
G02*
X142740000Y-80375000I-500000J0D01*
G01*
X141740000Y-80375000D01*
G75*
G02*
X141240000Y-79875000I0J500000D01*
G01*
G37*
X137160000Y-69215000D03*
X137160000Y-79375000D03*
%TD*%
%TO.C,S5*%
G36*
G01*
X115840000Y-89400000D02*
X115840000Y-88400000D01*
G75*
G02*
X116340000Y-87900000I500000J0D01*
G01*
X117340000Y-87900000D01*
G75*
G02*
X117840000Y-88400000I0J-500000D01*
G01*
X117840000Y-89400000D01*
G75*
G02*
X117340000Y-89900000I-500000J0D01*
G01*
X116340000Y-89900000D01*
G75*
G02*
X115840000Y-89400000I0J500000D01*
G01*
G37*
G36*
G01*
X115840000Y-94480000D02*
X115840000Y-93480000D01*
G75*
G02*
X116340000Y-92980000I500000J0D01*
G01*
X117340000Y-92980000D01*
G75*
G02*
X117840000Y-93480000I0J-500000D01*
G01*
X117840000Y-94480000D01*
G75*
G02*
X117340000Y-94980000I-500000J0D01*
G01*
X116340000Y-94980000D01*
G75*
G02*
X115840000Y-94480000I0J500000D01*
G01*
G37*
G36*
G01*
X115840000Y-99560000D02*
X115840000Y-98560000D01*
G75*
G02*
X116340000Y-98060000I500000J0D01*
G01*
X117340000Y-98060000D01*
G75*
G02*
X117840000Y-98560000I0J-500000D01*
G01*
X117840000Y-99560000D01*
G75*
G02*
X117340000Y-100060000I-500000J0D01*
G01*
X116340000Y-100060000D01*
G75*
G02*
X115840000Y-99560000I0J500000D01*
G01*
G37*
G36*
G01*
X126000000Y-89400000D02*
X126000000Y-88400000D01*
G75*
G02*
X126500000Y-87900000I500000J0D01*
G01*
X127500000Y-87900000D01*
G75*
G02*
X128000000Y-88400000I0J-500000D01*
G01*
X128000000Y-89400000D01*
G75*
G02*
X127500000Y-89900000I-500000J0D01*
G01*
X126500000Y-89900000D01*
G75*
G02*
X126000000Y-89400000I0J500000D01*
G01*
G37*
G36*
G01*
X126000000Y-94480000D02*
X126000000Y-93480000D01*
G75*
G02*
X126500000Y-92980000I500000J0D01*
G01*
X127500000Y-92980000D01*
G75*
G02*
X128000000Y-93480000I0J-500000D01*
G01*
X128000000Y-94480000D01*
G75*
G02*
X127500000Y-94980000I-500000J0D01*
G01*
X126500000Y-94980000D01*
G75*
G02*
X126000000Y-94480000I0J500000D01*
G01*
G37*
G36*
G01*
X126000000Y-99560000D02*
X126000000Y-98560000D01*
G75*
G02*
X126500000Y-98060000I500000J0D01*
G01*
X127500000Y-98060000D01*
G75*
G02*
X128000000Y-98560000I0J-500000D01*
G01*
X128000000Y-99560000D01*
G75*
G02*
X127500000Y-100060000I-500000J0D01*
G01*
X126500000Y-100060000D01*
G75*
G02*
X126000000Y-99560000I0J500000D01*
G01*
G37*
X121920000Y-88900000D03*
X121920000Y-99060000D03*
%TD*%
%TO.C,S4*%
G36*
G01*
X103140000Y-89400000D02*
X103140000Y-88400000D01*
G75*
G02*
X103640000Y-87900000I500000J0D01*
G01*
X104640000Y-87900000D01*
G75*
G02*
X105140000Y-88400000I0J-500000D01*
G01*
X105140000Y-89400000D01*
G75*
G02*
X104640000Y-89900000I-500000J0D01*
G01*
X103640000Y-89900000D01*
G75*
G02*
X103140000Y-89400000I0J500000D01*
G01*
G37*
G36*
G01*
X103140000Y-94480000D02*
X103140000Y-93480000D01*
G75*
G02*
X103640000Y-92980000I500000J0D01*
G01*
X104640000Y-92980000D01*
G75*
G02*
X105140000Y-93480000I0J-500000D01*
G01*
X105140000Y-94480000D01*
G75*
G02*
X104640000Y-94980000I-500000J0D01*
G01*
X103640000Y-94980000D01*
G75*
G02*
X103140000Y-94480000I0J500000D01*
G01*
G37*
G36*
G01*
X103140000Y-99560000D02*
X103140000Y-98560000D01*
G75*
G02*
X103640000Y-98060000I500000J0D01*
G01*
X104640000Y-98060000D01*
G75*
G02*
X105140000Y-98560000I0J-500000D01*
G01*
X105140000Y-99560000D01*
G75*
G02*
X104640000Y-100060000I-500000J0D01*
G01*
X103640000Y-100060000D01*
G75*
G02*
X103140000Y-99560000I0J500000D01*
G01*
G37*
G36*
G01*
X113300000Y-89400000D02*
X113300000Y-88400000D01*
G75*
G02*
X113800000Y-87900000I500000J0D01*
G01*
X114800000Y-87900000D01*
G75*
G02*
X115300000Y-88400000I0J-500000D01*
G01*
X115300000Y-89400000D01*
G75*
G02*
X114800000Y-89900000I-500000J0D01*
G01*
X113800000Y-89900000D01*
G75*
G02*
X113300000Y-89400000I0J500000D01*
G01*
G37*
G36*
G01*
X113300000Y-94480000D02*
X113300000Y-93480000D01*
G75*
G02*
X113800000Y-92980000I500000J0D01*
G01*
X114800000Y-92980000D01*
G75*
G02*
X115300000Y-93480000I0J-500000D01*
G01*
X115300000Y-94480000D01*
G75*
G02*
X114800000Y-94980000I-500000J0D01*
G01*
X113800000Y-94980000D01*
G75*
G02*
X113300000Y-94480000I0J500000D01*
G01*
G37*
G36*
G01*
X113300000Y-99560000D02*
X113300000Y-98560000D01*
G75*
G02*
X113800000Y-98060000I500000J0D01*
G01*
X114800000Y-98060000D01*
G75*
G02*
X115300000Y-98560000I0J-500000D01*
G01*
X115300000Y-99560000D01*
G75*
G02*
X114800000Y-100060000I-500000J0D01*
G01*
X113800000Y-100060000D01*
G75*
G02*
X113300000Y-99560000I0J500000D01*
G01*
G37*
X109220000Y-88900000D03*
X109220000Y-99060000D03*
%TD*%
%TO.C,S3*%
G36*
G01*
X90440000Y-89400000D02*
X90440000Y-88400000D01*
G75*
G02*
X90940000Y-87900000I500000J0D01*
G01*
X91940000Y-87900000D01*
G75*
G02*
X92440000Y-88400000I0J-500000D01*
G01*
X92440000Y-89400000D01*
G75*
G02*
X91940000Y-89900000I-500000J0D01*
G01*
X90940000Y-89900000D01*
G75*
G02*
X90440000Y-89400000I0J500000D01*
G01*
G37*
G36*
G01*
X90440000Y-94480000D02*
X90440000Y-93480000D01*
G75*
G02*
X90940000Y-92980000I500000J0D01*
G01*
X91940000Y-92980000D01*
G75*
G02*
X92440000Y-93480000I0J-500000D01*
G01*
X92440000Y-94480000D01*
G75*
G02*
X91940000Y-94980000I-500000J0D01*
G01*
X90940000Y-94980000D01*
G75*
G02*
X90440000Y-94480000I0J500000D01*
G01*
G37*
G36*
G01*
X90440000Y-99560000D02*
X90440000Y-98560000D01*
G75*
G02*
X90940000Y-98060000I500000J0D01*
G01*
X91940000Y-98060000D01*
G75*
G02*
X92440000Y-98560000I0J-500000D01*
G01*
X92440000Y-99560000D01*
G75*
G02*
X91940000Y-100060000I-500000J0D01*
G01*
X90940000Y-100060000D01*
G75*
G02*
X90440000Y-99560000I0J500000D01*
G01*
G37*
G36*
G01*
X100600000Y-89400000D02*
X100600000Y-88400000D01*
G75*
G02*
X101100000Y-87900000I500000J0D01*
G01*
X102100000Y-87900000D01*
G75*
G02*
X102600000Y-88400000I0J-500000D01*
G01*
X102600000Y-89400000D01*
G75*
G02*
X102100000Y-89900000I-500000J0D01*
G01*
X101100000Y-89900000D01*
G75*
G02*
X100600000Y-89400000I0J500000D01*
G01*
G37*
G36*
G01*
X100600000Y-94480000D02*
X100600000Y-93480000D01*
G75*
G02*
X101100000Y-92980000I500000J0D01*
G01*
X102100000Y-92980000D01*
G75*
G02*
X102600000Y-93480000I0J-500000D01*
G01*
X102600000Y-94480000D01*
G75*
G02*
X102100000Y-94980000I-500000J0D01*
G01*
X101100000Y-94980000D01*
G75*
G02*
X100600000Y-94480000I0J500000D01*
G01*
G37*
G36*
G01*
X100600000Y-99560000D02*
X100600000Y-98560000D01*
G75*
G02*
X101100000Y-98060000I500000J0D01*
G01*
X102100000Y-98060000D01*
G75*
G02*
X102600000Y-98560000I0J-500000D01*
G01*
X102600000Y-99560000D01*
G75*
G02*
X102100000Y-100060000I-500000J0D01*
G01*
X101100000Y-100060000D01*
G75*
G02*
X100600000Y-99560000I0J500000D01*
G01*
G37*
X96520000Y-88900000D03*
X96520000Y-99060000D03*
%TD*%
%TO.C,S2*%
G36*
G01*
X77740000Y-89400000D02*
X77740000Y-88400000D01*
G75*
G02*
X78240000Y-87900000I500000J0D01*
G01*
X79240000Y-87900000D01*
G75*
G02*
X79740000Y-88400000I0J-500000D01*
G01*
X79740000Y-89400000D01*
G75*
G02*
X79240000Y-89900000I-500000J0D01*
G01*
X78240000Y-89900000D01*
G75*
G02*
X77740000Y-89400000I0J500000D01*
G01*
G37*
G36*
G01*
X77740000Y-94480000D02*
X77740000Y-93480000D01*
G75*
G02*
X78240000Y-92980000I500000J0D01*
G01*
X79240000Y-92980000D01*
G75*
G02*
X79740000Y-93480000I0J-500000D01*
G01*
X79740000Y-94480000D01*
G75*
G02*
X79240000Y-94980000I-500000J0D01*
G01*
X78240000Y-94980000D01*
G75*
G02*
X77740000Y-94480000I0J500000D01*
G01*
G37*
G36*
G01*
X77740000Y-99560000D02*
X77740000Y-98560000D01*
G75*
G02*
X78240000Y-98060000I500000J0D01*
G01*
X79240000Y-98060000D01*
G75*
G02*
X79740000Y-98560000I0J-500000D01*
G01*
X79740000Y-99560000D01*
G75*
G02*
X79240000Y-100060000I-500000J0D01*
G01*
X78240000Y-100060000D01*
G75*
G02*
X77740000Y-99560000I0J500000D01*
G01*
G37*
G36*
G01*
X87900000Y-89400000D02*
X87900000Y-88400000D01*
G75*
G02*
X88400000Y-87900000I500000J0D01*
G01*
X89400000Y-87900000D01*
G75*
G02*
X89900000Y-88400000I0J-500000D01*
G01*
X89900000Y-89400000D01*
G75*
G02*
X89400000Y-89900000I-500000J0D01*
G01*
X88400000Y-89900000D01*
G75*
G02*
X87900000Y-89400000I0J500000D01*
G01*
G37*
G36*
G01*
X87900000Y-94480000D02*
X87900000Y-93480000D01*
G75*
G02*
X88400000Y-92980000I500000J0D01*
G01*
X89400000Y-92980000D01*
G75*
G02*
X89900000Y-93480000I0J-500000D01*
G01*
X89900000Y-94480000D01*
G75*
G02*
X89400000Y-94980000I-500000J0D01*
G01*
X88400000Y-94980000D01*
G75*
G02*
X87900000Y-94480000I0J500000D01*
G01*
G37*
G36*
G01*
X87900000Y-99560000D02*
X87900000Y-98560000D01*
G75*
G02*
X88400000Y-98060000I500000J0D01*
G01*
X89400000Y-98060000D01*
G75*
G02*
X89900000Y-98560000I0J-500000D01*
G01*
X89900000Y-99560000D01*
G75*
G02*
X89400000Y-100060000I-500000J0D01*
G01*
X88400000Y-100060000D01*
G75*
G02*
X87900000Y-99560000I0J500000D01*
G01*
G37*
X83820000Y-88900000D03*
X83820000Y-99060000D03*
%TD*%
%TO.C,S1*%
G36*
G01*
X65040000Y-89400000D02*
X65040000Y-88400000D01*
G75*
G02*
X65540000Y-87900000I500000J0D01*
G01*
X66540000Y-87900000D01*
G75*
G02*
X67040000Y-88400000I0J-500000D01*
G01*
X67040000Y-89400000D01*
G75*
G02*
X66540000Y-89900000I-500000J0D01*
G01*
X65540000Y-89900000D01*
G75*
G02*
X65040000Y-89400000I0J500000D01*
G01*
G37*
G36*
G01*
X65040000Y-94480000D02*
X65040000Y-93480000D01*
G75*
G02*
X65540000Y-92980000I500000J0D01*
G01*
X66540000Y-92980000D01*
G75*
G02*
X67040000Y-93480000I0J-500000D01*
G01*
X67040000Y-94480000D01*
G75*
G02*
X66540000Y-94980000I-500000J0D01*
G01*
X65540000Y-94980000D01*
G75*
G02*
X65040000Y-94480000I0J500000D01*
G01*
G37*
G36*
G01*
X65040000Y-99560000D02*
X65040000Y-98560000D01*
G75*
G02*
X65540000Y-98060000I500000J0D01*
G01*
X66540000Y-98060000D01*
G75*
G02*
X67040000Y-98560000I0J-500000D01*
G01*
X67040000Y-99560000D01*
G75*
G02*
X66540000Y-100060000I-500000J0D01*
G01*
X65540000Y-100060000D01*
G75*
G02*
X65040000Y-99560000I0J500000D01*
G01*
G37*
G36*
G01*
X75200000Y-89400000D02*
X75200000Y-88400000D01*
G75*
G02*
X75700000Y-87900000I500000J0D01*
G01*
X76700000Y-87900000D01*
G75*
G02*
X77200000Y-88400000I0J-500000D01*
G01*
X77200000Y-89400000D01*
G75*
G02*
X76700000Y-89900000I-500000J0D01*
G01*
X75700000Y-89900000D01*
G75*
G02*
X75200000Y-89400000I0J500000D01*
G01*
G37*
G36*
G01*
X75200000Y-94480000D02*
X75200000Y-93480000D01*
G75*
G02*
X75700000Y-92980000I500000J0D01*
G01*
X76700000Y-92980000D01*
G75*
G02*
X77200000Y-93480000I0J-500000D01*
G01*
X77200000Y-94480000D01*
G75*
G02*
X76700000Y-94980000I-500000J0D01*
G01*
X75700000Y-94980000D01*
G75*
G02*
X75200000Y-94480000I0J500000D01*
G01*
G37*
G36*
G01*
X75200000Y-99560000D02*
X75200000Y-98560000D01*
G75*
G02*
X75700000Y-98060000I500000J0D01*
G01*
X76700000Y-98060000D01*
G75*
G02*
X77200000Y-98560000I0J-500000D01*
G01*
X77200000Y-99560000D01*
G75*
G02*
X76700000Y-100060000I-500000J0D01*
G01*
X75700000Y-100060000D01*
G75*
G02*
X75200000Y-99560000I0J500000D01*
G01*
G37*
X71120000Y-88900000D03*
X71120000Y-99060000D03*
%TD*%
M02*
