%TF.GenerationSoftware,KiCad,Pcbnew,(5.1.9)-1*%
%TF.CreationDate,2021-06-09T10:26:03+02:00*%
%TF.ProjectId,Frontplatte,46726f6e-7470-46c6-9174-74652e6b6963,rev?*%
%TF.SameCoordinates,Original*%
%TF.FileFunction,Legend,Top*%
%TF.FilePolarity,Positive*%
%FSLAX46Y46*%
G04 Gerber Fmt 4.6, Leading zero omitted, Abs format (unit mm)*
G04 Created by KiCad (PCBNEW (5.1.9)-1) date 2021-06-09 10:26:03*
%MOMM*%
%LPD*%
G01*
G04 APERTURE LIST*
%ADD10C,0.300000*%
%ADD11C,0.150000*%
%ADD12C,0.120000*%
G04 APERTURE END LIST*
D10*
X203869742Y-93586771D02*
X203869742Y-92086771D01*
X204441171Y-92086771D01*
X204584028Y-92158200D01*
X204655457Y-92229628D01*
X204726885Y-92372485D01*
X204726885Y-92586771D01*
X204655457Y-92729628D01*
X204584028Y-92801057D01*
X204441171Y-92872485D01*
X203869742Y-92872485D01*
X205584028Y-93586771D02*
X205441171Y-93515342D01*
X205369742Y-93372485D01*
X205369742Y-92086771D01*
X206798314Y-93586771D02*
X206798314Y-92801057D01*
X206726885Y-92658200D01*
X206584028Y-92586771D01*
X206298314Y-92586771D01*
X206155457Y-92658200D01*
X206798314Y-93515342D02*
X206655457Y-93586771D01*
X206298314Y-93586771D01*
X206155457Y-93515342D01*
X206084028Y-93372485D01*
X206084028Y-93229628D01*
X206155457Y-93086771D01*
X206298314Y-93015342D01*
X206655457Y-93015342D01*
X206798314Y-92943914D01*
X208155457Y-93515342D02*
X208012600Y-93586771D01*
X207726885Y-93586771D01*
X207584028Y-93515342D01*
X207512600Y-93443914D01*
X207441171Y-93301057D01*
X207441171Y-92872485D01*
X207512600Y-92729628D01*
X207584028Y-92658200D01*
X207726885Y-92586771D01*
X208012600Y-92586771D01*
X208155457Y-92658200D01*
X209369742Y-93515342D02*
X209226885Y-93586771D01*
X208941171Y-93586771D01*
X208798314Y-93515342D01*
X208726885Y-93372485D01*
X208726885Y-92801057D01*
X208798314Y-92658200D01*
X208941171Y-92586771D01*
X209226885Y-92586771D01*
X209369742Y-92658200D01*
X209441171Y-92801057D01*
X209441171Y-92943914D01*
X208726885Y-93086771D01*
X211012600Y-92586771D02*
X211584028Y-92586771D01*
X211226885Y-93586771D02*
X211226885Y-92301057D01*
X211298314Y-92158200D01*
X211441171Y-92086771D01*
X211584028Y-92086771D01*
X212298314Y-93586771D02*
X212155457Y-93515342D01*
X212084028Y-93443914D01*
X212012600Y-93301057D01*
X212012600Y-92872485D01*
X212084028Y-92729628D01*
X212155457Y-92658200D01*
X212298314Y-92586771D01*
X212512600Y-92586771D01*
X212655457Y-92658200D01*
X212726885Y-92729628D01*
X212798314Y-92872485D01*
X212798314Y-93301057D01*
X212726885Y-93443914D01*
X212655457Y-93515342D01*
X212512600Y-93586771D01*
X212298314Y-93586771D01*
X213441171Y-93586771D02*
X213441171Y-92586771D01*
X213441171Y-92872485D02*
X213512600Y-92729628D01*
X213584028Y-92658200D01*
X213726885Y-92586771D01*
X213869742Y-92586771D01*
X202691171Y-96136771D02*
X202691171Y-95136771D01*
X202691171Y-94636771D02*
X202619742Y-94708200D01*
X202691171Y-94779628D01*
X202762600Y-94708200D01*
X202691171Y-94636771D01*
X202691171Y-94779628D01*
X203405457Y-95136771D02*
X203405457Y-96136771D01*
X203405457Y-95279628D02*
X203476885Y-95208200D01*
X203619742Y-95136771D01*
X203834028Y-95136771D01*
X203976885Y-95208200D01*
X204048314Y-95351057D01*
X204048314Y-96136771D01*
X204762600Y-95136771D02*
X204762600Y-96636771D01*
X204762600Y-95208200D02*
X204905457Y-95136771D01*
X205191171Y-95136771D01*
X205334028Y-95208200D01*
X205405457Y-95279628D01*
X205476885Y-95422485D01*
X205476885Y-95851057D01*
X205405457Y-95993914D01*
X205334028Y-96065342D01*
X205191171Y-96136771D01*
X204905457Y-96136771D01*
X204762600Y-96065342D01*
X206762600Y-95136771D02*
X206762600Y-96136771D01*
X206119742Y-95136771D02*
X206119742Y-95922485D01*
X206191171Y-96065342D01*
X206334028Y-96136771D01*
X206548314Y-96136771D01*
X206691171Y-96065342D01*
X206762600Y-95993914D01*
X207262600Y-95136771D02*
X207834028Y-95136771D01*
X207476885Y-94636771D02*
X207476885Y-95922485D01*
X207548314Y-96065342D01*
X207691171Y-96136771D01*
X207834028Y-96136771D01*
X209476885Y-95136771D02*
X209476885Y-96636771D01*
X209476885Y-95208200D02*
X209619742Y-95136771D01*
X209905457Y-95136771D01*
X210048314Y-95208200D01*
X210119742Y-95279628D01*
X210191171Y-95422485D01*
X210191171Y-95851057D01*
X210119742Y-95993914D01*
X210048314Y-96065342D01*
X209905457Y-96136771D01*
X209619742Y-96136771D01*
X209476885Y-96065342D01*
X211048314Y-96136771D02*
X210905457Y-96065342D01*
X210834028Y-95922485D01*
X210834028Y-94636771D01*
X212262600Y-95136771D02*
X212262600Y-96136771D01*
X211619742Y-95136771D02*
X211619742Y-95922485D01*
X211691171Y-96065342D01*
X211834028Y-96136771D01*
X212048314Y-96136771D01*
X212191171Y-96065342D01*
X212262600Y-95993914D01*
X213619742Y-95136771D02*
X213619742Y-96351057D01*
X213548314Y-96493914D01*
X213476885Y-96565342D01*
X213334028Y-96636771D01*
X213119742Y-96636771D01*
X212976885Y-96565342D01*
X213619742Y-96065342D02*
X213476885Y-96136771D01*
X213191171Y-96136771D01*
X213048314Y-96065342D01*
X212976885Y-95993914D01*
X212905457Y-95851057D01*
X212905457Y-95422485D01*
X212976885Y-95279628D01*
X213048314Y-95208200D01*
X213191171Y-95136771D01*
X213476885Y-95136771D01*
X213619742Y-95208200D01*
X214262600Y-96065342D02*
X214405457Y-96136771D01*
X214691171Y-96136771D01*
X214834028Y-96065342D01*
X214905457Y-95922485D01*
X214905457Y-95851057D01*
X214834028Y-95708200D01*
X214691171Y-95636771D01*
X214476885Y-95636771D01*
X214334028Y-95565342D01*
X214262600Y-95422485D01*
X214262600Y-95351057D01*
X214334028Y-95208200D01*
X214476885Y-95136771D01*
X214691171Y-95136771D01*
X214834028Y-95208200D01*
X43849742Y-92697771D02*
X43849742Y-91197771D01*
X44421171Y-91197771D01*
X44564028Y-91269200D01*
X44635457Y-91340628D01*
X44706885Y-91483485D01*
X44706885Y-91697771D01*
X44635457Y-91840628D01*
X44564028Y-91912057D01*
X44421171Y-91983485D01*
X43849742Y-91983485D01*
X45564028Y-92697771D02*
X45421171Y-92626342D01*
X45349742Y-92483485D01*
X45349742Y-91197771D01*
X46778314Y-92697771D02*
X46778314Y-91912057D01*
X46706885Y-91769200D01*
X46564028Y-91697771D01*
X46278314Y-91697771D01*
X46135457Y-91769200D01*
X46778314Y-92626342D02*
X46635457Y-92697771D01*
X46278314Y-92697771D01*
X46135457Y-92626342D01*
X46064028Y-92483485D01*
X46064028Y-92340628D01*
X46135457Y-92197771D01*
X46278314Y-92126342D01*
X46635457Y-92126342D01*
X46778314Y-92054914D01*
X48135457Y-92626342D02*
X47992600Y-92697771D01*
X47706885Y-92697771D01*
X47564028Y-92626342D01*
X47492600Y-92554914D01*
X47421171Y-92412057D01*
X47421171Y-91983485D01*
X47492600Y-91840628D01*
X47564028Y-91769200D01*
X47706885Y-91697771D01*
X47992600Y-91697771D01*
X48135457Y-91769200D01*
X49349742Y-92626342D02*
X49206885Y-92697771D01*
X48921171Y-92697771D01*
X48778314Y-92626342D01*
X48706885Y-92483485D01*
X48706885Y-91912057D01*
X48778314Y-91769200D01*
X48921171Y-91697771D01*
X49206885Y-91697771D01*
X49349742Y-91769200D01*
X49421171Y-91912057D01*
X49421171Y-92054914D01*
X48706885Y-92197771D01*
X50992600Y-91697771D02*
X51564028Y-91697771D01*
X51206885Y-92697771D02*
X51206885Y-91412057D01*
X51278314Y-91269200D01*
X51421171Y-91197771D01*
X51564028Y-91197771D01*
X52278314Y-92697771D02*
X52135457Y-92626342D01*
X52064028Y-92554914D01*
X51992600Y-92412057D01*
X51992600Y-91983485D01*
X52064028Y-91840628D01*
X52135457Y-91769200D01*
X52278314Y-91697771D01*
X52492600Y-91697771D01*
X52635457Y-91769200D01*
X52706885Y-91840628D01*
X52778314Y-91983485D01*
X52778314Y-92412057D01*
X52706885Y-92554914D01*
X52635457Y-92626342D01*
X52492600Y-92697771D01*
X52278314Y-92697771D01*
X53421171Y-92697771D02*
X53421171Y-91697771D01*
X53421171Y-91983485D02*
X53492600Y-91840628D01*
X53564028Y-91769200D01*
X53706885Y-91697771D01*
X53849742Y-91697771D01*
X40849742Y-95247771D02*
X40849742Y-94247771D01*
X40849742Y-94533485D02*
X40921171Y-94390628D01*
X40992600Y-94319200D01*
X41135457Y-94247771D01*
X41278314Y-94247771D01*
X42349742Y-95176342D02*
X42206885Y-95247771D01*
X41921171Y-95247771D01*
X41778314Y-95176342D01*
X41706885Y-95033485D01*
X41706885Y-94462057D01*
X41778314Y-94319200D01*
X41921171Y-94247771D01*
X42206885Y-94247771D01*
X42349742Y-94319200D01*
X42421171Y-94462057D01*
X42421171Y-94604914D01*
X41706885Y-94747771D01*
X42849742Y-94247771D02*
X43421171Y-94247771D01*
X43064028Y-95247771D02*
X43064028Y-93962057D01*
X43135457Y-93819200D01*
X43278314Y-93747771D01*
X43421171Y-93747771D01*
X44492600Y-95176342D02*
X44349742Y-95247771D01*
X44064028Y-95247771D01*
X43921171Y-95176342D01*
X43849742Y-95033485D01*
X43849742Y-94462057D01*
X43921171Y-94319200D01*
X44064028Y-94247771D01*
X44349742Y-94247771D01*
X44492600Y-94319200D01*
X44564028Y-94462057D01*
X44564028Y-94604914D01*
X43849742Y-94747771D01*
X45206885Y-95247771D02*
X45206885Y-94247771D01*
X45206885Y-94533485D02*
X45278314Y-94390628D01*
X45349742Y-94319200D01*
X45492600Y-94247771D01*
X45635457Y-94247771D01*
X46706885Y-95176342D02*
X46564028Y-95247771D01*
X46278314Y-95247771D01*
X46135457Y-95176342D01*
X46064028Y-95033485D01*
X46064028Y-94462057D01*
X46135457Y-94319200D01*
X46278314Y-94247771D01*
X46564028Y-94247771D01*
X46706885Y-94319200D01*
X46778314Y-94462057D01*
X46778314Y-94604914D01*
X46064028Y-94747771D01*
X47421171Y-94247771D02*
X47421171Y-95247771D01*
X47421171Y-94390628D02*
X47492600Y-94319200D01*
X47635457Y-94247771D01*
X47849742Y-94247771D01*
X47992600Y-94319200D01*
X48064028Y-94462057D01*
X48064028Y-95247771D01*
X49421171Y-95176342D02*
X49278314Y-95247771D01*
X48992600Y-95247771D01*
X48849742Y-95176342D01*
X48778314Y-95104914D01*
X48706885Y-94962057D01*
X48706885Y-94533485D01*
X48778314Y-94390628D01*
X48849742Y-94319200D01*
X48992600Y-94247771D01*
X49278314Y-94247771D01*
X49421171Y-94319200D01*
X50635457Y-95176342D02*
X50492600Y-95247771D01*
X50206885Y-95247771D01*
X50064028Y-95176342D01*
X49992600Y-95033485D01*
X49992600Y-94462057D01*
X50064028Y-94319200D01*
X50206885Y-94247771D01*
X50492600Y-94247771D01*
X50635457Y-94319200D01*
X50706885Y-94462057D01*
X50706885Y-94604914D01*
X49992600Y-94747771D01*
X52492600Y-94247771D02*
X52492600Y-95747771D01*
X52492600Y-94319200D02*
X52635457Y-94247771D01*
X52921171Y-94247771D01*
X53064028Y-94319200D01*
X53135457Y-94390628D01*
X53206885Y-94533485D01*
X53206885Y-94962057D01*
X53135457Y-95104914D01*
X53064028Y-95176342D01*
X52921171Y-95247771D01*
X52635457Y-95247771D01*
X52492600Y-95176342D01*
X54064028Y-95247771D02*
X53921171Y-95176342D01*
X53849742Y-95033485D01*
X53849742Y-93747771D01*
X55278314Y-94247771D02*
X55278314Y-95247771D01*
X54635457Y-94247771D02*
X54635457Y-95033485D01*
X54706885Y-95176342D01*
X54849742Y-95247771D01*
X55064028Y-95247771D01*
X55206885Y-95176342D01*
X55278314Y-95104914D01*
X56635457Y-94247771D02*
X56635457Y-95462057D01*
X56564028Y-95604914D01*
X56492600Y-95676342D01*
X56349742Y-95747771D01*
X56135457Y-95747771D01*
X55992600Y-95676342D01*
X56635457Y-95176342D02*
X56492600Y-95247771D01*
X56206885Y-95247771D01*
X56064028Y-95176342D01*
X55992600Y-95104914D01*
X55921171Y-94962057D01*
X55921171Y-94533485D01*
X55992600Y-94390628D01*
X56064028Y-94319200D01*
X56206885Y-94247771D01*
X56492600Y-94247771D01*
X56635457Y-94319200D01*
X80792228Y-63060971D02*
X80792228Y-61560971D01*
X81363657Y-61560971D01*
X81506514Y-61632400D01*
X81577942Y-61703828D01*
X81649371Y-61846685D01*
X81649371Y-62060971D01*
X81577942Y-62203828D01*
X81506514Y-62275257D01*
X81363657Y-62346685D01*
X80792228Y-62346685D01*
X82506514Y-63060971D02*
X82363657Y-62989542D01*
X82292228Y-62846685D01*
X82292228Y-61560971D01*
X83720800Y-63060971D02*
X83720800Y-62275257D01*
X83649371Y-62132400D01*
X83506514Y-62060971D01*
X83220800Y-62060971D01*
X83077942Y-62132400D01*
X83720800Y-62989542D02*
X83577942Y-63060971D01*
X83220800Y-63060971D01*
X83077942Y-62989542D01*
X83006514Y-62846685D01*
X83006514Y-62703828D01*
X83077942Y-62560971D01*
X83220800Y-62489542D01*
X83577942Y-62489542D01*
X83720800Y-62418114D01*
X85077942Y-62989542D02*
X84935085Y-63060971D01*
X84649371Y-63060971D01*
X84506514Y-62989542D01*
X84435085Y-62918114D01*
X84363657Y-62775257D01*
X84363657Y-62346685D01*
X84435085Y-62203828D01*
X84506514Y-62132400D01*
X84649371Y-62060971D01*
X84935085Y-62060971D01*
X85077942Y-62132400D01*
X86292228Y-62989542D02*
X86149371Y-63060971D01*
X85863657Y-63060971D01*
X85720800Y-62989542D01*
X85649371Y-62846685D01*
X85649371Y-62275257D01*
X85720800Y-62132400D01*
X85863657Y-62060971D01*
X86149371Y-62060971D01*
X86292228Y-62132400D01*
X86363657Y-62275257D01*
X86363657Y-62418114D01*
X85649371Y-62560971D01*
X87935085Y-62060971D02*
X88506514Y-62060971D01*
X88149371Y-63060971D02*
X88149371Y-61775257D01*
X88220800Y-61632400D01*
X88363657Y-61560971D01*
X88506514Y-61560971D01*
X89220800Y-63060971D02*
X89077942Y-62989542D01*
X89006514Y-62918114D01*
X88935085Y-62775257D01*
X88935085Y-62346685D01*
X89006514Y-62203828D01*
X89077942Y-62132400D01*
X89220800Y-62060971D01*
X89435085Y-62060971D01*
X89577942Y-62132400D01*
X89649371Y-62203828D01*
X89720800Y-62346685D01*
X89720800Y-62775257D01*
X89649371Y-62918114D01*
X89577942Y-62989542D01*
X89435085Y-63060971D01*
X89220800Y-63060971D01*
X90363657Y-63060971D02*
X90363657Y-62060971D01*
X90363657Y-62346685D02*
X90435085Y-62203828D01*
X90506514Y-62132400D01*
X90649371Y-62060971D01*
X90792228Y-62060971D01*
X93077942Y-63060971D02*
X93077942Y-61560971D01*
X93077942Y-62989542D02*
X92935085Y-63060971D01*
X92649371Y-63060971D01*
X92506514Y-62989542D01*
X92435085Y-62918114D01*
X92363657Y-62775257D01*
X92363657Y-62346685D01*
X92435085Y-62203828D01*
X92506514Y-62132400D01*
X92649371Y-62060971D01*
X92935085Y-62060971D01*
X93077942Y-62132400D01*
X93792228Y-63060971D02*
X93792228Y-62060971D01*
X93792228Y-61560971D02*
X93720800Y-61632400D01*
X93792228Y-61703828D01*
X93863657Y-61632400D01*
X93792228Y-61560971D01*
X93792228Y-61703828D01*
X94435085Y-62989542D02*
X94577942Y-63060971D01*
X94863657Y-63060971D01*
X95006514Y-62989542D01*
X95077942Y-62846685D01*
X95077942Y-62775257D01*
X95006514Y-62632400D01*
X94863657Y-62560971D01*
X94649371Y-62560971D01*
X94506514Y-62489542D01*
X94435085Y-62346685D01*
X94435085Y-62275257D01*
X94506514Y-62132400D01*
X94649371Y-62060971D01*
X94863657Y-62060971D01*
X95006514Y-62132400D01*
X95720800Y-62060971D02*
X95720800Y-63560971D01*
X95720800Y-62132400D02*
X95863657Y-62060971D01*
X96149371Y-62060971D01*
X96292228Y-62132400D01*
X96363657Y-62203828D01*
X96435085Y-62346685D01*
X96435085Y-62775257D01*
X96363657Y-62918114D01*
X96292228Y-62989542D01*
X96149371Y-63060971D01*
X95863657Y-63060971D01*
X95720800Y-62989542D01*
X97292228Y-63060971D02*
X97149371Y-62989542D01*
X97077942Y-62846685D01*
X97077942Y-61560971D01*
X98506514Y-63060971D02*
X98506514Y-62275257D01*
X98435085Y-62132400D01*
X98292228Y-62060971D01*
X98006514Y-62060971D01*
X97863657Y-62132400D01*
X98506514Y-62989542D02*
X98363657Y-63060971D01*
X98006514Y-63060971D01*
X97863657Y-62989542D01*
X97792228Y-62846685D01*
X97792228Y-62703828D01*
X97863657Y-62560971D01*
X98006514Y-62489542D01*
X98363657Y-62489542D01*
X98506514Y-62418114D01*
X99077942Y-62060971D02*
X99435085Y-63060971D01*
X99792228Y-62060971D02*
X99435085Y-63060971D01*
X99292228Y-63418114D01*
X99220800Y-63489542D01*
X99077942Y-63560971D01*
D11*
X170180000Y-83883500D02*
X170180000Y-102235000D01*
X250063000Y-83820000D02*
X170180000Y-83883500D01*
X64770000Y-102235000D02*
X34925000Y-102235000D01*
X62230000Y-83820000D02*
X62230000Y-102235000D01*
X34925000Y-83820000D02*
X62230000Y-83820000D01*
X54610000Y-50800000D02*
X54610000Y-74295000D01*
X125730000Y-50800000D02*
X54610000Y-50800000D01*
X125730000Y-74295000D02*
X125730000Y-50800000D01*
X54610000Y-74295000D02*
X125730000Y-74295000D01*
X34925000Y-102235000D02*
X34925000Y-45212000D01*
X250063000Y-102235000D02*
X50165000Y-102235000D01*
X250063000Y-45212000D02*
X250063000Y-102235000D01*
X34925000Y-45212000D02*
X250063000Y-45212000D01*
D12*
%TO.C,S10*%
X216535000Y-67310000D02*
X229235000Y-67310000D01*
X229235000Y-67310000D02*
X229235000Y-80010000D01*
X229235000Y-80010000D02*
X216535000Y-80010000D01*
X216535000Y-80010000D02*
X216535000Y-67310000D01*
%TO.C,S9*%
X196342000Y-80010000D02*
X196342000Y-67310000D01*
X209042000Y-80010000D02*
X196342000Y-80010000D01*
X209042000Y-67310000D02*
X209042000Y-80010000D01*
X196342000Y-67310000D02*
X209042000Y-67310000D01*
%TO.C,S8*%
X176149000Y-67310000D02*
X188849000Y-67310000D01*
X188849000Y-67310000D02*
X188849000Y-80010000D01*
X188849000Y-80010000D02*
X176149000Y-80010000D01*
X176149000Y-80010000D02*
X176149000Y-67310000D01*
%TO.C,D9*%
X224430000Y-59035000D02*
X221340000Y-59035000D01*
X225385000Y-61595000D02*
G75*
G03*
X225385000Y-61595000I-2500000J0D01*
G01*
X222885462Y-64585000D02*
G75*
G02*
X221340170Y-59035000I-462J2990000D01*
G01*
X222884538Y-64585000D02*
G75*
G03*
X224429830Y-59035000I462J2990000D01*
G01*
%TO.C,D8*%
X205192000Y-61595000D02*
G75*
G03*
X205192000Y-61595000I-2500000J0D01*
G01*
X204237000Y-59035000D02*
X201147000Y-59035000D01*
X202691538Y-64585000D02*
G75*
G03*
X204236830Y-59035000I462J2990000D01*
G01*
X202692462Y-64585000D02*
G75*
G02*
X201147170Y-59035000I-462J2990000D01*
G01*
%TO.C,D7*%
X184044000Y-59035000D02*
X180954000Y-59035000D01*
X184999000Y-61595000D02*
G75*
G03*
X184999000Y-61595000I-2500000J0D01*
G01*
X182499462Y-64585000D02*
G75*
G02*
X180954170Y-59035000I-462J2990000D01*
G01*
X182498538Y-64585000D02*
G75*
G03*
X184043830Y-59035000I462J2990000D01*
G01*
%TO.C,D6*%
X123465000Y-78085000D02*
X120375000Y-78085000D01*
X124420000Y-80645000D02*
G75*
G03*
X124420000Y-80645000I-2500000J0D01*
G01*
X121919538Y-83635000D02*
G75*
G03*
X123464830Y-78085000I462J2990000D01*
G01*
X121920462Y-83635000D02*
G75*
G02*
X120375170Y-78085000I-462J2990000D01*
G01*
%TO.C,D5*%
X110765000Y-78085000D02*
X107675000Y-78085000D01*
X111720000Y-80645000D02*
G75*
G03*
X111720000Y-80645000I-2500000J0D01*
G01*
X109219538Y-83635000D02*
G75*
G03*
X110764830Y-78085000I462J2990000D01*
G01*
X109220462Y-83635000D02*
G75*
G02*
X107675170Y-78085000I-462J2990000D01*
G01*
%TO.C,D4*%
X98065000Y-78085000D02*
X94975000Y-78085000D01*
X99020000Y-80645000D02*
G75*
G03*
X99020000Y-80645000I-2500000J0D01*
G01*
X96519538Y-83635000D02*
G75*
G03*
X98064830Y-78085000I462J2990000D01*
G01*
X96520462Y-83635000D02*
G75*
G02*
X94975170Y-78085000I-462J2990000D01*
G01*
%TO.C,D3*%
X85365000Y-78085000D02*
X82275000Y-78085000D01*
X86320000Y-80645000D02*
G75*
G03*
X86320000Y-80645000I-2500000J0D01*
G01*
X83819538Y-83635000D02*
G75*
G03*
X85364830Y-78085000I462J2990000D01*
G01*
X83820462Y-83635000D02*
G75*
G02*
X82275170Y-78085000I-462J2990000D01*
G01*
%TO.C,D2*%
X72665000Y-78085000D02*
X69575000Y-78085000D01*
X73620000Y-80645000D02*
G75*
G03*
X73620000Y-80645000I-2500000J0D01*
G01*
X71119538Y-83635000D02*
G75*
G03*
X72664830Y-78085000I462J2990000D01*
G01*
X71120462Y-83635000D02*
G75*
G02*
X69575170Y-78085000I-462J2990000D01*
G01*
%TO.C,D1*%
X56155000Y-78085000D02*
X53065000Y-78085000D01*
X57110000Y-80645000D02*
G75*
G03*
X57110000Y-80645000I-2500000J0D01*
G01*
X54609538Y-83635000D02*
G75*
G03*
X56154830Y-78085000I462J2990000D01*
G01*
X54610462Y-83635000D02*
G75*
G02*
X53065170Y-78085000I-462J2990000D01*
G01*
%TO.C,S7*%
X130810000Y-52705000D02*
X143510000Y-52705000D01*
X143510000Y-52705000D02*
X143510000Y-65405000D01*
X143510000Y-65405000D02*
X130810000Y-65405000D01*
X130810000Y-65405000D02*
X130810000Y-52705000D01*
%TO.C,S6*%
X130810000Y-67945000D02*
X143510000Y-67945000D01*
X143510000Y-67945000D02*
X143510000Y-80645000D01*
X143510000Y-80645000D02*
X130810000Y-80645000D01*
X130810000Y-80645000D02*
X130810000Y-67945000D01*
%TO.C,S5*%
X115570000Y-87630000D02*
X128270000Y-87630000D01*
X128270000Y-87630000D02*
X128270000Y-100330000D01*
X128270000Y-100330000D02*
X115570000Y-100330000D01*
X115570000Y-100330000D02*
X115570000Y-87630000D01*
%TO.C,S4*%
X102870000Y-87630000D02*
X115570000Y-87630000D01*
X115570000Y-87630000D02*
X115570000Y-100330000D01*
X115570000Y-100330000D02*
X102870000Y-100330000D01*
X102870000Y-100330000D02*
X102870000Y-87630000D01*
%TO.C,S3*%
X90170000Y-87630000D02*
X102870000Y-87630000D01*
X102870000Y-87630000D02*
X102870000Y-100330000D01*
X102870000Y-100330000D02*
X90170000Y-100330000D01*
X90170000Y-100330000D02*
X90170000Y-87630000D01*
%TO.C,S2*%
X77470000Y-87630000D02*
X90170000Y-87630000D01*
X90170000Y-87630000D02*
X90170000Y-100330000D01*
X90170000Y-100330000D02*
X77470000Y-100330000D01*
X77470000Y-100330000D02*
X77470000Y-87630000D01*
%TO.C,S1*%
X64770000Y-87630000D02*
X77470000Y-87630000D01*
X77470000Y-87630000D02*
X77470000Y-100330000D01*
X77470000Y-100330000D02*
X64770000Y-100330000D01*
X64770000Y-100330000D02*
X64770000Y-87630000D01*
%TO.C,S10*%
D11*
X221646904Y-66444761D02*
X221789761Y-66492380D01*
X222027857Y-66492380D01*
X222123095Y-66444761D01*
X222170714Y-66397142D01*
X222218333Y-66301904D01*
X222218333Y-66206666D01*
X222170714Y-66111428D01*
X222123095Y-66063809D01*
X222027857Y-66016190D01*
X221837380Y-65968571D01*
X221742142Y-65920952D01*
X221694523Y-65873333D01*
X221646904Y-65778095D01*
X221646904Y-65682857D01*
X221694523Y-65587619D01*
X221742142Y-65540000D01*
X221837380Y-65492380D01*
X222075476Y-65492380D01*
X222218333Y-65540000D01*
X223170714Y-66492380D02*
X222599285Y-66492380D01*
X222885000Y-66492380D02*
X222885000Y-65492380D01*
X222789761Y-65635238D01*
X222694523Y-65730476D01*
X222599285Y-65778095D01*
X223789761Y-65492380D02*
X223885000Y-65492380D01*
X223980238Y-65540000D01*
X224027857Y-65587619D01*
X224075476Y-65682857D01*
X224123095Y-65873333D01*
X224123095Y-66111428D01*
X224075476Y-66301904D01*
X224027857Y-66397142D01*
X223980238Y-66444761D01*
X223885000Y-66492380D01*
X223789761Y-66492380D01*
X223694523Y-66444761D01*
X223646904Y-66397142D01*
X223599285Y-66301904D01*
X223551666Y-66111428D01*
X223551666Y-65873333D01*
X223599285Y-65682857D01*
X223646904Y-65587619D01*
X223694523Y-65540000D01*
X223789761Y-65492380D01*
%TO.C,S9*%
X201930095Y-66444761D02*
X202072952Y-66492380D01*
X202311047Y-66492380D01*
X202406285Y-66444761D01*
X202453904Y-66397142D01*
X202501523Y-66301904D01*
X202501523Y-66206666D01*
X202453904Y-66111428D01*
X202406285Y-66063809D01*
X202311047Y-66016190D01*
X202120571Y-65968571D01*
X202025333Y-65920952D01*
X201977714Y-65873333D01*
X201930095Y-65778095D01*
X201930095Y-65682857D01*
X201977714Y-65587619D01*
X202025333Y-65540000D01*
X202120571Y-65492380D01*
X202358666Y-65492380D01*
X202501523Y-65540000D01*
X202977714Y-66492380D02*
X203168190Y-66492380D01*
X203263428Y-66444761D01*
X203311047Y-66397142D01*
X203406285Y-66254285D01*
X203453904Y-66063809D01*
X203453904Y-65682857D01*
X203406285Y-65587619D01*
X203358666Y-65540000D01*
X203263428Y-65492380D01*
X203072952Y-65492380D01*
X202977714Y-65540000D01*
X202930095Y-65587619D01*
X202882476Y-65682857D01*
X202882476Y-65920952D01*
X202930095Y-66016190D01*
X202977714Y-66063809D01*
X203072952Y-66111428D01*
X203263428Y-66111428D01*
X203358666Y-66063809D01*
X203406285Y-66016190D01*
X203453904Y-65920952D01*
%TO.C,S8*%
X181737095Y-66444761D02*
X181879952Y-66492380D01*
X182118047Y-66492380D01*
X182213285Y-66444761D01*
X182260904Y-66397142D01*
X182308523Y-66301904D01*
X182308523Y-66206666D01*
X182260904Y-66111428D01*
X182213285Y-66063809D01*
X182118047Y-66016190D01*
X181927571Y-65968571D01*
X181832333Y-65920952D01*
X181784714Y-65873333D01*
X181737095Y-65778095D01*
X181737095Y-65682857D01*
X181784714Y-65587619D01*
X181832333Y-65540000D01*
X181927571Y-65492380D01*
X182165666Y-65492380D01*
X182308523Y-65540000D01*
X182879952Y-65920952D02*
X182784714Y-65873333D01*
X182737095Y-65825714D01*
X182689476Y-65730476D01*
X182689476Y-65682857D01*
X182737095Y-65587619D01*
X182784714Y-65540000D01*
X182879952Y-65492380D01*
X183070428Y-65492380D01*
X183165666Y-65540000D01*
X183213285Y-65587619D01*
X183260904Y-65682857D01*
X183260904Y-65730476D01*
X183213285Y-65825714D01*
X183165666Y-65873333D01*
X183070428Y-65920952D01*
X182879952Y-65920952D01*
X182784714Y-65968571D01*
X182737095Y-66016190D01*
X182689476Y-66111428D01*
X182689476Y-66301904D01*
X182737095Y-66397142D01*
X182784714Y-66444761D01*
X182879952Y-66492380D01*
X183070428Y-66492380D01*
X183165666Y-66444761D01*
X183213285Y-66397142D01*
X183260904Y-66301904D01*
X183260904Y-66111428D01*
X183213285Y-66016190D01*
X183165666Y-65968571D01*
X183070428Y-65920952D01*
%TO.C,D9*%
X227297380Y-62333095D02*
X226297380Y-62333095D01*
X226297380Y-62095000D01*
X226345000Y-61952142D01*
X226440238Y-61856904D01*
X226535476Y-61809285D01*
X226725952Y-61761666D01*
X226868809Y-61761666D01*
X227059285Y-61809285D01*
X227154523Y-61856904D01*
X227249761Y-61952142D01*
X227297380Y-62095000D01*
X227297380Y-62333095D01*
X227297380Y-61285476D02*
X227297380Y-61095000D01*
X227249761Y-60999761D01*
X227202142Y-60952142D01*
X227059285Y-60856904D01*
X226868809Y-60809285D01*
X226487857Y-60809285D01*
X226392619Y-60856904D01*
X226345000Y-60904523D01*
X226297380Y-60999761D01*
X226297380Y-61190238D01*
X226345000Y-61285476D01*
X226392619Y-61333095D01*
X226487857Y-61380714D01*
X226725952Y-61380714D01*
X226821190Y-61333095D01*
X226868809Y-61285476D01*
X226916428Y-61190238D01*
X226916428Y-60999761D01*
X226868809Y-60904523D01*
X226821190Y-60856904D01*
X226725952Y-60809285D01*
%TO.C,D8*%
X207104380Y-62333095D02*
X206104380Y-62333095D01*
X206104380Y-62095000D01*
X206152000Y-61952142D01*
X206247238Y-61856904D01*
X206342476Y-61809285D01*
X206532952Y-61761666D01*
X206675809Y-61761666D01*
X206866285Y-61809285D01*
X206961523Y-61856904D01*
X207056761Y-61952142D01*
X207104380Y-62095000D01*
X207104380Y-62333095D01*
X206532952Y-61190238D02*
X206485333Y-61285476D01*
X206437714Y-61333095D01*
X206342476Y-61380714D01*
X206294857Y-61380714D01*
X206199619Y-61333095D01*
X206152000Y-61285476D01*
X206104380Y-61190238D01*
X206104380Y-60999761D01*
X206152000Y-60904523D01*
X206199619Y-60856904D01*
X206294857Y-60809285D01*
X206342476Y-60809285D01*
X206437714Y-60856904D01*
X206485333Y-60904523D01*
X206532952Y-60999761D01*
X206532952Y-61190238D01*
X206580571Y-61285476D01*
X206628190Y-61333095D01*
X206723428Y-61380714D01*
X206913904Y-61380714D01*
X207009142Y-61333095D01*
X207056761Y-61285476D01*
X207104380Y-61190238D01*
X207104380Y-60999761D01*
X207056761Y-60904523D01*
X207009142Y-60856904D01*
X206913904Y-60809285D01*
X206723428Y-60809285D01*
X206628190Y-60856904D01*
X206580571Y-60904523D01*
X206532952Y-60999761D01*
%TO.C,D7*%
X186911380Y-62333095D02*
X185911380Y-62333095D01*
X185911380Y-62095000D01*
X185959000Y-61952142D01*
X186054238Y-61856904D01*
X186149476Y-61809285D01*
X186339952Y-61761666D01*
X186482809Y-61761666D01*
X186673285Y-61809285D01*
X186768523Y-61856904D01*
X186863761Y-61952142D01*
X186911380Y-62095000D01*
X186911380Y-62333095D01*
X185911380Y-61428333D02*
X185911380Y-60761666D01*
X186911380Y-61190238D01*
%TO.C,D6*%
X126332380Y-81383095D02*
X125332380Y-81383095D01*
X125332380Y-81145000D01*
X125380000Y-81002142D01*
X125475238Y-80906904D01*
X125570476Y-80859285D01*
X125760952Y-80811666D01*
X125903809Y-80811666D01*
X126094285Y-80859285D01*
X126189523Y-80906904D01*
X126284761Y-81002142D01*
X126332380Y-81145000D01*
X126332380Y-81383095D01*
X125332380Y-79954523D02*
X125332380Y-80145000D01*
X125380000Y-80240238D01*
X125427619Y-80287857D01*
X125570476Y-80383095D01*
X125760952Y-80430714D01*
X126141904Y-80430714D01*
X126237142Y-80383095D01*
X126284761Y-80335476D01*
X126332380Y-80240238D01*
X126332380Y-80049761D01*
X126284761Y-79954523D01*
X126237142Y-79906904D01*
X126141904Y-79859285D01*
X125903809Y-79859285D01*
X125808571Y-79906904D01*
X125760952Y-79954523D01*
X125713333Y-80049761D01*
X125713333Y-80240238D01*
X125760952Y-80335476D01*
X125808571Y-80383095D01*
X125903809Y-80430714D01*
%TO.C,D5*%
X113632380Y-81383095D02*
X112632380Y-81383095D01*
X112632380Y-81145000D01*
X112680000Y-81002142D01*
X112775238Y-80906904D01*
X112870476Y-80859285D01*
X113060952Y-80811666D01*
X113203809Y-80811666D01*
X113394285Y-80859285D01*
X113489523Y-80906904D01*
X113584761Y-81002142D01*
X113632380Y-81145000D01*
X113632380Y-81383095D01*
X112632380Y-79906904D02*
X112632380Y-80383095D01*
X113108571Y-80430714D01*
X113060952Y-80383095D01*
X113013333Y-80287857D01*
X113013333Y-80049761D01*
X113060952Y-79954523D01*
X113108571Y-79906904D01*
X113203809Y-79859285D01*
X113441904Y-79859285D01*
X113537142Y-79906904D01*
X113584761Y-79954523D01*
X113632380Y-80049761D01*
X113632380Y-80287857D01*
X113584761Y-80383095D01*
X113537142Y-80430714D01*
%TO.C,D4*%
X100932380Y-81383095D02*
X99932380Y-81383095D01*
X99932380Y-81145000D01*
X99980000Y-81002142D01*
X100075238Y-80906904D01*
X100170476Y-80859285D01*
X100360952Y-80811666D01*
X100503809Y-80811666D01*
X100694285Y-80859285D01*
X100789523Y-80906904D01*
X100884761Y-81002142D01*
X100932380Y-81145000D01*
X100932380Y-81383095D01*
X100265714Y-79954523D02*
X100932380Y-79954523D01*
X99884761Y-80192619D02*
X100599047Y-80430714D01*
X100599047Y-79811666D01*
%TO.C,D3*%
X88232380Y-81383095D02*
X87232380Y-81383095D01*
X87232380Y-81145000D01*
X87280000Y-81002142D01*
X87375238Y-80906904D01*
X87470476Y-80859285D01*
X87660952Y-80811666D01*
X87803809Y-80811666D01*
X87994285Y-80859285D01*
X88089523Y-80906904D01*
X88184761Y-81002142D01*
X88232380Y-81145000D01*
X88232380Y-81383095D01*
X87232380Y-80478333D02*
X87232380Y-79859285D01*
X87613333Y-80192619D01*
X87613333Y-80049761D01*
X87660952Y-79954523D01*
X87708571Y-79906904D01*
X87803809Y-79859285D01*
X88041904Y-79859285D01*
X88137142Y-79906904D01*
X88184761Y-79954523D01*
X88232380Y-80049761D01*
X88232380Y-80335476D01*
X88184761Y-80430714D01*
X88137142Y-80478333D01*
%TO.C,D2*%
X75532380Y-81383095D02*
X74532380Y-81383095D01*
X74532380Y-81145000D01*
X74580000Y-81002142D01*
X74675238Y-80906904D01*
X74770476Y-80859285D01*
X74960952Y-80811666D01*
X75103809Y-80811666D01*
X75294285Y-80859285D01*
X75389523Y-80906904D01*
X75484761Y-81002142D01*
X75532380Y-81145000D01*
X75532380Y-81383095D01*
X74627619Y-80430714D02*
X74580000Y-80383095D01*
X74532380Y-80287857D01*
X74532380Y-80049761D01*
X74580000Y-79954523D01*
X74627619Y-79906904D01*
X74722857Y-79859285D01*
X74818095Y-79859285D01*
X74960952Y-79906904D01*
X75532380Y-80478333D01*
X75532380Y-79859285D01*
%TO.C,D1*%
X59022380Y-81383095D02*
X58022380Y-81383095D01*
X58022380Y-81145000D01*
X58070000Y-81002142D01*
X58165238Y-80906904D01*
X58260476Y-80859285D01*
X58450952Y-80811666D01*
X58593809Y-80811666D01*
X58784285Y-80859285D01*
X58879523Y-80906904D01*
X58974761Y-81002142D01*
X59022380Y-81145000D01*
X59022380Y-81383095D01*
X59022380Y-79859285D02*
X59022380Y-80430714D01*
X59022380Y-80145000D02*
X58022380Y-80145000D01*
X58165238Y-80240238D01*
X58260476Y-80335476D01*
X58308095Y-80430714D01*
%TO.C,S7*%
X136398095Y-51839761D02*
X136540952Y-51887380D01*
X136779047Y-51887380D01*
X136874285Y-51839761D01*
X136921904Y-51792142D01*
X136969523Y-51696904D01*
X136969523Y-51601666D01*
X136921904Y-51506428D01*
X136874285Y-51458809D01*
X136779047Y-51411190D01*
X136588571Y-51363571D01*
X136493333Y-51315952D01*
X136445714Y-51268333D01*
X136398095Y-51173095D01*
X136398095Y-51077857D01*
X136445714Y-50982619D01*
X136493333Y-50935000D01*
X136588571Y-50887380D01*
X136826666Y-50887380D01*
X136969523Y-50935000D01*
X137302857Y-50887380D02*
X137969523Y-50887380D01*
X137540952Y-51887380D01*
%TO.C,S6*%
X136398095Y-67079761D02*
X136540952Y-67127380D01*
X136779047Y-67127380D01*
X136874285Y-67079761D01*
X136921904Y-67032142D01*
X136969523Y-66936904D01*
X136969523Y-66841666D01*
X136921904Y-66746428D01*
X136874285Y-66698809D01*
X136779047Y-66651190D01*
X136588571Y-66603571D01*
X136493333Y-66555952D01*
X136445714Y-66508333D01*
X136398095Y-66413095D01*
X136398095Y-66317857D01*
X136445714Y-66222619D01*
X136493333Y-66175000D01*
X136588571Y-66127380D01*
X136826666Y-66127380D01*
X136969523Y-66175000D01*
X137826666Y-66127380D02*
X137636190Y-66127380D01*
X137540952Y-66175000D01*
X137493333Y-66222619D01*
X137398095Y-66365476D01*
X137350476Y-66555952D01*
X137350476Y-66936904D01*
X137398095Y-67032142D01*
X137445714Y-67079761D01*
X137540952Y-67127380D01*
X137731428Y-67127380D01*
X137826666Y-67079761D01*
X137874285Y-67032142D01*
X137921904Y-66936904D01*
X137921904Y-66698809D01*
X137874285Y-66603571D01*
X137826666Y-66555952D01*
X137731428Y-66508333D01*
X137540952Y-66508333D01*
X137445714Y-66555952D01*
X137398095Y-66603571D01*
X137350476Y-66698809D01*
%TO.C,S5*%
X121158095Y-86764761D02*
X121300952Y-86812380D01*
X121539047Y-86812380D01*
X121634285Y-86764761D01*
X121681904Y-86717142D01*
X121729523Y-86621904D01*
X121729523Y-86526666D01*
X121681904Y-86431428D01*
X121634285Y-86383809D01*
X121539047Y-86336190D01*
X121348571Y-86288571D01*
X121253333Y-86240952D01*
X121205714Y-86193333D01*
X121158095Y-86098095D01*
X121158095Y-86002857D01*
X121205714Y-85907619D01*
X121253333Y-85860000D01*
X121348571Y-85812380D01*
X121586666Y-85812380D01*
X121729523Y-85860000D01*
X122634285Y-85812380D02*
X122158095Y-85812380D01*
X122110476Y-86288571D01*
X122158095Y-86240952D01*
X122253333Y-86193333D01*
X122491428Y-86193333D01*
X122586666Y-86240952D01*
X122634285Y-86288571D01*
X122681904Y-86383809D01*
X122681904Y-86621904D01*
X122634285Y-86717142D01*
X122586666Y-86764761D01*
X122491428Y-86812380D01*
X122253333Y-86812380D01*
X122158095Y-86764761D01*
X122110476Y-86717142D01*
%TO.C,S4*%
X108458095Y-86764761D02*
X108600952Y-86812380D01*
X108839047Y-86812380D01*
X108934285Y-86764761D01*
X108981904Y-86717142D01*
X109029523Y-86621904D01*
X109029523Y-86526666D01*
X108981904Y-86431428D01*
X108934285Y-86383809D01*
X108839047Y-86336190D01*
X108648571Y-86288571D01*
X108553333Y-86240952D01*
X108505714Y-86193333D01*
X108458095Y-86098095D01*
X108458095Y-86002857D01*
X108505714Y-85907619D01*
X108553333Y-85860000D01*
X108648571Y-85812380D01*
X108886666Y-85812380D01*
X109029523Y-85860000D01*
X109886666Y-86145714D02*
X109886666Y-86812380D01*
X109648571Y-85764761D02*
X109410476Y-86479047D01*
X110029523Y-86479047D01*
%TO.C,S3*%
X95758095Y-86764761D02*
X95900952Y-86812380D01*
X96139047Y-86812380D01*
X96234285Y-86764761D01*
X96281904Y-86717142D01*
X96329523Y-86621904D01*
X96329523Y-86526666D01*
X96281904Y-86431428D01*
X96234285Y-86383809D01*
X96139047Y-86336190D01*
X95948571Y-86288571D01*
X95853333Y-86240952D01*
X95805714Y-86193333D01*
X95758095Y-86098095D01*
X95758095Y-86002857D01*
X95805714Y-85907619D01*
X95853333Y-85860000D01*
X95948571Y-85812380D01*
X96186666Y-85812380D01*
X96329523Y-85860000D01*
X96662857Y-85812380D02*
X97281904Y-85812380D01*
X96948571Y-86193333D01*
X97091428Y-86193333D01*
X97186666Y-86240952D01*
X97234285Y-86288571D01*
X97281904Y-86383809D01*
X97281904Y-86621904D01*
X97234285Y-86717142D01*
X97186666Y-86764761D01*
X97091428Y-86812380D01*
X96805714Y-86812380D01*
X96710476Y-86764761D01*
X96662857Y-86717142D01*
%TO.C,S2*%
X83058095Y-86764761D02*
X83200952Y-86812380D01*
X83439047Y-86812380D01*
X83534285Y-86764761D01*
X83581904Y-86717142D01*
X83629523Y-86621904D01*
X83629523Y-86526666D01*
X83581904Y-86431428D01*
X83534285Y-86383809D01*
X83439047Y-86336190D01*
X83248571Y-86288571D01*
X83153333Y-86240952D01*
X83105714Y-86193333D01*
X83058095Y-86098095D01*
X83058095Y-86002857D01*
X83105714Y-85907619D01*
X83153333Y-85860000D01*
X83248571Y-85812380D01*
X83486666Y-85812380D01*
X83629523Y-85860000D01*
X84010476Y-85907619D02*
X84058095Y-85860000D01*
X84153333Y-85812380D01*
X84391428Y-85812380D01*
X84486666Y-85860000D01*
X84534285Y-85907619D01*
X84581904Y-86002857D01*
X84581904Y-86098095D01*
X84534285Y-86240952D01*
X83962857Y-86812380D01*
X84581904Y-86812380D01*
%TO.C,S1*%
X70358095Y-86764761D02*
X70500952Y-86812380D01*
X70739047Y-86812380D01*
X70834285Y-86764761D01*
X70881904Y-86717142D01*
X70929523Y-86621904D01*
X70929523Y-86526666D01*
X70881904Y-86431428D01*
X70834285Y-86383809D01*
X70739047Y-86336190D01*
X70548571Y-86288571D01*
X70453333Y-86240952D01*
X70405714Y-86193333D01*
X70358095Y-86098095D01*
X70358095Y-86002857D01*
X70405714Y-85907619D01*
X70453333Y-85860000D01*
X70548571Y-85812380D01*
X70786666Y-85812380D01*
X70929523Y-85860000D01*
X71881904Y-86812380D02*
X71310476Y-86812380D01*
X71596190Y-86812380D02*
X71596190Y-85812380D01*
X71500952Y-85955238D01*
X71405714Y-86050476D01*
X71310476Y-86098095D01*
%TD*%
M02*
