M48
; DRILL file {KiCad (5.1.9)-1} date 06/09/21 10:25:57
; FORMAT={-:-/ absolute / inch / decimal}
; #@! TF.CreationDate,2021-06-09T10:25:57+02:00
; #@! TF.GenerationSoftware,Kicad,Pcbnew,(5.1.9)-1
; #@! TF.FileFunction,Plated,1,2,PTH
FMAT,2
INCH
T1C0.0157
T2C0.0276
T3C0.0300
T4C0.0315
T5C0.0354
T6C0.0394
T7C0.0787
%
G90
G05
T1
X2.725Y-3.825
X3.225Y-3.775
X3.725Y-3.75
X4.25Y-3.575
X5.875Y-2.575
T2
X2.325Y-3.225
X2.625Y-3.225
X5.3Y-3.425
X5.3Y-3.525
X5.3Y-3.625
X5.3Y-3.725
X5.3Y-3.825
X5.6Y-3.425
X5.6Y-3.525
X5.6Y-3.625
X5.6Y-3.725
X5.6Y-3.825
X6.2Y-2.7
X6.2Y-2.8
X6.2Y-2.9
X6.2Y-3.575
X6.2Y-3.7
X6.5Y-2.7
X6.5Y-2.8
X6.5Y-2.9
X6.5Y-3.575
X6.5Y-3.7
X6.8209Y-3.1
X6.8957Y-3.1
X7.0352Y-2.2
X7.11Y-2.2
X7.6191Y-3.1
X7.6939Y-3.1
X7.8302Y-2.2
X7.905Y-2.2
X8.4109Y-3.1
X8.4857Y-3.1
X8.6252Y-2.2
X8.7Y-2.2
T3
X2.6Y-3.5
X2.6Y-3.7
X2.6Y-3.9
X2.8Y-3.5
X2.8Y-3.9
X3.0Y-3.5
X3.0Y-3.7
X3.0Y-3.9
X3.1Y-3.5
X3.1Y-3.7
X3.1Y-3.9
X3.3Y-3.5
X3.3Y-3.9
X3.5Y-3.5
X3.5Y-3.7
X3.5Y-3.9
X3.6Y-3.5
X3.6Y-3.7
X3.6Y-3.9
X3.8Y-3.5
X3.8Y-3.9
X4.0Y-3.5
X4.0Y-3.7
X4.0Y-3.9
X4.1Y-3.5
X4.1Y-3.7
X4.1Y-3.9
X4.3Y-3.5
X4.3Y-3.9
X4.5Y-3.5
X4.5Y-3.7
X4.5Y-3.9
X4.6Y-3.5
X4.6Y-3.7
X4.6Y-3.9
X4.8Y-3.5
X4.8Y-3.9
X5.0Y-3.5
X5.0Y-3.7
X5.0Y-3.9
X5.2Y-2.125
X5.2Y-2.325
X5.2Y-2.525
X5.2Y-2.725
X5.2Y-2.925
X5.2Y-3.125
X5.4Y-2.125
X5.4Y-2.525
X5.4Y-2.725
X5.4Y-3.125
X5.6Y-2.125
X5.6Y-2.325
X5.6Y-2.525
X5.6Y-2.725
X5.6Y-2.925
X5.6Y-3.125
X6.985Y-2.7
X6.985Y-2.9
X6.985Y-3.1
X7.185Y-2.7
X7.185Y-3.1
X7.385Y-2.7
X7.385Y-2.9
X7.385Y-3.1
X7.78Y-2.7
X7.78Y-2.9
X7.78Y-3.1
X7.98Y-2.7
X7.98Y-3.1
X8.18Y-2.7
X8.18Y-2.9
X8.18Y-3.1
X8.575Y-2.7
X8.575Y-2.9
X8.575Y-3.1
X8.775Y-2.7
X8.775Y-3.1
X8.975Y-2.7
X8.975Y-2.9
X8.975Y-3.1
T4
X2.9Y-3.3
X2.9Y-3.9
X3.4Y-3.3
X3.4Y-3.9
X3.9Y-3.3
X3.9Y-3.9
X4.4Y-3.3
X4.4Y-3.9
X4.9Y-3.3
X4.9Y-3.9
X5.75Y-2.525
X5.75Y-2.625
X5.75Y-2.725
X5.75Y-2.825
X5.75Y-2.925
X5.75Y-3.025
X5.75Y-3.125
X5.75Y-3.225
X5.75Y-3.325
X5.75Y-3.425
X5.75Y-3.525
X5.75Y-3.625
X5.75Y-3.725
X5.75Y-3.825
X6.05Y-2.525
X6.05Y-2.625
X6.05Y-2.725
X6.05Y-2.825
X6.05Y-2.925
X6.05Y-3.025
X6.05Y-3.125
X6.05Y-3.225
X6.05Y-3.325
X6.05Y-3.425
X6.05Y-3.525
X6.05Y-3.625
X6.05Y-3.725
X6.05Y-3.825
X6.175Y-2.025
X6.205Y-3.09
X6.205Y-3.19
X6.205Y-3.29
X6.205Y-3.39
X6.475Y-2.025
X6.505Y-3.09
X6.505Y-3.19
X6.505Y-3.29
X6.505Y-3.39
T5
X2.15Y-3.125
X2.15Y-3.225
X2.8Y-3.125
X2.8Y-3.225
X3.3Y-3.125
X3.3Y-3.225
X3.8Y-3.125
X3.8Y-3.225
X4.3Y-3.125
X4.3Y-3.225
X4.8Y-3.125
X4.8Y-3.225
X7.185Y-2.375
X7.185Y-2.475
X7.98Y-2.375
X7.98Y-2.475
X8.775Y-2.375
X8.775Y-2.475
T6
X5.75Y-2.325
X6.0453Y-2.325
X6.225Y-2.205
X6.225Y-2.305
X6.225Y-2.405
X6.225Y-2.505
X6.475Y-2.205
X6.475Y-2.305
X6.475Y-2.405
X6.475Y-2.505
X6.885Y-2.2
X6.885Y-2.3
X6.885Y-2.4
X6.885Y-2.5
X7.68Y-2.2
X7.68Y-2.3
X7.68Y-2.4
X7.68Y-2.5
X8.475Y-2.2
X8.475Y-2.3
X8.475Y-2.4
X8.475Y-2.5
T7
X2.072Y-1.882
X2.072Y-3.043
X5.028Y-1.882
X5.028Y-3.043
X9.148Y-1.882
T0
M30
