%TF.GenerationSoftware,KiCad,Pcbnew,(5.1.10)-1*%
%TF.CreationDate,2021-09-21T15:48:09+02:00*%
%TF.ProjectId,100 MHz TTL CMOS,31303020-4d48-47a2-9054-544c20434d4f,rev?*%
%TF.SameCoordinates,Original*%
%TF.FileFunction,Soldermask,Top*%
%TF.FilePolarity,Negative*%
%FSLAX46Y46*%
G04 Gerber Fmt 4.6, Leading zero omitted, Abs format (unit mm)*
G04 Created by KiCad (PCBNEW (5.1.10)-1) date 2021-09-21 15:48:09*
%MOMM*%
%LPD*%
G01*
G04 APERTURE LIST*
%ADD10C,2.000000*%
%ADD11R,2.400000X1.600000*%
%ADD12O,2.400000X1.600000*%
%ADD13C,1.400000*%
%ADD14R,1.400000X1.400000*%
%ADD15R,1.600000X1.600000*%
%ADD16O,1.600000X1.600000*%
%ADD17O,1.400000X1.400000*%
%ADD18O,1.700000X1.700000*%
%ADD19R,1.700000X1.700000*%
%ADD20O,2.500000X1.600000*%
%ADD21O,7.000000X3.500000*%
%ADD22C,1.600000*%
G04 APERTURE END LIST*
D10*
%TO.C,C4*%
X113030000Y-56395000D03*
X113030000Y-48895000D03*
%TD*%
D11*
%TO.C,IC3*%
X138430000Y-52070000D03*
D12*
X146050000Y-67310000D03*
X138430000Y-54610000D03*
X146050000Y-64770000D03*
X138430000Y-57150000D03*
X146050000Y-62230000D03*
X138430000Y-59690000D03*
X146050000Y-59690000D03*
X138430000Y-62230000D03*
X146050000Y-57150000D03*
X138430000Y-64770000D03*
X146050000Y-54610000D03*
X138430000Y-67310000D03*
X146050000Y-52070000D03*
%TD*%
D13*
%TO.C,K6*%
X103505000Y-63500000D03*
X103505000Y-67310000D03*
X103505000Y-71120000D03*
D14*
X103505000Y-74930000D03*
%TD*%
D15*
%TO.C,SW2*%
X82550000Y-48895000D03*
D16*
X90170000Y-56515000D03*
X82550000Y-51435000D03*
X90170000Y-53975000D03*
X82550000Y-53975000D03*
X90170000Y-51435000D03*
X82550000Y-56515000D03*
X90170000Y-48895000D03*
%TD*%
D13*
%TO.C,R12*%
X93980000Y-55245000D03*
D17*
X95880000Y-55245000D03*
%TD*%
D13*
%TO.C,R11*%
X93980000Y-52705000D03*
D17*
X95880000Y-52705000D03*
%TD*%
D13*
%TO.C,R10*%
X93980000Y-50165000D03*
D17*
X95880000Y-50165000D03*
%TD*%
D11*
%TO.C,IC4*%
X99695000Y-48895000D03*
D12*
X107315000Y-56515000D03*
X99695000Y-51435000D03*
X107315000Y-53975000D03*
X99695000Y-53975000D03*
X107315000Y-51435000D03*
X99695000Y-56515000D03*
X107315000Y-48895000D03*
%TD*%
D10*
%TO.C,C10*%
X78105000Y-76955000D03*
X78105000Y-84455000D03*
%TD*%
D18*
%TO.C,J1*%
X83185000Y-81280000D03*
X85725000Y-81280000D03*
X88265000Y-81280000D03*
X90805000Y-81280000D03*
X93345000Y-81280000D03*
X95885000Y-81280000D03*
X98425000Y-81280000D03*
X100965000Y-81280000D03*
X103505000Y-81280000D03*
D19*
X106045000Y-81280000D03*
%TD*%
D16*
%TO.C,SW1*%
X73660000Y-76835000D03*
X66040000Y-84455000D03*
X73660000Y-79375000D03*
X66040000Y-81915000D03*
X73660000Y-81915000D03*
X66040000Y-79375000D03*
X73660000Y-84455000D03*
D15*
X66040000Y-76835000D03*
%TD*%
D17*
%TO.C,R9*%
X48260000Y-80645000D03*
D13*
X50160000Y-80645000D03*
%TD*%
D17*
%TO.C,R4*%
X48265000Y-78105000D03*
D13*
X50165000Y-78105000D03*
%TD*%
D17*
%TO.C,R3*%
X48265000Y-75565000D03*
D13*
X50165000Y-75565000D03*
%TD*%
D18*
%TO.C,J3*%
X48895000Y-56515000D03*
X48895000Y-53975000D03*
X48895000Y-51435000D03*
D19*
X48895000Y-48895000D03*
%TD*%
D11*
%TO.C,IC6*%
X67945000Y-48895000D03*
D12*
X75565000Y-66675000D03*
X67945000Y-51435000D03*
X75565000Y-64135000D03*
X67945000Y-53975000D03*
X75565000Y-61595000D03*
X67945000Y-56515000D03*
X75565000Y-59055000D03*
X67945000Y-59055000D03*
X75565000Y-56515000D03*
X67945000Y-61595000D03*
X75565000Y-53975000D03*
X67945000Y-64135000D03*
X75565000Y-51435000D03*
X67945000Y-66675000D03*
X75565000Y-48895000D03*
%TD*%
%TO.C,IC2*%
X61595000Y-48895000D03*
X53975000Y-81915000D03*
X61595000Y-51435000D03*
X53975000Y-79375000D03*
X61595000Y-53975000D03*
X53975000Y-76835000D03*
X61595000Y-56515000D03*
X53975000Y-74295000D03*
X61595000Y-59055000D03*
X53975000Y-71755000D03*
X61595000Y-61595000D03*
X53975000Y-69215000D03*
X61595000Y-64135000D03*
X53975000Y-66675000D03*
X61595000Y-66675000D03*
X53975000Y-64135000D03*
X61595000Y-69215000D03*
X53975000Y-61595000D03*
X61595000Y-71755000D03*
X53975000Y-59055000D03*
X61595000Y-74295000D03*
X53975000Y-56515000D03*
X61595000Y-76835000D03*
X53975000Y-53975000D03*
X61595000Y-79375000D03*
X53975000Y-51435000D03*
X61595000Y-81915000D03*
D11*
X53975000Y-48895000D03*
%TD*%
D10*
%TO.C,C2*%
X53975000Y-87630000D03*
X61475000Y-87630000D03*
%TD*%
D13*
%TO.C,K5*%
X93345000Y-63500000D03*
X93345000Y-67310000D03*
X93345000Y-71120000D03*
D14*
X93345000Y-74930000D03*
%TD*%
D20*
%TO.C,J2*%
X188595000Y-82550000D03*
X188595000Y-85090000D03*
D21*
X193675000Y-90170000D03*
X193675000Y-80010000D03*
%TD*%
D16*
%TO.C,R1*%
X187325000Y-75565000D03*
D22*
X187325000Y-65405000D03*
%TD*%
D11*
%TO.C,IC5*%
X120015000Y-71755000D03*
D12*
X127635000Y-89535000D03*
X120015000Y-74295000D03*
X127635000Y-86995000D03*
X120015000Y-76835000D03*
X127635000Y-84455000D03*
X120015000Y-79375000D03*
X127635000Y-81915000D03*
X120015000Y-81915000D03*
X127635000Y-79375000D03*
X120015000Y-84455000D03*
X127635000Y-76835000D03*
X120015000Y-86995000D03*
X127635000Y-74295000D03*
X120015000Y-89535000D03*
X127635000Y-71755000D03*
%TD*%
D22*
%TO.C,R8*%
X154940000Y-78740000D03*
D16*
X165100000Y-78740000D03*
%TD*%
D22*
%TO.C,R7*%
X154940000Y-69850000D03*
D16*
X165100000Y-69850000D03*
%TD*%
%TO.C,R6*%
X165100000Y-60960000D03*
D22*
X154940000Y-60960000D03*
%TD*%
%TO.C,R5*%
X154940000Y-87630000D03*
D16*
X165100000Y-87630000D03*
%TD*%
D22*
%TO.C,R2*%
X173990000Y-77470000D03*
D16*
X184150000Y-77470000D03*
%TD*%
D14*
%TO.C,K4*%
X168910000Y-74295000D03*
D13*
X165100000Y-74295000D03*
X161290000Y-74295000D03*
X157480000Y-74295000D03*
%TD*%
D14*
%TO.C,K3*%
X168910000Y-65405000D03*
D13*
X165100000Y-65405000D03*
X161290000Y-65405000D03*
X157480000Y-65405000D03*
%TD*%
D14*
%TO.C,K2*%
X168910000Y-56515000D03*
D13*
X165100000Y-56515000D03*
X161290000Y-56515000D03*
X157480000Y-56515000D03*
%TD*%
D14*
%TO.C,K1*%
X168910000Y-83185000D03*
D13*
X165100000Y-83185000D03*
X161290000Y-83185000D03*
X157480000Y-83185000D03*
%TD*%
D11*
%TO.C,IC1*%
X138430000Y-74295000D03*
D12*
X146050000Y-89535000D03*
X138430000Y-76835000D03*
X146050000Y-86995000D03*
X138430000Y-79375000D03*
X146050000Y-84455000D03*
X138430000Y-81915000D03*
X146050000Y-81915000D03*
X138430000Y-84455000D03*
X146050000Y-79375000D03*
X138430000Y-86995000D03*
X146050000Y-76835000D03*
X138430000Y-89535000D03*
X146050000Y-74295000D03*
%TD*%
D15*
%TO.C,D2*%
X173990000Y-74295000D03*
D16*
X181610000Y-74295000D03*
%TD*%
D15*
%TO.C,D1*%
X181610000Y-80645000D03*
D16*
X173990000Y-80645000D03*
%TD*%
D22*
%TO.C,C12*%
X173990000Y-71120000D03*
X178990000Y-71120000D03*
%TD*%
%TO.C,C11*%
X179070000Y-83820000D03*
X174070000Y-83820000D03*
%TD*%
M02*
