M48
; DRILL file {KiCad (5.1.10)-1} date 09/21/21 15:48:13
; FORMAT={-:-/ absolute / inch / decimal}
; #@! TF.CreationDate,2021-09-21T15:48:13+02:00
; #@! TF.GenerationSoftware,Kicad,Pcbnew,(5.1.10)-1
; #@! TF.FileFunction,Plated,1,2,PTH
FMAT,2
INCH
T1C0.0157
T2C0.0276
T3C0.0315
T4C0.0350
T5C0.0394
T6C0.0791
%
G90
G05
T1
X3.375Y-2.9
X3.375Y-3.0
X4.4Y-3.65
X6.275Y-2.0
X6.325Y-1.95
X6.375Y-1.95
X6.375Y-2.0
T2
X1.9Y-3.175
X1.9002Y-2.975
X1.9002Y-3.075
X1.9748Y-3.175
X1.975Y-2.975
X1.975Y-3.075
X3.675Y-2.5
X3.675Y-2.65
X3.675Y-2.8
X3.675Y-2.95
X3.7Y-1.975
X3.7Y-2.075
X3.7Y-2.175
X3.7748Y-1.975
X3.7748Y-2.075
X3.7748Y-2.175
X4.075Y-2.5
X4.075Y-2.65
X4.075Y-2.8
X4.075Y-2.95
X6.2Y-2.225
X6.2Y-2.575
X6.2Y-2.925
X6.2Y-3.275
X6.35Y-2.225
X6.35Y-2.575
X6.35Y-2.925
X6.35Y-3.275
X6.5Y-2.225
X6.5Y-2.575
X6.5Y-2.925
X6.5Y-3.275
X6.65Y-2.225
X6.65Y-2.575
X6.65Y-2.925
X6.65Y-3.275
T3
X2.125Y-1.925
X2.125Y-2.025
X2.125Y-2.125
X2.125Y-2.225
X2.125Y-2.325
X2.125Y-2.425
X2.125Y-2.525
X2.125Y-2.625
X2.125Y-2.725
X2.125Y-2.825
X2.125Y-2.925
X2.125Y-3.025
X2.125Y-3.125
X2.125Y-3.225
X2.425Y-1.925
X2.425Y-2.025
X2.425Y-2.125
X2.425Y-2.225
X2.425Y-2.325
X2.425Y-2.425
X2.425Y-2.525
X2.425Y-2.625
X2.425Y-2.725
X2.425Y-2.825
X2.425Y-2.925
X2.425Y-3.025
X2.425Y-3.125
X2.425Y-3.225
X2.6Y-3.025
X2.6Y-3.125
X2.6Y-3.225
X2.6Y-3.325
X2.675Y-1.925
X2.675Y-2.025
X2.675Y-2.125
X2.675Y-2.225
X2.675Y-2.325
X2.675Y-2.425
X2.675Y-2.525
X2.675Y-2.625
X2.9Y-3.025
X2.9Y-3.125
X2.9Y-3.225
X2.9Y-3.325
X2.975Y-1.925
X2.975Y-2.025
X2.975Y-2.125
X2.975Y-2.225
X2.975Y-2.325
X2.975Y-2.425
X2.975Y-2.525
X2.975Y-2.625
X3.25Y-1.925
X3.25Y-2.025
X3.25Y-2.125
X3.25Y-2.225
X3.55Y-1.925
X3.55Y-2.025
X3.55Y-2.125
X3.55Y-2.225
X3.925Y-1.925
X3.925Y-2.025
X3.925Y-2.125
X3.925Y-2.225
X4.225Y-1.925
X4.225Y-2.025
X4.225Y-2.125
X4.225Y-2.225
X4.725Y-2.825
X4.725Y-2.925
X4.725Y-3.025
X4.725Y-3.125
X4.725Y-3.225
X4.725Y-3.325
X4.725Y-3.425
X4.725Y-3.525
X5.025Y-2.825
X5.025Y-2.925
X5.025Y-3.025
X5.025Y-3.125
X5.025Y-3.225
X5.025Y-3.325
X5.025Y-3.425
X5.025Y-3.525
X5.45Y-2.05
X5.45Y-2.15
X5.45Y-2.25
X5.45Y-2.35
X5.45Y-2.45
X5.45Y-2.55
X5.45Y-2.65
X5.45Y-2.925
X5.45Y-3.025
X5.45Y-3.125
X5.45Y-3.225
X5.45Y-3.325
X5.45Y-3.425
X5.45Y-3.525
X5.75Y-2.05
X5.75Y-2.15
X5.75Y-2.25
X5.75Y-2.35
X5.75Y-2.45
X5.75Y-2.55
X5.75Y-2.65
X5.75Y-2.925
X5.75Y-3.025
X5.75Y-3.125
X5.75Y-3.225
X5.75Y-3.325
X5.75Y-3.425
X5.75Y-3.525
X6.1Y-2.4
X6.1Y-2.75
X6.1Y-3.1
X6.1Y-3.45
X6.5Y-2.4
X6.5Y-2.75
X6.5Y-3.1
X6.5Y-3.45
X6.85Y-2.8
X6.85Y-2.925
X6.85Y-3.05
X6.85Y-3.175
X6.8531Y-3.3
X7.0469Y-2.8
X7.05Y-3.3
X7.15Y-2.925
X7.15Y-3.175
X7.25Y-3.05
X7.375Y-2.575
X7.375Y-2.975
T4
X7.425Y-3.25
X7.425Y-3.35
T5
X1.925Y-1.925
X1.925Y-2.025
X1.925Y-2.125
X1.925Y-2.225
X2.125Y-3.45
X2.4203Y-3.45
X3.075Y-3.0297
X3.075Y-3.325
X3.275Y-3.2
X3.375Y-3.2
X3.475Y-3.2
X3.575Y-3.2
X3.675Y-3.2
X3.775Y-3.2
X3.875Y-3.2
X3.975Y-3.2
X4.075Y-3.2
X4.175Y-3.2
X4.45Y-1.925
X4.45Y-2.2203
T6
X7.625Y-3.15
X7.625Y-3.55
T0
M30
