M48
; DRILL file {KiCad (5.1.9)-1} date 06/05/21 23:20:28
; FORMAT={-:-/ absolute / inch / decimal}
; #@! TF.CreationDate,2021-06-05T23:20:28+02:00
; #@! TF.GenerationSoftware,Kicad,Pcbnew,(5.1.9)-1
; #@! TF.FileFunction,Plated,1,2,PTH
FMAT,2
INCH
T1C0.0157
T2C0.0236
T3C0.0276
T4C0.0315
T5C0.0350
T6C0.0354
T7C0.0394
T8C0.0433
T9C0.0472
T10C0.0512
T11C0.0630
T12C0.0791
T13C0.1181
%
G90
G05
T1
X1.1Y-5.16
X1.125Y-4.125
X1.175Y-4.625
X1.225Y-3.775
X1.275Y-4.075
X1.275Y-4.725
X1.275Y-4.8
X1.325Y-3.925
X1.35Y-1.775
X1.35Y-1.825
X1.35Y-2.425
X1.35Y-2.475
X1.35Y-2.575
X1.375Y-3.675
X1.425Y-3.875
X1.425Y-3.975
X1.425Y-4.025
X1.45Y-5.475
X1.475Y-3.725
X1.525Y-3.825
X1.55Y-5.425
X1.575Y-3.625
X1.625Y-3.775
X1.65Y-2.575
X1.675Y-3.775
X1.675Y-3.825
X1.725Y-4.075
X1.775Y-3.825
X1.8Y-3.875
X1.875Y-2.575
X1.875Y-3.575
X1.9Y-3.975
X1.95Y-1.225
X1.95Y-1.825
X1.95Y-2.425
X1.95Y-4.025
X1.975Y-3.875
X2.05Y-3.925
X2.175Y-3.925
X2.2Y-1.075
X2.225Y-3.975
X2.275Y-4.025
X2.3Y-1.775
X2.35Y-2.475
X2.425Y-3.275
X2.45Y-1.175
X2.475Y-3.675
X2.525Y-3.575
X2.575Y-3.725
X2.625Y-3.875
X2.675Y-3.775
X2.675Y-5.475
X2.7Y-1.125
X2.725Y-3.825
X2.725Y-5.425
X2.775Y-3.625
X2.825Y-3.575
X2.925Y-3.675
X2.975Y-3.475
X2.975Y-4.075
X3.025Y-1.875
X3.025Y-3.525
X3.025Y-3.825
X3.075Y-1.225
X3.075Y-3.625
X3.075Y-3.725
X3.125Y-3.775
X3.175Y-4.025
X3.2Y-2.7
X3.225Y-3.875
X3.275Y-4.075
X3.275Y-4.525
X3.3Y-2.7
X3.325Y-4.075
X3.375Y-3.725
X3.4Y-2.7
X3.425Y-3.725
X3.475Y-3.825
X3.475Y-4.7
X3.475Y-5.375
X3.5Y-1.275
X3.525Y-3.825
X3.525Y-3.875
X3.575Y-3.675
X3.575Y-4.025
X3.6Y-1.225
X3.625Y-3.675
X3.625Y-4.075
X3.675Y-2.575
X3.675Y-3.575
X3.675Y-3.625
X3.675Y-5.425
X3.7Y-1.125
X3.725Y-3.625
X3.725Y-3.775
X3.775Y-3.525
X3.825Y-3.725
X3.875Y-2.7
X3.875Y-3.475
X3.875Y-5.425
X3.925Y-3.825
X3.975Y-2.65
X4.15Y-4.9
X4.175Y-1.175
X4.175Y-2.65
X4.175Y-3.275
X4.175Y-3.625
X4.275Y-1.225
X4.35Y-3.675
X4.35Y-4.625
X4.35Y-5.625
X4.4Y-3.325
X4.4Y-4.7
X4.625Y-4.7
X4.725Y-3.925
X4.765Y-3.22
X4.795Y-3.275
X4.825Y-4.675
X4.875Y-1.125
X4.875Y-1.17
X4.925Y-4.725
X5.025Y-3.975
X5.15Y-1.125
X5.15Y-1.175
X5.15Y-1.225
X5.15Y-1.275
X5.15Y-1.325
X5.15Y-1.375
X5.175Y-4.9
X5.45Y-4.625
X5.5Y-4.075
X5.65Y-0.625
X5.65Y-1.225
X5.7Y-0.725
X5.7Y-1.275
X6.95Y-1.1
T2
X1.1Y-1.5374
X1.1Y-2.2
X1.1Y-2.9874
X1.1Y-4.4124
X1.44Y-5.16
X1.6126Y-0.8874
X2.3Y-2.2
X3.4625Y-1.5375
X3.5124Y-4.4124
X4.5376Y-5.1624
X4.625Y-5.475
X4.888Y-0.888
X4.9Y-1.5375
X4.9Y-2.2
X4.905Y-2.9874
X5.9374Y-4.4124
X6.0124Y-5.1624
X6.275Y-5.6
T3
X3.25Y-2.425
X3.25Y-2.4998
X3.35Y-2.4252
X3.35Y-2.5
X3.45Y-2.425
X3.45Y-2.4998
X3.925Y-2.4252
X3.925Y-2.5
X4.025Y-2.4252
X4.025Y-2.5
X4.125Y-2.4252
X4.125Y-2.5
X6.5752Y-0.45
X6.65Y-0.45
X6.75Y-0.45
X6.8248Y-0.45
T4
X1.225Y-2.8
X1.225Y-3.1
X1.3Y-1.35
X1.3Y-1.65
X1.3Y-2.0
X1.3Y-2.3
X1.325Y-2.8
X1.325Y-3.1
X1.35Y-4.225
X1.35Y-4.525
X1.35Y-4.975
X1.35Y-5.275
X1.4Y-1.35
X1.4Y-1.65
X1.4Y-2.0
X1.4Y-2.3
X1.425Y-2.8
X1.425Y-3.1
X1.45Y-4.225
X1.45Y-4.525
X1.45Y-4.975
X1.45Y-5.275
X1.5Y-1.35
X1.5Y-1.65
X1.5Y-2.0
X1.5Y-2.3
X1.525Y-2.8
X1.525Y-3.1
X1.55Y-4.225
X1.55Y-4.525
X1.55Y-4.975
X1.55Y-5.275
X1.6Y-1.35
X1.6Y-1.65
X1.6Y-2.0
X1.6Y-2.3
X1.625Y-2.8
X1.625Y-3.1
X1.65Y-4.225
X1.65Y-4.525
X1.65Y-4.975
X1.65Y-5.275
X1.7Y-1.35
X1.7Y-1.65
X1.7Y-2.0
X1.7Y-2.3
X1.725Y-2.8
X1.725Y-3.1
X1.75Y-0.7
X1.75Y-1.0
X1.75Y-4.225
X1.75Y-4.525
X1.75Y-4.975
X1.75Y-5.275
X1.8Y-1.35
X1.8Y-1.65
X1.8Y-2.0
X1.8Y-2.3
X1.825Y-2.8
X1.825Y-3.1
X1.85Y-0.7
X1.85Y-1.0
X1.85Y-4.225
X1.85Y-4.525
X1.85Y-4.975
X1.85Y-5.275
X1.9Y-1.35
X1.9Y-1.65
X1.9Y-2.0
X1.9Y-2.3
X1.925Y-2.8
X1.925Y-3.1
X1.95Y-0.7
X1.95Y-1.0
X1.95Y-4.225
X1.95Y-4.525
X1.95Y-4.975
X1.95Y-5.275
X2.0Y-1.35
X2.0Y-1.65
X2.0Y-2.0
X2.0Y-2.3
X2.025Y-2.8
X2.025Y-3.1
X2.05Y-0.7
X2.05Y-1.0
X2.05Y-4.225
X2.05Y-4.525
X2.05Y-4.975
X2.05Y-5.275
X2.125Y-2.8
X2.125Y-3.1
X2.15Y-0.7
X2.15Y-1.0
X2.225Y-2.8
X2.225Y-3.1
X2.25Y-0.7
X2.25Y-1.0
X2.25Y-1.35
X2.25Y-1.65
X2.25Y-2.0
X2.25Y-2.3
X2.325Y-2.8
X2.325Y-3.1
X2.35Y-0.7
X2.35Y-1.0
X2.35Y-1.35
X2.35Y-1.65
X2.35Y-2.0
X2.35Y-2.3
X2.375Y-4.225
X2.375Y-4.525
X2.425Y-2.8
X2.425Y-3.1
X2.45Y-1.35
X2.45Y-1.65
X2.45Y-2.0
X2.45Y-2.3
X2.475Y-4.225
X2.475Y-4.525
X2.475Y-4.975
X2.475Y-5.275
X2.525Y-2.8
X2.525Y-3.1
X2.55Y-1.35
X2.55Y-1.65
X2.55Y-2.0
X2.55Y-2.3
X2.575Y-4.225
X2.575Y-4.525
X2.575Y-4.975
X2.575Y-5.275
X2.65Y-1.35
X2.65Y-1.65
X2.65Y-2.0
X2.65Y-2.3
X2.675Y-4.225
X2.675Y-4.525
X2.675Y-4.975
X2.675Y-5.275
X2.75Y-1.35
X2.75Y-1.65
X2.75Y-2.0
X2.75Y-2.3
X2.775Y-4.225
X2.775Y-4.525
X2.775Y-4.975
X2.775Y-5.275
X2.85Y-1.35
X2.85Y-1.65
X2.85Y-2.0
X2.85Y-2.3
X2.875Y-4.225
X2.875Y-4.525
X2.875Y-4.975
X2.875Y-5.275
X2.9Y-0.7
X2.9Y-1.0
X2.95Y-1.35
X2.95Y-1.65
X2.95Y-2.0
X2.95Y-2.3
X2.975Y-2.8
X2.975Y-3.1
X2.975Y-4.225
X2.975Y-4.525
X2.975Y-4.975
X2.975Y-5.275
X3.075Y-2.8
X3.075Y-3.1
X3.075Y-4.225
X3.075Y-4.525
X3.075Y-4.975
X3.075Y-5.275
X3.175Y-2.8
X3.175Y-3.1
X3.2Y-1.35
X3.2Y-1.65
X3.25Y-2.0
X3.25Y-2.3
X3.275Y-2.8
X3.275Y-3.1
X3.3Y-1.35
X3.3Y-1.65
X3.35Y-2.0
X3.35Y-2.3
X3.375Y-2.8
X3.375Y-3.1
X3.4Y-1.35
X3.4Y-1.65
X3.45Y-2.0
X3.45Y-2.3
X3.475Y-2.8
X3.475Y-3.1
X3.475Y-4.225
X3.475Y-4.525
X3.5Y-0.7
X3.5Y-1.0
X3.5Y-1.35
X3.5Y-1.65
X3.55Y-2.0
X3.55Y-2.3
X3.575Y-2.8
X3.575Y-3.1
X3.575Y-4.225
X3.575Y-4.525
X3.575Y-4.975
X3.575Y-5.275
X3.6Y-1.35
X3.6Y-1.65
X3.675Y-2.8
X3.675Y-3.1
X3.675Y-4.225
X3.675Y-4.525
X3.675Y-4.975
X3.675Y-5.275
X3.7Y-1.35
X3.7Y-1.65
X3.775Y-0.7
X3.775Y-1.0
X3.775Y-2.8
X3.775Y-3.1
X3.775Y-4.225
X3.775Y-4.525
X3.775Y-4.975
X3.775Y-5.275
X3.8Y-1.35
X3.8Y-1.65
X3.875Y-0.7
X3.875Y-1.0
X3.875Y-2.8
X3.875Y-3.1
X3.875Y-4.225
X3.875Y-4.525
X3.875Y-4.975
X3.875Y-5.275
X3.925Y-2.0
X3.925Y-2.3
X3.975Y-0.7
X3.975Y-1.0
X3.975Y-2.8
X3.975Y-3.1
X3.975Y-4.225
X3.975Y-4.525
X3.975Y-4.975
X3.975Y-5.275
X4.025Y-2.0
X4.025Y-2.3
X4.075Y-0.7
X4.075Y-1.0
X4.075Y-2.8
X4.075Y-3.1
X4.075Y-4.225
X4.075Y-4.525
X4.075Y-4.975
X4.075Y-5.275
X4.125Y-2.0
X4.125Y-2.3
X4.175Y-0.7
X4.175Y-1.0
X4.175Y-2.8
X4.175Y-3.1
X4.175Y-4.225
X4.175Y-4.525
X4.175Y-4.975
X4.175Y-5.275
X4.225Y-2.0
X4.225Y-2.3
X4.275Y-0.7
X4.275Y-1.0
X4.275Y-2.8
X4.275Y-3.1
X4.375Y-0.7
X4.375Y-1.0
X4.525Y-4.225
X4.525Y-4.525
X4.525Y-4.975
X4.525Y-5.275
X4.525Y-5.45
X4.625Y-4.225
X4.625Y-4.525
X4.625Y-4.975
X4.625Y-5.275
X4.725Y-4.225
X4.725Y-4.525
X4.725Y-4.975
X4.725Y-5.275
X4.825Y-4.225
X4.825Y-4.525
X4.825Y-4.975
X4.825Y-5.275
X4.925Y-4.225
X4.925Y-4.525
X4.925Y-4.975
X4.925Y-5.275
X4.925Y-5.625
X5.025Y-4.225
X5.025Y-4.525
X5.025Y-4.975
X5.025Y-5.275
X5.125Y-4.225
X5.125Y-4.525
X5.125Y-4.975
X5.125Y-5.275
X5.125Y-5.45
X5.525Y-5.625
T5
X1.175Y-0.525
X1.175Y-0.625
T6
X5.5507Y-1.9657
X5.5507Y-2.1626
X5.5507Y-2.4579
X5.5507Y-2.7531
X5.5507Y-2.95
X6.535Y-1.9657
X6.535Y-2.1626
X6.535Y-2.7531
X6.535Y-2.95
T7
X2.625Y-0.7
X2.625Y-0.9953
X2.725Y-2.8
X2.725Y-3.0953
X4.425Y-5.85
X4.425Y-6.65
X4.425Y-7.45
X4.475Y-2.8
X4.475Y-3.0953
X4.525Y-5.85
X4.525Y-6.65
X4.525Y-7.45
X4.625Y-5.85
X4.625Y-6.65
X4.625Y-7.45
X4.725Y-5.85
X4.725Y-6.65
X4.725Y-7.45
X4.825Y-5.85
X4.825Y-6.65
X4.825Y-7.45
X4.925Y-5.85
X4.925Y-6.65
X4.925Y-7.45
X5.025Y-5.85
X5.025Y-6.65
X5.025Y-7.45
X5.125Y-5.85
X5.125Y-6.65
X5.125Y-7.45
X5.225Y-5.85
X5.225Y-6.65
X5.225Y-7.45
X5.325Y-5.85
X5.325Y-6.65
X5.325Y-7.45
X5.55Y-0.525
X5.55Y-0.625
X5.55Y-0.725
X5.55Y-0.825
X6.05Y-0.65
X6.05Y-1.25
X6.15Y-0.65
X6.15Y-1.25
X6.25Y-0.65
X6.25Y-1.25
X6.35Y-0.65
X6.35Y-1.25
X6.45Y-0.65
X6.45Y-1.25
X6.5297Y-4.95
X6.55Y-0.65
X6.55Y-1.25
X6.65Y-0.65
X6.65Y-1.25
X6.75Y-0.65
X6.75Y-1.25
X6.825Y-4.95
X6.85Y-0.65
X6.85Y-1.25
X6.95Y-0.65
X6.95Y-1.25
X7.05Y-0.65
X7.05Y-1.25
X7.15Y-0.65
X7.15Y-1.25
X7.25Y-0.65
X7.25Y-1.25
X7.3Y-4.05
X7.3Y-4.3453
X7.35Y-0.65
X7.35Y-1.25
X7.45Y-0.65
X7.45Y-1.25
T8
X7.275Y-4.65
X7.275Y-4.75
X7.275Y-4.85
T9
X6.675Y-4.425
X6.675Y-4.6219
T10
X7.25Y-2.675
X7.25Y-3.5608
T11
X6.425Y-4.05
X6.625Y-4.05
X6.825Y-4.05
X7.025Y-4.05
X7.25Y-1.9622
X7.25Y-2.1
X7.25Y-2.2378
T12
X0.975Y-0.325
X0.975Y-0.725
T13
X0.785Y-0.96
X0.785Y-3.6
X0.785Y-7.1
X6.775Y-0.96
X6.775Y-3.6
X6.775Y-7.1
T0
M30
