%TF.GenerationSoftware,KiCad,Pcbnew,(5.1.9)-1*%
%TF.CreationDate,2021-06-05T23:20:16+02:00*%
%TF.ProjectId,Hauptplatine,48617570-7470-46c6-9174-696e652e6b69,rev?*%
%TF.SameCoordinates,Original*%
%TF.FileFunction,Copper,L1,Top*%
%TF.FilePolarity,Positive*%
%FSLAX46Y46*%
G04 Gerber Fmt 4.6, Leading zero omitted, Abs format (unit mm)*
G04 Created by KiCad (PCBNEW (5.1.9)-1) date 2021-06-05 23:20:16*
%MOMM*%
%LPD*%
G01*
G04 APERTURE LIST*
%TA.AperFunction,ComponentPad*%
%ADD10O,1.600000X1.600000*%
%TD*%
%TA.AperFunction,ComponentPad*%
%ADD11C,1.600000*%
%TD*%
%TA.AperFunction,ComponentPad*%
%ADD12O,1.600000X2.400000*%
%TD*%
%TA.AperFunction,ComponentPad*%
%ADD13R,1.600000X2.400000*%
%TD*%
%TA.AperFunction,ComponentPad*%
%ADD14R,1.600000X1.600000*%
%TD*%
%TA.AperFunction,ComponentPad*%
%ADD15O,1.400000X1.400000*%
%TD*%
%TA.AperFunction,ComponentPad*%
%ADD16C,1.400000*%
%TD*%
%TA.AperFunction,ComponentPad*%
%ADD17C,2.000000*%
%TD*%
%TA.AperFunction,ComponentPad*%
%ADD18R,2.000000X2.000000*%
%TD*%
%TA.AperFunction,ComponentPad*%
%ADD19O,2.500000X1.600000*%
%TD*%
%TA.AperFunction,ComponentPad*%
%ADD20O,7.000000X3.500000*%
%TD*%
%TA.AperFunction,ComponentPad*%
%ADD21O,1.700000X1.700000*%
%TD*%
%TA.AperFunction,ComponentPad*%
%ADD22R,1.700000X1.700000*%
%TD*%
%TA.AperFunction,ComponentPad*%
%ADD23O,2.600000X2.000000*%
%TD*%
%TA.AperFunction,ComponentPad*%
%ADD24O,2.000000X1.905000*%
%TD*%
%TA.AperFunction,ComponentPad*%
%ADD25R,2.000000X1.905000*%
%TD*%
%TA.AperFunction,ComponentPad*%
%ADD26C,3.000000*%
%TD*%
%TA.AperFunction,ComponentPad*%
%ADD27R,3.200000X3.200000*%
%TD*%
%TA.AperFunction,ComponentPad*%
%ADD28C,3.200000*%
%TD*%
%TA.AperFunction,ComponentPad*%
%ADD29C,2.400000*%
%TD*%
%TA.AperFunction,ComponentPad*%
%ADD30R,2.400000X2.400000*%
%TD*%
%TA.AperFunction,ViaPad*%
%ADD31C,4.000000*%
%TD*%
%TA.AperFunction,ViaPad*%
%ADD32C,1.000000*%
%TD*%
%TA.AperFunction,ViaPad*%
%ADD33C,0.800000*%
%TD*%
%TA.AperFunction,Conductor*%
%ADD34C,1.000000*%
%TD*%
%TA.AperFunction,Conductor*%
%ADD35C,2.500000*%
%TD*%
%TA.AperFunction,Conductor*%
%ADD36C,4.000000*%
%TD*%
%TA.AperFunction,Conductor*%
%ADD37C,0.200000*%
%TD*%
%TA.AperFunction,Conductor*%
%ADD38C,0.250000*%
%TD*%
G04 APERTURE END LIST*
D10*
%TO.P,R1,2*%
%TO.N,GND*%
X130175000Y-138430000D03*
D11*
%TO.P,R1,1*%
%TO.N,HF*%
X114935000Y-138430000D03*
%TD*%
D12*
%TO.P,IC26,14*%
%TO.N,VCC*%
X44450000Y-17780000D03*
%TO.P,IC26,7*%
%TO.N,GND*%
X59690000Y-25400000D03*
%TO.P,IC26,13*%
%TO.N,Net-(IC26-Pad12)*%
X46990000Y-17780000D03*
%TO.P,IC26,6*%
%TO.N,N/C*%
X57150000Y-25400000D03*
%TO.P,IC26,12*%
%TO.N,Net-(IC26-Pad12)*%
X49530000Y-17780000D03*
%TO.P,IC26,5*%
%TO.N,GND*%
X54610000Y-25400000D03*
%TO.P,IC26,11*%
%TO.N,Net-(IC25-Pad9)*%
X52070000Y-17780000D03*
%TO.P,IC26,4*%
%TO.N,GND*%
X52070000Y-25400000D03*
%TO.P,IC26,10*%
X54610000Y-17780000D03*
%TO.P,IC26,3*%
%TO.N,Net-(IC20-Pad1)*%
X49530000Y-25400000D03*
%TO.P,IC26,9*%
%TO.N,GND*%
X57150000Y-17780000D03*
%TO.P,IC26,2*%
%TO.N,Net-(IC24-Pad6)*%
X46990000Y-25400000D03*
%TO.P,IC26,8*%
%TO.N,N/C*%
X59690000Y-17780000D03*
D13*
%TO.P,IC26,1*%
%TO.N,Net-(IC24-Pad3)*%
X44450000Y-25400000D03*
%TD*%
D12*
%TO.P,IC9,14*%
%TO.N,VCC*%
X114935000Y-126365000D03*
%TO.P,IC9,7*%
%TO.N,GND*%
X130175000Y-133985000D03*
%TO.P,IC9,13*%
%TO.N,Net-(IC10-Pad5)*%
X117475000Y-126365000D03*
%TO.P,IC9,6*%
%TO.N,Net-(IC10-Pad9)*%
X127635000Y-133985000D03*
%TO.P,IC9,12*%
%TO.N,Net-(IC8-Pad13)*%
X120015000Y-126365000D03*
%TO.P,IC9,5*%
%TO.N,Net-(IC10-Pad4)*%
X125095000Y-133985000D03*
%TO.P,IC9,11*%
%TO.N,N/C*%
X122555000Y-126365000D03*
%TO.P,IC9,4*%
%TO.N,0.5HZ*%
X122555000Y-133985000D03*
%TO.P,IC9,10*%
%TO.N,Net-(IC8-Pad1)*%
X125095000Y-126365000D03*
%TO.P,IC9,3*%
%TO.N,N/C*%
X120015000Y-133985000D03*
%TO.P,IC9,9*%
%TO.N,10MHZ*%
X127635000Y-126365000D03*
%TO.P,IC9,2*%
%TO.N,VCC*%
X117475000Y-133985000D03*
%TO.P,IC9,8*%
%TO.N,Net-(IC10-Pad8)*%
X130175000Y-126365000D03*
D13*
%TO.P,IC9,1*%
%TO.N,HF*%
X114935000Y-133985000D03*
%TD*%
D10*
%TO.P,IC12,16*%
%TO.N,RESET_COUNTER*%
X189230000Y-16510000D03*
%TO.P,IC12,15*%
%TO.N,_RESET_PERIOD*%
X189230000Y-31750000D03*
%TO.P,IC12,30*%
%TO.N,VCC*%
X153670000Y-16510000D03*
%TO.P,IC12,14*%
%TO.N,N/C*%
X186690000Y-31750000D03*
%TO.P,IC12,29*%
%TO.N,GND*%
X156210000Y-16510000D03*
%TO.P,IC12,13*%
%TO.N,N/C*%
X184150000Y-31750000D03*
%TO.P,IC12,28*%
%TO.N,VCC*%
X158750000Y-16510000D03*
%TO.P,IC12,12*%
%TO.N,N/C*%
X181610000Y-31750000D03*
%TO.P,IC12,27*%
X161290000Y-16510000D03*
%TO.P,IC12,11*%
X179070000Y-31750000D03*
%TO.P,IC12,26*%
X163830000Y-16510000D03*
%TO.P,IC12,10*%
%TO.N,0.5HZ*%
X176530000Y-31750000D03*
%TO.P,IC12,25*%
%TO.N,N/C*%
X166370000Y-16510000D03*
%TO.P,IC12,9*%
%TO.N,DONE*%
X173990000Y-31750000D03*
%TO.P,IC12,24*%
%TO.N,SCL*%
X168910000Y-16510000D03*
%TO.P,IC12,8*%
%TO.N,N/C*%
X171450000Y-31750000D03*
%TO.P,IC12,23*%
%TO.N,SDA*%
X171450000Y-16510000D03*
%TO.P,IC12,7*%
%TO.N,N/C*%
X168910000Y-31750000D03*
%TO.P,IC12,22*%
X173990000Y-16510000D03*
%TO.P,IC12,6*%
X166370000Y-31750000D03*
%TO.P,IC12,21*%
X176530000Y-16510000D03*
%TO.P,IC12,5*%
X163830000Y-31750000D03*
%TO.P,IC12,20*%
X179070000Y-16510000D03*
%TO.P,IC12,4*%
%TO.N,GND*%
X161290000Y-31750000D03*
%TO.P,IC12,19*%
%TO.N,N/C*%
X181610000Y-16510000D03*
%TO.P,IC12,3*%
%TO.N,VCC*%
X158750000Y-31750000D03*
%TO.P,IC12,18*%
%TO.N,N/C*%
X184150000Y-16510000D03*
%TO.P,IC12,2*%
X156210000Y-31750000D03*
%TO.P,IC12,17*%
X186690000Y-16510000D03*
D14*
%TO.P,IC12,1*%
X153670000Y-31750000D03*
%TD*%
D12*
%TO.P,IC25,14*%
%TO.N,VCC*%
X81280000Y-34290000D03*
%TO.P,IC25,7*%
%TO.N,GND*%
X96520000Y-41910000D03*
%TO.P,IC25,13*%
%TO.N,_RESET_COUNTER*%
X83820000Y-34290000D03*
%TO.P,IC25,6*%
%TO.N,Net-(IC25-Pad11)*%
X93980000Y-41910000D03*
%TO.P,IC25,12*%
%TO.N,Net-(IC20-Pad11)*%
X86360000Y-34290000D03*
%TO.P,IC25,5*%
%TO.N,Net-(IC25-Pad5)*%
X91440000Y-41910000D03*
%TO.P,IC25,11*%
%TO.N,Net-(IC25-Pad11)*%
X88900000Y-34290000D03*
%TO.P,IC25,4*%
%TO.N,Net-(IC20-Pad1)*%
X88900000Y-41910000D03*
%TO.P,IC25,10*%
%TO.N,_RESET_COUNTER*%
X91440000Y-34290000D03*
%TO.P,IC25,3*%
%TO.N,Net-(IC21-Pad1)*%
X86360000Y-41910000D03*
%TO.P,IC25,9*%
%TO.N,Net-(IC25-Pad9)*%
X93980000Y-34290000D03*
%TO.P,IC25,2*%
%TO.N,N/C*%
X83820000Y-41910000D03*
%TO.P,IC25,8*%
%TO.N,Net-(IC25-Pad11)*%
X96520000Y-34290000D03*
D13*
%TO.P,IC25,1*%
%TO.N,Net-(IC20-Pad1)*%
X81280000Y-41910000D03*
%TD*%
D12*
%TO.P,IC10,14*%
%TO.N,VCC*%
X90805000Y-126365000D03*
%TO.P,IC10,7*%
%TO.N,GND*%
X106045000Y-133985000D03*
%TO.P,IC10,13*%
%TO.N,Net-(IC10-Pad13)*%
X93345000Y-126365000D03*
%TO.P,IC10,6*%
%TO.N,Net-(IC10-Pad5)*%
X103505000Y-133985000D03*
%TO.P,IC10,12*%
%TO.N,TRIGGER*%
X95885000Y-126365000D03*
%TO.P,IC10,5*%
%TO.N,Net-(IC10-Pad5)*%
X100965000Y-133985000D03*
%TO.P,IC10,11*%
%TO.N,TRIGGER*%
X98425000Y-126365000D03*
%TO.P,IC10,4*%
%TO.N,Net-(IC10-Pad4)*%
X98425000Y-133985000D03*
%TO.P,IC10,10*%
%TO.N,Net-(IC1-Pad10)*%
X100965000Y-126365000D03*
%TO.P,IC10,3*%
%TO.N,Net-(IC10-Pad13)*%
X95885000Y-133985000D03*
%TO.P,IC10,9*%
%TO.N,Net-(IC10-Pad9)*%
X103505000Y-126365000D03*
%TO.P,IC10,2*%
%TO.N,Net-(IC10-Pad13)*%
X93345000Y-133985000D03*
%TO.P,IC10,8*%
%TO.N,Net-(IC10-Pad8)*%
X106045000Y-126365000D03*
D13*
%TO.P,IC10,1*%
%TO.N,Net-(IC10-Pad1)*%
X90805000Y-133985000D03*
%TD*%
D12*
%TO.P,IC8,14*%
%TO.N,VCC*%
X114935000Y-107315000D03*
%TO.P,IC8,7*%
%TO.N,GND*%
X130175000Y-114935000D03*
%TO.P,IC8,13*%
%TO.N,Net-(IC8-Pad13)*%
X117475000Y-107315000D03*
%TO.P,IC8,6*%
%TO.N,Net-(IC8-Pad11)*%
X127635000Y-114935000D03*
%TO.P,IC8,12*%
%TO.N,Net-(IC7-Pad5)*%
X120015000Y-107315000D03*
%TO.P,IC8,5*%
%TO.N,Net-(IC8-Pad13)*%
X125095000Y-114935000D03*
%TO.P,IC8,11*%
%TO.N,Net-(IC8-Pad11)*%
X122555000Y-107315000D03*
%TO.P,IC8,4*%
%TO.N,Net-(IC8-Pad1)*%
X122555000Y-114935000D03*
%TO.P,IC8,10*%
%TO.N,_RESET_PERIOD*%
X125095000Y-107315000D03*
%TO.P,IC8,3*%
%TO.N,DONE*%
X120015000Y-114935000D03*
%TO.P,IC8,9*%
%TO.N,Net-(IC7-Pad6)*%
X127635000Y-107315000D03*
%TO.P,IC8,2*%
%TO.N,Net-(IC8-Pad1)*%
X117475000Y-114935000D03*
%TO.P,IC8,8*%
%TO.N,Net-(IC8-Pad11)*%
X130175000Y-107315000D03*
D13*
%TO.P,IC8,1*%
%TO.N,Net-(IC8-Pad1)*%
X114935000Y-114935000D03*
%TD*%
D12*
%TO.P,IC7,16*%
%TO.N,VCC*%
X34290000Y-126365000D03*
%TO.P,IC7,8*%
%TO.N,GND*%
X52070000Y-133985000D03*
%TO.P,IC7,15*%
X36830000Y-126365000D03*
%TO.P,IC7,7*%
X49530000Y-133985000D03*
%TO.P,IC7,14*%
X39370000Y-126365000D03*
%TO.P,IC7,6*%
%TO.N,Net-(IC7-Pad6)*%
X46990000Y-133985000D03*
%TO.P,IC7,13*%
%TO.N,GND*%
X41910000Y-126365000D03*
%TO.P,IC7,5*%
%TO.N,Net-(IC7-Pad5)*%
X44450000Y-133985000D03*
%TO.P,IC7,12*%
%TO.N,GND*%
X44450000Y-126365000D03*
%TO.P,IC7,4*%
%TO.N,Net-(IC10-Pad1)*%
X41910000Y-133985000D03*
%TO.P,IC7,11*%
%TO.N,Net-(IC5-Pad5)*%
X46990000Y-126365000D03*
%TO.P,IC7,3*%
%TO.N,Net-(IC10-Pad13)*%
X39370000Y-133985000D03*
%TO.P,IC7,10*%
%TO.N,Net-(IC5-Pad6)*%
X49530000Y-126365000D03*
%TO.P,IC7,2*%
%TO.N,Net-(IC6-Pad3)*%
X36830000Y-133985000D03*
%TO.P,IC7,9*%
%TO.N,GND*%
X52070000Y-126365000D03*
D13*
%TO.P,IC7,1*%
%TO.N,Net-(IC6-Pad5)*%
X34290000Y-133985000D03*
%TD*%
D12*
%TO.P,IC6,14*%
%TO.N,VCC*%
X62865000Y-126365000D03*
%TO.P,IC6,7*%
%TO.N,GND*%
X78105000Y-133985000D03*
%TO.P,IC6,13*%
%TO.N,VCC*%
X65405000Y-126365000D03*
%TO.P,IC6,6*%
%TO.N,N/C*%
X75565000Y-133985000D03*
%TO.P,IC6,12*%
%TO.N,Net-(IC10-Pad13)*%
X67945000Y-126365000D03*
%TO.P,IC6,5*%
%TO.N,Net-(IC6-Pad5)*%
X73025000Y-133985000D03*
%TO.P,IC6,11*%
%TO.N,VCC*%
X70485000Y-126365000D03*
%TO.P,IC6,4*%
X70485000Y-133985000D03*
%TO.P,IC6,10*%
X73025000Y-126365000D03*
%TO.P,IC6,3*%
%TO.N,Net-(IC6-Pad3)*%
X67945000Y-133985000D03*
%TO.P,IC6,9*%
%TO.N,Net-(IC10-Pad1)*%
X75565000Y-126365000D03*
%TO.P,IC6,2*%
%TO.N,N/C*%
X65405000Y-133985000D03*
%TO.P,IC6,8*%
%TO.N,VCC*%
X78105000Y-126365000D03*
D13*
%TO.P,IC6,1*%
X62865000Y-133985000D03*
%TD*%
D12*
%TO.P,IC3,16*%
%TO.N,VCC*%
X34290000Y-107315000D03*
%TO.P,IC3,8*%
%TO.N,GND*%
X52070000Y-114935000D03*
%TO.P,IC3,15*%
%TO.N,N/C*%
X36830000Y-107315000D03*
%TO.P,IC3,7*%
%TO.N,Net-(IC3-Pad7)*%
X49530000Y-114935000D03*
%TO.P,IC3,14*%
%TO.N,N/C*%
X39370000Y-107315000D03*
%TO.P,IC3,6*%
%TO.N,Net-(IC3-Pad6)*%
X46990000Y-114935000D03*
%TO.P,IC3,13*%
%TO.N,N/C*%
X41910000Y-107315000D03*
%TO.P,IC3,5*%
%TO.N,Net-(IC3-Pad5)*%
X44450000Y-114935000D03*
%TO.P,IC3,12*%
%TO.N,N/C*%
X44450000Y-107315000D03*
%TO.P,IC3,4*%
X41910000Y-114935000D03*
%TO.P,IC3,11*%
%TO.N,RESET_COUNTER*%
X46990000Y-107315000D03*
%TO.P,IC3,3*%
%TO.N,Net-(IC26-Pad12)*%
X39370000Y-114935000D03*
%TO.P,IC3,10*%
%TO.N,Net-(IC2-Pad1)*%
X49530000Y-107315000D03*
%TO.P,IC3,2*%
%TO.N,N/C*%
X36830000Y-114935000D03*
%TO.P,IC3,9*%
%TO.N,Net-(IC3-Pad9)*%
X52070000Y-107315000D03*
D13*
%TO.P,IC3,1*%
%TO.N,N/C*%
X34290000Y-114935000D03*
%TD*%
D10*
%TO.P,R2,2*%
%TO.N,GND*%
X140335000Y-142875000D03*
D11*
%TO.P,R2,1*%
%TO.N,TRIGGER*%
X125095000Y-142875000D03*
%TD*%
%TO.P,IC27,7*%
%TO.N,GND*%
X88900000Y-25400000D03*
%TO.P,IC27,8*%
%TO.N,Net-(IC20-Pad13)*%
X88900000Y-17780000D03*
%TO.P,IC27,14*%
%TO.N,VCC*%
X73660000Y-17780000D03*
D14*
%TO.P,IC27,1*%
%TO.N,N/C*%
X73660000Y-25400000D03*
%TD*%
D12*
%TO.P,IC20,14*%
%TO.N,VCC*%
X95885000Y-17780000D03*
%TO.P,IC20,7*%
%TO.N,GND*%
X111125000Y-25400000D03*
%TO.P,IC20,13*%
%TO.N,Net-(IC20-Pad13)*%
X98425000Y-17780000D03*
%TO.P,IC20,6*%
%TO.N,_RESET_COUNTER*%
X108585000Y-25400000D03*
%TO.P,IC20,12*%
%TO.N,Net-(IC20-Pad11)*%
X100965000Y-17780000D03*
%TO.P,IC20,5*%
%TO.N,RESET_COUNTER*%
X106045000Y-25400000D03*
%TO.P,IC20,11*%
%TO.N,Net-(IC20-Pad11)*%
X103505000Y-17780000D03*
%TO.P,IC20,4*%
%TO.N,0.5HZ*%
X103505000Y-25400000D03*
%TO.P,IC20,10*%
%TO.N,Net-(IC20-Pad10)*%
X106045000Y-17780000D03*
%TO.P,IC20,3*%
%TO.N,Net-(IC20-Pad2)*%
X100965000Y-25400000D03*
%TO.P,IC20,9*%
%TO.N,Net-(IC20-Pad11)*%
X108585000Y-17780000D03*
%TO.P,IC20,2*%
%TO.N,Net-(IC20-Pad2)*%
X98425000Y-25400000D03*
%TO.P,IC20,8*%
%TO.N,10MHZ*%
X111125000Y-17780000D03*
D13*
%TO.P,IC20,1*%
%TO.N,Net-(IC20-Pad1)*%
X95885000Y-25400000D03*
%TD*%
D12*
%TO.P,IC24,16*%
%TO.N,VCC*%
X57150000Y-50800000D03*
%TO.P,IC24,8*%
%TO.N,GND*%
X74930000Y-58420000D03*
%TO.P,IC24,15*%
%TO.N,N/C*%
X59690000Y-50800000D03*
%TO.P,IC24,7*%
X72390000Y-58420000D03*
%TO.P,IC24,14*%
X62230000Y-50800000D03*
%TO.P,IC24,6*%
%TO.N,Net-(IC24-Pad6)*%
X69850000Y-58420000D03*
%TO.P,IC24,13*%
%TO.N,N/C*%
X64770000Y-50800000D03*
%TO.P,IC24,5*%
X67310000Y-58420000D03*
%TO.P,IC24,12*%
X67310000Y-50800000D03*
%TO.P,IC24,4*%
%TO.N,Net-(IC24-Pad3)*%
X64770000Y-58420000D03*
%TO.P,IC24,11*%
%TO.N,N/C*%
X69850000Y-50800000D03*
%TO.P,IC24,3*%
%TO.N,Net-(IC24-Pad3)*%
X62230000Y-58420000D03*
%TO.P,IC24,10*%
%TO.N,N/C*%
X72390000Y-50800000D03*
%TO.P,IC24,2*%
%TO.N,RESET_COUNTER*%
X59690000Y-58420000D03*
%TO.P,IC24,9*%
%TO.N,N/C*%
X74930000Y-50800000D03*
D13*
%TO.P,IC24,1*%
%TO.N,Net-(IC23-Pad9)*%
X57150000Y-58420000D03*
%TD*%
D10*
%TO.P,SW2,8*%
%TO.N,VCC*%
X82550000Y-50800000D03*
%TO.P,SW2,4*%
%TO.N,N/C*%
X90170000Y-58420000D03*
%TO.P,SW2,7*%
%TO.N,VCC*%
X85090000Y-50800000D03*
%TO.P,SW2,3*%
%TO.N,Net-(IC5-Pad17)*%
X87630000Y-58420000D03*
%TO.P,SW2,6*%
%TO.N,VCC*%
X87630000Y-50800000D03*
%TO.P,SW2,2*%
%TO.N,Net-(IC5-Pad16)*%
X85090000Y-58420000D03*
%TO.P,SW2,5*%
%TO.N,N/C*%
X90170000Y-50800000D03*
D14*
%TO.P,SW2,1*%
%TO.N,Net-(IC5-Pad15)*%
X82550000Y-58420000D03*
%TD*%
D10*
%TO.P,SW1,8*%
%TO.N,VCC*%
X99695000Y-50800000D03*
%TO.P,SW1,4*%
%TO.N,N/C*%
X107315000Y-58420000D03*
%TO.P,SW1,7*%
%TO.N,VCC*%
X102235000Y-50800000D03*
%TO.P,SW1,3*%
%TO.N,Net-(IC4-Pad17)*%
X104775000Y-58420000D03*
%TO.P,SW1,6*%
%TO.N,VCC*%
X104775000Y-50800000D03*
%TO.P,SW1,2*%
%TO.N,Net-(IC4-Pad16)*%
X102235000Y-58420000D03*
%TO.P,SW1,5*%
%TO.N,N/C*%
X107315000Y-50800000D03*
D14*
%TO.P,SW1,1*%
%TO.N,Net-(IC4-Pad15)*%
X99695000Y-58420000D03*
%TD*%
D15*
%TO.P,R10,2*%
%TO.N,GND*%
X87630000Y-63495000D03*
D16*
%TO.P,R10,1*%
%TO.N,Net-(IC5-Pad17)*%
X87630000Y-61595000D03*
%TD*%
D15*
%TO.P,R9,2*%
%TO.N,GND*%
X104775000Y-63500000D03*
D16*
%TO.P,R9,1*%
%TO.N,Net-(IC4-Pad17)*%
X104775000Y-61600000D03*
%TD*%
D15*
%TO.P,R8,2*%
%TO.N,GND*%
X85090000Y-63500000D03*
D16*
%TO.P,R8,1*%
%TO.N,Net-(IC5-Pad16)*%
X85090000Y-61600000D03*
%TD*%
D15*
%TO.P,R7,2*%
%TO.N,GND*%
X102235000Y-63500000D03*
D16*
%TO.P,R7,1*%
%TO.N,Net-(IC4-Pad16)*%
X102235000Y-61600000D03*
%TD*%
D15*
%TO.P,R6,2*%
%TO.N,GND*%
X82550000Y-63495000D03*
D16*
%TO.P,R6,1*%
%TO.N,Net-(IC5-Pad15)*%
X82550000Y-61595000D03*
%TD*%
D15*
%TO.P,R5,2*%
%TO.N,GND*%
X99695000Y-63500000D03*
D16*
%TO.P,R5,1*%
%TO.N,Net-(IC4-Pad15)*%
X99695000Y-61600000D03*
%TD*%
D15*
%TO.P,R4,2*%
%TO.N,VCC*%
X167010000Y-11430000D03*
D16*
%TO.P,R4,1*%
%TO.N,SCL*%
X168910000Y-11430000D03*
%TD*%
D15*
%TO.P,R3,2*%
%TO.N,VCC*%
X173350000Y-11430000D03*
D16*
%TO.P,R3,1*%
%TO.N,SDA*%
X171450000Y-11430000D03*
%TD*%
D17*
%TO.P,C27,2*%
%TO.N,GND*%
X66675000Y-25280000D03*
%TO.P,C27,1*%
%TO.N,VCC*%
X66675000Y-17780000D03*
%TD*%
%TO.P,C5,2*%
%TO.N,GND*%
X113665000Y-78620000D03*
%TO.P,C5,1*%
%TO.N,VCC*%
X113665000Y-71120000D03*
%TD*%
%TO.P,C4,2*%
%TO.N,GND*%
X69215000Y-78620000D03*
%TO.P,C4,1*%
%TO.N,VCC*%
X69215000Y-71120000D03*
%TD*%
%TO.P,TR1,10*%
%TO.N,N/C*%
X140989000Y-74930000D03*
%TO.P,TR1,9*%
%TO.N,Net-(D1-Pad3)*%
X140989000Y-69930000D03*
%TO.P,TR1,8*%
%TO.N,N/C*%
X140989000Y-62430000D03*
%TO.P,TR1,7*%
%TO.N,Net-(D1-Pad2)*%
X140989000Y-54930000D03*
%TO.P,TR1,6*%
%TO.N,N/C*%
X140989000Y-49930000D03*
%TO.P,TR1,5*%
%TO.N,Net-(J1-Pad1)*%
X165989000Y-49930000D03*
%TO.P,TR1,4*%
%TO.N,N/C*%
X165989000Y-54930000D03*
%TO.P,TR1,2*%
X165989000Y-69930000D03*
D18*
%TO.P,TR1,1*%
%TO.N,Net-(F1-Pad2)*%
X165989000Y-74930000D03*
%TD*%
D19*
%TO.P,J3,2*%
%TO.N,GND*%
X29845000Y-15875000D03*
%TO.P,J3,1*%
%TO.N,Net-(IC20-Pad10)*%
X29845000Y-13335000D03*
D20*
%TO.P,J3,2*%
%TO.N,GND*%
X24765000Y-8255000D03*
X24765000Y-18415000D03*
%TD*%
D12*
%TO.P,IC4,28*%
%TO.N,Net-(IC1-Pad13)*%
X75565000Y-71120000D03*
%TO.P,IC4,14*%
%TO.N,N/C*%
X108585000Y-78740000D03*
%TO.P,IC4,27*%
%TO.N,Net-(IC1-Pad4)*%
X78105000Y-71120000D03*
%TO.P,IC4,13*%
%TO.N,SDA*%
X106045000Y-78740000D03*
%TO.P,IC4,26*%
%TO.N,Net-(IC1-Pad2)*%
X80645000Y-71120000D03*
%TO.P,IC4,12*%
%TO.N,SCL*%
X103505000Y-78740000D03*
%TO.P,IC4,25*%
%TO.N,Net-(IC1-Pad3)*%
X83185000Y-71120000D03*
%TO.P,IC4,11*%
%TO.N,N/C*%
X100965000Y-78740000D03*
%TO.P,IC4,24*%
%TO.N,Net-(IC1-Pad5)*%
X85725000Y-71120000D03*
%TO.P,IC4,10*%
%TO.N,GND*%
X98425000Y-78740000D03*
%TO.P,IC4,23*%
%TO.N,Net-(IC1-Pad6)*%
X88265000Y-71120000D03*
%TO.P,IC4,9*%
%TO.N,VCC*%
X95885000Y-78740000D03*
%TO.P,IC4,22*%
%TO.N,Net-(IC1-Pad7)*%
X90805000Y-71120000D03*
%TO.P,IC4,8*%
%TO.N,Net-(IC2-Pad5)*%
X93345000Y-78740000D03*
%TO.P,IC4,21*%
%TO.N,Net-(IC1-Pad9)*%
X93345000Y-71120000D03*
%TO.P,IC4,7*%
%TO.N,Net-(IC2-Pad6)*%
X90805000Y-78740000D03*
%TO.P,IC4,20*%
%TO.N,N/C*%
X95885000Y-71120000D03*
%TO.P,IC4,6*%
%TO.N,Net-(IC2-Pad7)*%
X88265000Y-78740000D03*
%TO.P,IC4,19*%
%TO.N,N/C*%
X98425000Y-71120000D03*
%TO.P,IC4,5*%
%TO.N,Net-(IC2-Pad9)*%
X85725000Y-78740000D03*
%TO.P,IC4,18*%
%TO.N,VCC*%
X100965000Y-71120000D03*
%TO.P,IC4,4*%
%TO.N,Net-(IC1-Pad1)*%
X83185000Y-78740000D03*
%TO.P,IC4,17*%
%TO.N,Net-(IC4-Pad17)*%
X103505000Y-71120000D03*
%TO.P,IC4,3*%
%TO.N,Net-(IC1-Pad15)*%
X80645000Y-78740000D03*
%TO.P,IC4,16*%
%TO.N,Net-(IC4-Pad16)*%
X106045000Y-71120000D03*
%TO.P,IC4,2*%
%TO.N,Net-(IC1-Pad14)*%
X78105000Y-78740000D03*
%TO.P,IC4,15*%
%TO.N,Net-(IC4-Pad15)*%
X108585000Y-71120000D03*
D13*
%TO.P,IC4,1*%
%TO.N,Net-(IC1-Pad12)*%
X75565000Y-78740000D03*
%TD*%
D12*
%TO.P,IC1,16*%
%TO.N,VCC*%
X88265000Y-107315000D03*
%TO.P,IC1,8*%
%TO.N,GND*%
X106045000Y-114935000D03*
%TO.P,IC1,15*%
%TO.N,Net-(IC1-Pad15)*%
X90805000Y-107315000D03*
%TO.P,IC1,7*%
%TO.N,Net-(IC1-Pad7)*%
X103505000Y-114935000D03*
%TO.P,IC1,14*%
%TO.N,Net-(IC1-Pad14)*%
X93345000Y-107315000D03*
%TO.P,IC1,6*%
%TO.N,Net-(IC1-Pad6)*%
X100965000Y-114935000D03*
%TO.P,IC1,13*%
%TO.N,Net-(IC1-Pad13)*%
X95885000Y-107315000D03*
%TO.P,IC1,5*%
%TO.N,Net-(IC1-Pad5)*%
X98425000Y-114935000D03*
%TO.P,IC1,12*%
%TO.N,Net-(IC1-Pad12)*%
X98425000Y-107315000D03*
%TO.P,IC1,4*%
%TO.N,Net-(IC1-Pad4)*%
X95885000Y-114935000D03*
%TO.P,IC1,11*%
%TO.N,RESET_COUNTER*%
X100965000Y-107315000D03*
%TO.P,IC1,3*%
%TO.N,Net-(IC1-Pad3)*%
X93345000Y-114935000D03*
%TO.P,IC1,10*%
%TO.N,Net-(IC1-Pad10)*%
X103505000Y-107315000D03*
%TO.P,IC1,2*%
%TO.N,Net-(IC1-Pad2)*%
X90805000Y-114935000D03*
%TO.P,IC1,9*%
%TO.N,Net-(IC1-Pad9)*%
X106045000Y-107315000D03*
D13*
%TO.P,IC1,1*%
%TO.N,Net-(IC1-Pad1)*%
X88265000Y-114935000D03*
%TD*%
D12*
%TO.P,IC2,16*%
%TO.N,VCC*%
X60325000Y-107315000D03*
%TO.P,IC2,8*%
%TO.N,GND*%
X78105000Y-114935000D03*
%TO.P,IC2,15*%
%TO.N,Net-(IC2-Pad15)*%
X62865000Y-107315000D03*
%TO.P,IC2,7*%
%TO.N,Net-(IC2-Pad7)*%
X75565000Y-114935000D03*
%TO.P,IC2,14*%
%TO.N,Net-(IC2-Pad14)*%
X65405000Y-107315000D03*
%TO.P,IC2,6*%
%TO.N,Net-(IC2-Pad6)*%
X73025000Y-114935000D03*
%TO.P,IC2,13*%
%TO.N,Net-(IC2-Pad13)*%
X67945000Y-107315000D03*
%TO.P,IC2,5*%
%TO.N,Net-(IC2-Pad5)*%
X70485000Y-114935000D03*
%TO.P,IC2,12*%
%TO.N,Net-(IC2-Pad12)*%
X70485000Y-107315000D03*
%TO.P,IC2,4*%
%TO.N,Net-(IC2-Pad4)*%
X67945000Y-114935000D03*
%TO.P,IC2,11*%
%TO.N,RESET_COUNTER*%
X73025000Y-107315000D03*
%TO.P,IC2,3*%
%TO.N,Net-(IC2-Pad3)*%
X65405000Y-114935000D03*
%TO.P,IC2,10*%
%TO.N,Net-(IC1-Pad1)*%
X75565000Y-107315000D03*
%TO.P,IC2,2*%
%TO.N,Net-(IC2-Pad2)*%
X62865000Y-114935000D03*
%TO.P,IC2,9*%
%TO.N,Net-(IC2-Pad9)*%
X78105000Y-107315000D03*
D13*
%TO.P,IC2,1*%
%TO.N,Net-(IC2-Pad1)*%
X60325000Y-114935000D03*
%TD*%
D12*
%TO.P,IC22,16*%
%TO.N,VCC*%
X33020000Y-34290000D03*
%TO.P,IC22,8*%
%TO.N,GND*%
X50800000Y-41910000D03*
%TO.P,IC22,15*%
%TO.N,Net-(IC22-Pad15)*%
X35560000Y-34290000D03*
%TO.P,IC22,7*%
X48260000Y-41910000D03*
%TO.P,IC22,14*%
%TO.N,RESET_COUNTER*%
X38100000Y-34290000D03*
%TO.P,IC22,6*%
%TO.N,N/C*%
X45720000Y-41910000D03*
%TO.P,IC22,13*%
%TO.N,Net-(IC22-Pad12)*%
X40640000Y-34290000D03*
%TO.P,IC22,5*%
%TO.N,N/C*%
X43180000Y-41910000D03*
%TO.P,IC22,12*%
%TO.N,Net-(IC22-Pad12)*%
X43180000Y-34290000D03*
%TO.P,IC22,4*%
%TO.N,Net-(IC22-Pad3)*%
X40640000Y-41910000D03*
%TO.P,IC22,11*%
%TO.N,N/C*%
X45720000Y-34290000D03*
%TO.P,IC22,3*%
%TO.N,Net-(IC22-Pad3)*%
X38100000Y-41910000D03*
%TO.P,IC22,10*%
%TO.N,N/C*%
X48260000Y-34290000D03*
%TO.P,IC22,2*%
%TO.N,RESET_COUNTER*%
X35560000Y-41910000D03*
%TO.P,IC22,9*%
%TO.N,Net-(IC22-Pad9)*%
X50800000Y-34290000D03*
D13*
%TO.P,IC22,1*%
%TO.N,Net-(IC21-Pad9)*%
X33020000Y-41910000D03*
%TD*%
D12*
%TO.P,IC5,28*%
%TO.N,Net-(IC2-Pad1)*%
X31115000Y-71120000D03*
%TO.P,IC5,14*%
%TO.N,N/C*%
X64135000Y-78740000D03*
%TO.P,IC5,27*%
%TO.N,Net-(IC2-Pad15)*%
X33655000Y-71120000D03*
%TO.P,IC5,13*%
%TO.N,SDA*%
X61595000Y-78740000D03*
%TO.P,IC5,26*%
%TO.N,Net-(IC2-Pad14)*%
X36195000Y-71120000D03*
%TO.P,IC5,12*%
%TO.N,SCL*%
X59055000Y-78740000D03*
%TO.P,IC5,25*%
%TO.N,Net-(IC2-Pad12)*%
X38735000Y-71120000D03*
%TO.P,IC5,11*%
%TO.N,N/C*%
X56515000Y-78740000D03*
%TO.P,IC5,24*%
%TO.N,Net-(IC2-Pad13)*%
X41275000Y-71120000D03*
%TO.P,IC5,10*%
%TO.N,GND*%
X53975000Y-78740000D03*
%TO.P,IC5,23*%
%TO.N,Net-(IC2-Pad4)*%
X43815000Y-71120000D03*
%TO.P,IC5,9*%
%TO.N,VCC*%
X51435000Y-78740000D03*
%TO.P,IC5,22*%
%TO.N,Net-(IC2-Pad2)*%
X46355000Y-71120000D03*
%TO.P,IC5,8*%
%TO.N,Net-(IC25-Pad5)*%
X48895000Y-78740000D03*
%TO.P,IC5,21*%
%TO.N,Net-(IC2-Pad3)*%
X48895000Y-71120000D03*
%TO.P,IC5,7*%
%TO.N,Net-(IC10-Pad5)*%
X46355000Y-78740000D03*
%TO.P,IC5,20*%
%TO.N,N/C*%
X51435000Y-71120000D03*
%TO.P,IC5,6*%
%TO.N,Net-(IC5-Pad6)*%
X43815000Y-78740000D03*
%TO.P,IC5,19*%
%TO.N,N/C*%
X53975000Y-71120000D03*
%TO.P,IC5,5*%
%TO.N,Net-(IC5-Pad5)*%
X41275000Y-78740000D03*
%TO.P,IC5,18*%
%TO.N,VCC*%
X56515000Y-71120000D03*
%TO.P,IC5,4*%
%TO.N,Net-(IC3-Pad5)*%
X38735000Y-78740000D03*
%TO.P,IC5,17*%
%TO.N,Net-(IC5-Pad17)*%
X59055000Y-71120000D03*
%TO.P,IC5,3*%
%TO.N,Net-(IC3-Pad6)*%
X36195000Y-78740000D03*
%TO.P,IC5,16*%
%TO.N,Net-(IC5-Pad16)*%
X61595000Y-71120000D03*
%TO.P,IC5,2*%
%TO.N,Net-(IC3-Pad7)*%
X33655000Y-78740000D03*
%TO.P,IC5,15*%
%TO.N,Net-(IC5-Pad15)*%
X64135000Y-71120000D03*
D13*
%TO.P,IC5,1*%
%TO.N,Net-(IC3-Pad9)*%
X31115000Y-78740000D03*
%TD*%
D21*
%TO.P,SV5,4*%
%TO.N,VCC*%
X140970000Y-20955000D03*
%TO.P,SV5,3*%
%TO.N,SDA*%
X140970000Y-18415000D03*
%TO.P,SV5,2*%
%TO.N,SCL*%
X140970000Y-15875000D03*
D22*
%TO.P,SV5,1*%
%TO.N,GND*%
X140970000Y-13335000D03*
%TD*%
D12*
%TO.P,IC23,16*%
%TO.N,VCC*%
X33020000Y-50800000D03*
%TO.P,IC23,8*%
%TO.N,GND*%
X50800000Y-58420000D03*
%TO.P,IC23,15*%
%TO.N,Net-(IC23-Pad15)*%
X35560000Y-50800000D03*
%TO.P,IC23,7*%
X48260000Y-58420000D03*
%TO.P,IC23,14*%
%TO.N,RESET_COUNTER*%
X38100000Y-50800000D03*
%TO.P,IC23,6*%
%TO.N,N/C*%
X45720000Y-58420000D03*
%TO.P,IC23,13*%
%TO.N,Net-(IC23-Pad12)*%
X40640000Y-50800000D03*
%TO.P,IC23,5*%
%TO.N,N/C*%
X43180000Y-58420000D03*
%TO.P,IC23,12*%
%TO.N,Net-(IC23-Pad12)*%
X43180000Y-50800000D03*
%TO.P,IC23,4*%
%TO.N,Net-(IC23-Pad3)*%
X40640000Y-58420000D03*
%TO.P,IC23,11*%
%TO.N,N/C*%
X45720000Y-50800000D03*
%TO.P,IC23,3*%
%TO.N,Net-(IC23-Pad3)*%
X38100000Y-58420000D03*
%TO.P,IC23,10*%
%TO.N,N/C*%
X48260000Y-50800000D03*
%TO.P,IC23,2*%
%TO.N,RESET_COUNTER*%
X35560000Y-58420000D03*
%TO.P,IC23,9*%
%TO.N,Net-(IC23-Pad9)*%
X50800000Y-50800000D03*
D13*
%TO.P,IC23,1*%
%TO.N,Net-(IC22-Pad9)*%
X33020000Y-58420000D03*
%TD*%
D12*
%TO.P,IC21,16*%
%TO.N,VCC*%
X57150000Y-34290000D03*
%TO.P,IC21,8*%
%TO.N,GND*%
X74930000Y-41910000D03*
%TO.P,IC21,15*%
%TO.N,Net-(IC21-Pad15)*%
X59690000Y-34290000D03*
%TO.P,IC21,7*%
X72390000Y-41910000D03*
%TO.P,IC21,14*%
%TO.N,RESET_COUNTER*%
X62230000Y-34290000D03*
%TO.P,IC21,6*%
%TO.N,N/C*%
X69850000Y-41910000D03*
%TO.P,IC21,13*%
%TO.N,Net-(IC21-Pad12)*%
X64770000Y-34290000D03*
%TO.P,IC21,5*%
%TO.N,N/C*%
X67310000Y-41910000D03*
%TO.P,IC21,12*%
%TO.N,Net-(IC21-Pad12)*%
X67310000Y-34290000D03*
%TO.P,IC21,4*%
%TO.N,Net-(IC21-Pad3)*%
X64770000Y-41910000D03*
%TO.P,IC21,11*%
%TO.N,N/C*%
X69850000Y-34290000D03*
%TO.P,IC21,3*%
%TO.N,Net-(IC21-Pad3)*%
X62230000Y-41910000D03*
%TO.P,IC21,10*%
%TO.N,N/C*%
X72390000Y-34290000D03*
%TO.P,IC21,2*%
%TO.N,RESET_COUNTER*%
X59690000Y-41910000D03*
%TO.P,IC21,9*%
%TO.N,Net-(IC21-Pad9)*%
X74930000Y-34290000D03*
D13*
%TO.P,IC21,1*%
%TO.N,Net-(IC21-Pad1)*%
X57150000Y-41910000D03*
%TD*%
D23*
%TO.P,J1,3*%
%TO.N,Net-(F1-Pad1)*%
X184150000Y-56840000D03*
%TO.P,J1,2*%
%TO.N,GND*%
X184150000Y-53340000D03*
%TO.P,J1,1*%
%TO.N,Net-(J1-Pad1)*%
%TA.AperFunction,ComponentPad*%
G36*
G01*
X183100000Y-48840000D02*
X185200000Y-48840000D01*
G75*
G02*
X185450000Y-49090000I0J-250000D01*
G01*
X185450000Y-50590000D01*
G75*
G02*
X185200000Y-50840000I-250000J0D01*
G01*
X183100000Y-50840000D01*
G75*
G02*
X182850000Y-50590000I0J250000D01*
G01*
X182850000Y-49090000D01*
G75*
G02*
X183100000Y-48840000I250000J0D01*
G01*
G37*
%TD.AperFunction*%
%TD*%
D24*
%TO.P,U1,3*%
%TO.N,VCC*%
X184785000Y-123190000D03*
%TO.P,U1,2*%
%TO.N,GND*%
X184785000Y-120650000D03*
D25*
%TO.P,U1,1*%
%TO.N,Net-(C14-Pad1)*%
X184785000Y-118110000D03*
%TD*%
D26*
%TO.P,F1,2*%
%TO.N,Net-(F1-Pad2)*%
X184150000Y-90445000D03*
%TO.P,F1,1*%
%TO.N,Net-(F1-Pad1)*%
X184150000Y-67945000D03*
%TD*%
D27*
%TO.P,D1,1*%
%TO.N,Net-(C14-Pad1)*%
X178435000Y-102870000D03*
D28*
%TO.P,D1,2*%
%TO.N,Net-(D1-Pad2)*%
X173355000Y-102870000D03*
%TO.P,D1,3*%
%TO.N,Net-(D1-Pad3)*%
X168275000Y-102870000D03*
%TO.P,D1,4*%
%TO.N,GND*%
X163195000Y-102870000D03*
%TD*%
D17*
%TO.P,C12,2*%
%TO.N,GND*%
X165855000Y-125730000D03*
%TO.P,C12,1*%
%TO.N,VCC*%
X173355000Y-125730000D03*
%TD*%
%TO.P,C14,2*%
%TO.N,GND*%
X185420000Y-110370000D03*
%TO.P,C14,1*%
%TO.N,Net-(C14-Pad1)*%
X185420000Y-102870000D03*
%TD*%
D29*
%TO.P,C30,2*%
%TO.N,GND*%
X169545000Y-117395000D03*
D30*
%TO.P,C30,1*%
%TO.N,Net-(C14-Pad1)*%
X169545000Y-112395000D03*
%TD*%
D21*
%TO.P,SV4,10*%
%TO.N,VCC*%
X135255000Y-189230000D03*
%TO.P,SV4,9*%
%TO.N,SDA*%
X132715000Y-189230000D03*
%TO.P,SV4,8*%
%TO.N,SCL*%
X130175000Y-189230000D03*
%TO.P,SV4,7*%
%TO.N,GND*%
X127635000Y-189230000D03*
%TO.P,SV4,6*%
%TO.N,N/C*%
X125095000Y-189230000D03*
%TO.P,SV4,5*%
%TO.N,GND*%
X122555000Y-189230000D03*
%TO.P,SV4,4*%
%TO.N,N/C*%
X120015000Y-189230000D03*
%TO.P,SV4,3*%
%TO.N,GND*%
X117475000Y-189230000D03*
%TO.P,SV4,2*%
%TO.N,HF*%
X114935000Y-189230000D03*
D22*
%TO.P,SV4,1*%
%TO.N,GND*%
X112395000Y-189230000D03*
%TD*%
D21*
%TO.P,SV3,10*%
%TO.N,VCC*%
X135255000Y-168910000D03*
%TO.P,SV3,9*%
%TO.N,SDA*%
X132715000Y-168910000D03*
%TO.P,SV3,8*%
%TO.N,SCL*%
X130175000Y-168910000D03*
%TO.P,SV3,7*%
%TO.N,GND*%
X127635000Y-168910000D03*
%TO.P,SV3,6*%
%TO.N,TRIGGER*%
X125095000Y-168910000D03*
%TO.P,SV3,5*%
%TO.N,GND*%
X122555000Y-168910000D03*
%TO.P,SV3,4*%
%TO.N,N/C*%
X120015000Y-168910000D03*
%TO.P,SV3,3*%
%TO.N,GND*%
X117475000Y-168910000D03*
%TO.P,SV3,2*%
%TO.N,HF*%
X114935000Y-168910000D03*
D22*
%TO.P,SV3,1*%
%TO.N,GND*%
X112395000Y-168910000D03*
%TD*%
D21*
%TO.P,SV2,10*%
%TO.N,VCC*%
X135255000Y-148590000D03*
%TO.P,SV2,9*%
%TO.N,SDA*%
X132715000Y-148590000D03*
%TO.P,SV2,8*%
%TO.N,SCL*%
X130175000Y-148590000D03*
%TO.P,SV2,7*%
%TO.N,GND*%
X127635000Y-148590000D03*
%TO.P,SV2,6*%
%TO.N,TRIGGER*%
X125095000Y-148590000D03*
%TO.P,SV2,5*%
%TO.N,GND*%
X122555000Y-148590000D03*
%TO.P,SV2,4*%
%TO.N,N/C*%
X120015000Y-148590000D03*
%TO.P,SV2,3*%
%TO.N,GND*%
X117475000Y-148590000D03*
%TO.P,SV2,2*%
%TO.N,HF*%
X114935000Y-148590000D03*
D22*
%TO.P,SV2,1*%
%TO.N,GND*%
X112395000Y-148590000D03*
%TD*%
D31*
%TO.N,*%
X172085000Y-180340000D03*
X172085000Y-91440000D03*
X19939000Y-180340000D03*
X19939000Y-91440000D03*
X19939000Y-24384000D03*
X172085000Y-24384000D03*
D32*
%TO.N,VCC*%
X159385000Y-142240000D03*
X117475000Y-139065000D03*
D33*
%TO.N,GND*%
X131445000Y-124460000D03*
D32*
X152715000Y-131125000D03*
X150810000Y-112075000D03*
X40960000Y-22540000D03*
X124460000Y-39052500D03*
X27940000Y-39050000D03*
X27940000Y-75880000D03*
X27940000Y-112075000D03*
D33*
X27940000Y-131064000D03*
D32*
X124155200Y-22555200D03*
X27940000Y-55880000D03*
X124460000Y-55880000D03*
X87947500Y-39052500D03*
X115255000Y-131125000D03*
X36576000Y-131064000D03*
X124587000Y-75880000D03*
D33*
X105410000Y-124460000D03*
D32*
X89215000Y-112075000D03*
X58420000Y-55880000D03*
D33*
%TO.N,Net-(IC21-Pad15)*%
X58420000Y-45085000D03*
%TO.N,Net-(IC21-Pad9)*%
X76835000Y-47625000D03*
%TO.N,Net-(IC1-Pad14)*%
X93345000Y-92075000D03*
X78105000Y-92075000D03*
%TO.N,Net-(IC1-Pad13)*%
X95885000Y-89535000D03*
X76835000Y-89535000D03*
%TO.N,Net-(IC1-Pad12)*%
X98425000Y-88265000D03*
X75565000Y-88265000D03*
%TO.N,Net-(IC1-Pad9)*%
X94615000Y-92075000D03*
X106045000Y-92075000D03*
%TO.N,Net-(IC1-Pad7)*%
X92075000Y-93345000D03*
X110490000Y-93345000D03*
X110490000Y-117475000D03*
%TO.N,Net-(IC1-Pad6)*%
X89535000Y-97155000D03*
X99695000Y-97155000D03*
%TO.N,Net-(IC1-Pad5)*%
X86995000Y-94615000D03*
X97155000Y-94615000D03*
%TO.N,Net-(IC1-Pad4)*%
X94615000Y-95885000D03*
X79375000Y-95885000D03*
%TO.N,Net-(IC1-Pad3)*%
X84455000Y-103505000D03*
X92075000Y-103505000D03*
%TO.N,Net-(IC1-Pad2)*%
X89535000Y-98425000D03*
X81915000Y-98425000D03*
%TO.N,Net-(IC1-Pad1)*%
X83185000Y-114935000D03*
X75565000Y-103505000D03*
X83185000Y-103505000D03*
%TO.N,Net-(IC2-Pad14)*%
X65405000Y-94615000D03*
X37465000Y-94615000D03*
%TO.N,Net-(IC2-Pad13)*%
X67945000Y-95885000D03*
X42545000Y-95885000D03*
%TO.N,Net-(IC2-Pad12)*%
X70485000Y-92075000D03*
X40005000Y-92075000D03*
%TO.N,Net-(IC2-Pad9)*%
X85725000Y-94615000D03*
X78105000Y-94615000D03*
%TO.N,Net-(IC2-Pad7)*%
X88265000Y-97155000D03*
X76835000Y-97155000D03*
%TO.N,Net-(IC2-Pad6)*%
X90805000Y-93345000D03*
X74295000Y-93345000D03*
%TO.N,Net-(IC2-Pad5)*%
X71755000Y-90805000D03*
X93345000Y-90805000D03*
%TO.N,Net-(IC2-Pad4)*%
X69215000Y-97155000D03*
X45085000Y-97155000D03*
%TO.N,Net-(IC2-Pad3)*%
X50165000Y-98425000D03*
X66675000Y-98425000D03*
%TO.N,Net-(IC2-Pad2)*%
X64135000Y-90805000D03*
X47625000Y-90805000D03*
%TO.N,Net-(IC2-Pad1)*%
X49530000Y-102235000D03*
X57785000Y-102235000D03*
X36195000Y-102235000D03*
%TO.N,Net-(IC3-Pad9)*%
X52070000Y-99695000D03*
X33655000Y-99695000D03*
%TO.N,Net-(IC3-Pad7)*%
X48260000Y-100965000D03*
X36195000Y-100965000D03*
%TO.N,Net-(IC3-Pad6)*%
X45720000Y-98425000D03*
X36195000Y-98425000D03*
%TO.N,Net-(IC1-Pad15)*%
X80645000Y-102235000D03*
X90805000Y-102235000D03*
%TO.N,Net-(IC2-Pad15)*%
X62865000Y-93345000D03*
X34925000Y-93345000D03*
%TO.N,Net-(IC6-Pad3)*%
X36830000Y-139065000D03*
X67945000Y-139065000D03*
%TO.N,0.5HZ*%
X176530000Y-27940000D03*
X123825000Y-28575000D03*
X130810000Y-28575000D03*
%TO.N,Net-(IC22-Pad15)*%
X34290000Y-45085000D03*
%TO.N,Net-(IC22-Pad9)*%
X49530000Y-46355000D03*
X34290000Y-46355000D03*
%TO.N,Net-(IC23-Pad15)*%
X34290000Y-61595000D03*
%TO.N,SDA*%
X106045000Y-83185000D03*
X61595000Y-83185000D03*
X130810000Y-32385000D03*
X144780000Y-32385000D03*
X144780000Y-18415000D03*
X121793000Y-83185000D03*
%TO.N,SCL*%
X143510000Y-15875000D03*
X143510000Y-31115000D03*
X130810000Y-31115000D03*
X121031000Y-81788000D03*
%TO.N,TRIGGER*%
X110490000Y-142875000D03*
%TO.N,RESET_COUNTER*%
X28575000Y-104775000D03*
X62230000Y-29845000D03*
X106045000Y-29845000D03*
X34290000Y-62865000D03*
X59690000Y-62865000D03*
X123825000Y-29718000D03*
X130810000Y-29845000D03*
%TO.N,Net-(IC4-Pad16)*%
X100965000Y-67310000D03*
X106045000Y-67310000D03*
%TO.N,Net-(IC4-Pad15)*%
X98425000Y-68580000D03*
%TO.N,Net-(IC5-Pad17)*%
X86360000Y-68580000D03*
%TO.N,Net-(IC5-Pad16)*%
X83820000Y-68580000D03*
%TO.N,Net-(IC5-Pad15)*%
X81280000Y-68580000D03*
%TO.N,Net-(IC24-Pad6)*%
X68580000Y-28575000D03*
%TO.N,Net-(IC24-Pad3)*%
X49530000Y-61595000D03*
%TO.N,_RESET_PERIOD*%
X130810000Y-34925000D03*
X139700000Y-103505000D03*
%TO.N,Net-(IC10-Pad5)*%
X117475000Y-119380000D03*
X88265000Y-119380000D03*
X88265000Y-136525000D03*
X111760000Y-84455000D03*
X111760000Y-119380000D03*
%TO.N,Net-(IC5-Pad6)*%
X32385000Y-120015000D03*
X43815000Y-103505000D03*
X32385000Y-103505000D03*
%TO.N,Net-(IC5-Pad5)*%
X41275000Y-95885000D03*
X32385000Y-121920000D03*
X31115000Y-95885000D03*
%TO.N,Net-(IC7-Pad6)*%
X56515000Y-100965000D03*
X127635000Y-100965000D03*
%TO.N,Net-(IC7-Pad5)*%
X55245000Y-99695000D03*
X120015000Y-99695000D03*
%TO.N,Net-(IC8-Pad1)*%
X122555000Y-118745000D03*
X125095000Y-120015000D03*
%TO.N,DONE*%
X130810000Y-33655000D03*
X138430000Y-117475000D03*
%TO.N,Net-(IC10-Pad4)*%
X98425000Y-137795000D03*
%TO.N,Net-(IC20-Pad1)*%
X78105000Y-31115000D03*
X49530000Y-31115000D03*
%TO.N,Net-(IC10-Pad13)*%
X39370000Y-137795000D03*
X69215000Y-137795000D03*
X93345000Y-137795000D03*
%TO.N,Net-(IC3-Pad5)*%
X38735000Y-97155000D03*
X42545000Y-97155000D03*
%TO.N,Net-(IC26-Pad12)*%
X29845000Y-117475000D03*
X41910000Y-65405000D03*
X34290000Y-65405000D03*
%TO.N,_RESET_COUNTER*%
X108585000Y-31115000D03*
X91440000Y-31115000D03*
%TO.N,Net-(IC25-Pad11)*%
X88900000Y-32385000D03*
%TO.N,Net-(IC25-Pad9)*%
X55880000Y-27305000D03*
X93980000Y-28575000D03*
%TO.N,Net-(IC25-Pad5)*%
X47625000Y-65405000D03*
X93345000Y-65405000D03*
%TD*%
D34*
%TO.N,VCC*%
X135255000Y-189230000D02*
X135255000Y-197485000D01*
D35*
X184785000Y-123190000D02*
X194310000Y-123190000D01*
X193675000Y-142240000D02*
X194310000Y-142875000D01*
X193675000Y-196850000D02*
X194310000Y-197485000D01*
D36*
X132080000Y-196850000D02*
X193675000Y-196850000D01*
X134620000Y-196850000D02*
X25400000Y-196850000D01*
D34*
X150180000Y-98745000D02*
X150495000Y-99060000D01*
D36*
X159385000Y-142240000D02*
X193675000Y-142240000D01*
X159385000Y-142240000D02*
X156845000Y-139700000D01*
X156845000Y-139700000D02*
X156845000Y-128270000D01*
D34*
X155829000Y-114554000D02*
X156845000Y-115570000D01*
D36*
X36830000Y-8890000D02*
X37465000Y-8255000D01*
X24765000Y-25400000D02*
X25400000Y-24765000D01*
X25400000Y-24765000D02*
X36830000Y-24765000D01*
X193675000Y-122555000D02*
X193675000Y-196850000D01*
X193675000Y-8890000D02*
X193675000Y-122555000D01*
X193040000Y-8255000D02*
X193675000Y-8890000D01*
D34*
X25080000Y-114620000D02*
X24765000Y-114935000D01*
X24770000Y-91445000D02*
X24765000Y-91440000D01*
D35*
X128270000Y-8382000D02*
X128143000Y-8255000D01*
D34*
X95234800Y-20640000D02*
X95250000Y-20655200D01*
D36*
X36830000Y-21590000D02*
X36830000Y-8890000D01*
X36830000Y-24765000D02*
X36830000Y-21590000D01*
X24765000Y-37465000D02*
X24765000Y-25400000D01*
X142240000Y-88900000D02*
X156845000Y-103505000D01*
X136525000Y-88900000D02*
X142240000Y-88900000D01*
X156845000Y-103505000D02*
X156845000Y-128270000D01*
X128270000Y-80645000D02*
X136525000Y-88900000D01*
X127635000Y-13335000D02*
X127635000Y-8255000D01*
X128270000Y-80645000D02*
X127635000Y-80010000D01*
D34*
X25080000Y-53660000D02*
X24765000Y-53975000D01*
X73660000Y-17780000D02*
X73660000Y-20320000D01*
X73660000Y-20320000D02*
X73340000Y-20640000D01*
X73340000Y-20640000D02*
X95234800Y-20640000D01*
X158750000Y-8890000D02*
X159385000Y-8255000D01*
X158750000Y-16510000D02*
X158750000Y-8890000D01*
X153670000Y-9525000D02*
X152400000Y-8255000D01*
X153670000Y-16510000D02*
X153670000Y-9525000D01*
D36*
X152400000Y-8255000D02*
X159385000Y-8255000D01*
X37465000Y-8255000D02*
X152400000Y-8255000D01*
D34*
X127320000Y-73980000D02*
X127635000Y-74295000D01*
D36*
X127635000Y-74295000D02*
X127635000Y-53975000D01*
X127635000Y-80010000D02*
X127635000Y-74295000D01*
D34*
X25720000Y-73980000D02*
X24765000Y-73025000D01*
D36*
X24765000Y-104140000D02*
X24765000Y-53975000D01*
D34*
X56195000Y-73980000D02*
X25720000Y-73980000D01*
X88585000Y-129225000D02*
X82235000Y-129225000D01*
X123510000Y-73980000D02*
X127320000Y-73980000D01*
X123507500Y-53657500D02*
X127317500Y-53657500D01*
X122875000Y-37150000D02*
X127310000Y-37150000D01*
X94300000Y-37150000D02*
X122875000Y-37150000D01*
X65085000Y-37150000D02*
X71440000Y-37150000D01*
X63500000Y-20640000D02*
X65090000Y-20640000D01*
X95250000Y-20655200D02*
X96220200Y-20655200D01*
X167010000Y-9530000D02*
X165735000Y-8255000D01*
X167010000Y-11430000D02*
X167010000Y-9530000D01*
D36*
X159385000Y-8255000D02*
X165735000Y-8255000D01*
D34*
X173350000Y-11430000D02*
X173350000Y-10155000D01*
X173350000Y-10155000D02*
X171450000Y-8255000D01*
D36*
X171450000Y-8255000D02*
X193040000Y-8255000D01*
X165735000Y-8255000D02*
X171450000Y-8255000D01*
X24765000Y-49530000D02*
X24765000Y-37465000D01*
X24765000Y-53975000D02*
X24765000Y-49530000D01*
D34*
X128270000Y-20955000D02*
X127635000Y-21590000D01*
X140970000Y-20955000D02*
X128270000Y-20955000D01*
D36*
X127635000Y-21590000D02*
X127635000Y-13335000D01*
X127635000Y-53975000D02*
X127635000Y-21590000D01*
D34*
X127335200Y-20655200D02*
X127635000Y-20955000D01*
X96220200Y-20655200D02*
X127335200Y-20655200D01*
X63500000Y-37150000D02*
X65085000Y-37150000D01*
X25080000Y-37150000D02*
X24765000Y-37465000D01*
X36830000Y-109855000D02*
X60325000Y-109855000D01*
X60325000Y-109855000D02*
X66040000Y-109855000D01*
X89535000Y-109855000D02*
X95250000Y-109855000D01*
X119380000Y-109855000D02*
X125095000Y-109855000D01*
X124460000Y-109855000D02*
X147955000Y-109855000D01*
X147955000Y-109855000D02*
X156210000Y-109855000D01*
D36*
X24765000Y-127635000D02*
X24765000Y-104140000D01*
X24765000Y-196215000D02*
X24765000Y-127635000D01*
D34*
X26035000Y-128905000D02*
X24765000Y-127635000D01*
X32385000Y-128905000D02*
X26035000Y-128905000D01*
X61341000Y-129159000D02*
X42291000Y-129159000D01*
X110170000Y-73980000D02*
X105725000Y-73980000D01*
X37780000Y-20640000D02*
X36830000Y-21590000D01*
X66675000Y-20325000D02*
X66360000Y-20640000D01*
X66360000Y-20640000D02*
X73340000Y-20640000D01*
X66675000Y-17780000D02*
X66675000Y-20325000D01*
X65090000Y-20640000D02*
X66360000Y-20640000D01*
X44450000Y-20320000D02*
X44130000Y-20640000D01*
X44450000Y-17780000D02*
X44450000Y-20320000D01*
X44130000Y-20640000D02*
X37780000Y-20640000D01*
X64450000Y-20640000D02*
X44130000Y-20640000D01*
X95885000Y-20320000D02*
X96220200Y-20655200D01*
X95885000Y-17780000D02*
X95885000Y-20320000D01*
X81280000Y-36830000D02*
X81600000Y-37150000D01*
X81280000Y-34290000D02*
X81280000Y-36830000D01*
X81600000Y-37150000D02*
X94300000Y-37150000D01*
X71440000Y-37150000D02*
X81600000Y-37150000D01*
X57150000Y-36835000D02*
X56835000Y-37150000D01*
X57150000Y-34290000D02*
X57150000Y-36835000D01*
X56835000Y-37150000D02*
X63500000Y-37150000D01*
X52385000Y-37150000D02*
X56835000Y-37150000D01*
X33020000Y-36835000D02*
X32705000Y-37150000D01*
X33020000Y-34290000D02*
X33020000Y-36835000D01*
X32705000Y-37150000D02*
X25080000Y-37150000D01*
X52385000Y-37150000D02*
X32705000Y-37150000D01*
X88265000Y-109220000D02*
X87630000Y-109855000D01*
X88265000Y-107315000D02*
X88265000Y-109220000D01*
X87630000Y-109855000D02*
X66040000Y-109855000D01*
X89535000Y-109855000D02*
X87630000Y-109855000D01*
X114935000Y-109220000D02*
X115570000Y-109855000D01*
X114935000Y-107315000D02*
X114935000Y-109220000D01*
X115570000Y-109855000D02*
X119380000Y-109855000D01*
X95250000Y-109855000D02*
X114935000Y-109855000D01*
X60325000Y-107315000D02*
X60325000Y-109855000D01*
X34290000Y-109220000D02*
X33655000Y-109855000D01*
X34290000Y-107315000D02*
X34290000Y-109220000D01*
X33655000Y-109855000D02*
X36830000Y-109855000D01*
X24765000Y-109855000D02*
X33655000Y-109855000D01*
X69215000Y-73660000D02*
X69535000Y-73980000D01*
X69215000Y-71120000D02*
X69215000Y-73660000D01*
X69535000Y-73980000D02*
X60640000Y-73980000D01*
X72390000Y-73980000D02*
X69535000Y-73980000D01*
X113665000Y-73665000D02*
X113980000Y-73980000D01*
X113665000Y-71120000D02*
X113665000Y-73665000D01*
X113980000Y-73980000D02*
X110170000Y-73980000D01*
X122870000Y-73980000D02*
X113980000Y-73980000D01*
X100965000Y-73660000D02*
X101285000Y-73980000D01*
X100965000Y-71120000D02*
X100965000Y-73660000D01*
X101285000Y-73980000D02*
X72390000Y-73980000D01*
X105725000Y-73980000D02*
X101285000Y-73980000D01*
X56515000Y-73660000D02*
X56835000Y-73980000D01*
X56515000Y-71120000D02*
X56515000Y-73660000D01*
X56835000Y-73980000D02*
X56195000Y-73980000D01*
X60640000Y-73980000D02*
X56835000Y-73980000D01*
X104775000Y-50800000D02*
X104775000Y-53340000D01*
X105092500Y-53657500D02*
X123507500Y-53657500D01*
X102235000Y-50800000D02*
X102235000Y-53340000D01*
X101917500Y-53657500D02*
X105092500Y-53657500D01*
X100647500Y-53657500D02*
X101917500Y-53657500D01*
X98742500Y-53657500D02*
X92712500Y-53657500D01*
X100584000Y-53657500D02*
X98742500Y-53657500D01*
X87630000Y-50800000D02*
X87630000Y-53340000D01*
X92710000Y-53660000D02*
X87950000Y-53660000D01*
X87950000Y-53660000D02*
X85405000Y-53660000D01*
X82550000Y-50800000D02*
X82550000Y-53345000D01*
X99695000Y-50800000D02*
X99695000Y-53340000D01*
X85090000Y-53340000D02*
X84770000Y-53660000D01*
X85090000Y-50800000D02*
X85090000Y-53340000D01*
X84770000Y-53660000D02*
X82865000Y-53660000D01*
X85405000Y-53660000D02*
X84770000Y-53660000D01*
X70485000Y-128905000D02*
X70739000Y-129159000D01*
X70485000Y-126365000D02*
X70485000Y-128905000D01*
X71511000Y-129159000D02*
X70739000Y-129159000D01*
X78105000Y-128905000D02*
X77785000Y-129225000D01*
X78105000Y-126365000D02*
X78105000Y-128905000D01*
X82870000Y-129225000D02*
X77785000Y-129225000D01*
X62865000Y-128905000D02*
X62611000Y-129159000D01*
X62865000Y-126365000D02*
X62865000Y-128905000D01*
X62611000Y-129159000D02*
X61839000Y-129159000D01*
X34290000Y-128905000D02*
X34036000Y-129159000D01*
X34290000Y-126365000D02*
X34290000Y-128905000D01*
X34036000Y-129159000D02*
X32639000Y-129159000D01*
X42291000Y-129159000D02*
X34036000Y-129159000D01*
X109540000Y-129225000D02*
X98105000Y-129225000D01*
X136210000Y-129225000D02*
X115255000Y-129225000D01*
X156845000Y-128270000D02*
X155890000Y-129225000D01*
X155890000Y-129225000D02*
X136210000Y-129225000D01*
X90805000Y-128905000D02*
X90485000Y-129225000D01*
X90805000Y-126365000D02*
X90805000Y-128905000D01*
X90485000Y-129225000D02*
X88585000Y-129225000D01*
X98105000Y-129225000D02*
X90485000Y-129225000D01*
X114935000Y-126365000D02*
X114935000Y-128905000D01*
X114935000Y-128905000D02*
X114615000Y-129225000D01*
X114615000Y-129225000D02*
X109540000Y-129225000D01*
X115255000Y-129225000D02*
X114615000Y-129225000D01*
X73025000Y-128905000D02*
X72705000Y-129225000D01*
X73025000Y-126365000D02*
X73025000Y-128905000D01*
X72705000Y-129225000D02*
X72075000Y-129225000D01*
X70739000Y-129159000D02*
X62611000Y-129159000D01*
X70805000Y-129225000D02*
X70739000Y-129159000D01*
X77785000Y-129225000D02*
X70805000Y-129225000D01*
X33020000Y-53340000D02*
X32700000Y-53660000D01*
X32700000Y-53660000D02*
X25080000Y-53660000D01*
X33020000Y-50800000D02*
X33020000Y-53340000D01*
X57150000Y-53340000D02*
X57470000Y-53660000D01*
X57150000Y-50800000D02*
X57150000Y-53340000D01*
X57470000Y-53660000D02*
X32700000Y-53660000D01*
X82865000Y-53660000D02*
X57470000Y-53660000D01*
X127000000Y-139065000D02*
X117475000Y-139065000D01*
X135255000Y-147320000D02*
X127000000Y-139065000D01*
X135255000Y-148590000D02*
X135255000Y-147320000D01*
D36*
%TO.N,GND*%
X178395000Y-117395000D02*
X185420000Y-110370000D01*
X169545000Y-117395000D02*
X178395000Y-117395000D01*
D34*
X181650000Y-120650000D02*
X178395000Y-117395000D01*
X184785000Y-120650000D02*
X181650000Y-120650000D01*
X112395000Y-148590000D02*
X112395000Y-150495000D01*
X112395000Y-150495000D02*
X113030000Y-151130000D01*
X113030000Y-151130000D02*
X116840000Y-151130000D01*
X117475000Y-150495000D02*
X117475000Y-148590000D01*
X116840000Y-151130000D02*
X117475000Y-150495000D01*
X117475000Y-150495000D02*
X118110000Y-151130000D01*
X118110000Y-151130000D02*
X121920000Y-151130000D01*
X122555000Y-150495000D02*
X122555000Y-148590000D01*
X121920000Y-151130000D02*
X122555000Y-150495000D01*
X122555000Y-150495000D02*
X123190000Y-151130000D01*
X123190000Y-151130000D02*
X127000000Y-151130000D01*
X127635000Y-150495000D02*
X127635000Y-148590000D01*
X127000000Y-151130000D02*
X127635000Y-150495000D01*
X88900000Y-22860000D02*
X88595200Y-22555200D01*
X88900000Y-25400000D02*
X88900000Y-22860000D01*
X95250000Y-22555200D02*
X88595200Y-22555200D01*
X68265000Y-75880000D02*
X58740000Y-75880000D01*
X123507500Y-39052500D02*
X118427500Y-39052500D01*
X124460000Y-39052500D02*
X123507500Y-39052500D01*
X65709800Y-22555200D02*
X63515200Y-22555200D01*
X95580200Y-22555200D02*
X95250000Y-22555200D01*
X102235000Y-63500000D02*
X104775000Y-63500000D01*
X124155200Y-22555200D02*
X95580200Y-22555200D01*
X150810000Y-112075000D02*
X147635000Y-112075000D01*
X147635000Y-112075000D02*
X142560000Y-112075000D01*
X119700000Y-112075000D02*
X113985000Y-112075000D01*
X152715000Y-131125000D02*
X136210000Y-131125000D01*
X136210000Y-131125000D02*
X130495000Y-131125000D01*
X68961000Y-131064000D02*
X56261000Y-131064000D01*
X82550000Y-63500000D02*
X88895000Y-63500000D01*
X32131000Y-131064000D02*
X27940000Y-131064000D01*
X32766000Y-131064000D02*
X32131000Y-131064000D01*
D37*
X32131000Y-131064000D02*
X31750000Y-131445000D01*
D34*
X83505000Y-112075000D02*
X84775000Y-112075000D01*
X72390000Y-75880000D02*
X69535000Y-75880000D01*
X27940000Y-39050000D02*
X51115000Y-39050000D01*
X54930000Y-112075000D02*
X73345000Y-112075000D01*
X130175000Y-138430000D02*
X130175000Y-133985000D01*
X130175000Y-131445000D02*
X129855000Y-131125000D01*
X130175000Y-133985000D02*
X130175000Y-131445000D01*
X130495000Y-131125000D02*
X129855000Y-131125000D01*
X106045000Y-131440000D02*
X105730000Y-131125000D01*
X106045000Y-133985000D02*
X106045000Y-131440000D01*
X105730000Y-131125000D02*
X103825000Y-131125000D01*
X103764000Y-131064000D02*
X96266000Y-131064000D01*
X96266000Y-131064000D02*
X94996000Y-131064000D01*
X94996000Y-131064000D02*
X92964000Y-131064000D01*
X92964000Y-131064000D02*
X91694000Y-131064000D01*
X91694000Y-131064000D02*
X82169000Y-131064000D01*
X64450000Y-22540000D02*
X64465200Y-22555200D01*
X66675000Y-22860000D02*
X66979800Y-22555200D01*
X66675000Y-25280000D02*
X66675000Y-22860000D01*
X66979800Y-22555200D02*
X65709800Y-22555200D01*
X88595200Y-22555200D02*
X66979800Y-22555200D01*
X96520000Y-41910000D02*
X96520000Y-39370000D01*
X96202500Y-39052500D02*
X91757500Y-39052500D01*
X96520000Y-39370000D02*
X96202500Y-39052500D01*
X118300500Y-39052500D02*
X96202500Y-39052500D01*
X87947500Y-39052500D02*
X92392500Y-39052500D01*
X63502500Y-39052500D02*
X63500000Y-39050000D01*
X63500000Y-39050000D02*
X50480000Y-39050000D01*
X59690000Y-22860000D02*
X60010000Y-22540000D01*
X59690000Y-25400000D02*
X59690000Y-22860000D01*
X60010000Y-22540000D02*
X64450000Y-22540000D01*
X52070000Y-22860000D02*
X52390000Y-22540000D01*
X52070000Y-25400000D02*
X52070000Y-22860000D01*
X52390000Y-22540000D02*
X60010000Y-22540000D01*
X40960000Y-22540000D02*
X52390000Y-22540000D01*
X74930000Y-39370000D02*
X74612500Y-39052500D01*
X74930000Y-41910000D02*
X74930000Y-39370000D01*
X74612500Y-39052500D02*
X63502500Y-39052500D01*
X87947500Y-39052500D02*
X74612500Y-39052500D01*
X50800000Y-39370000D02*
X50480000Y-39050000D01*
X50800000Y-41910000D02*
X50800000Y-39370000D01*
X52070000Y-112395000D02*
X51750000Y-112075000D01*
X52070000Y-114935000D02*
X52070000Y-112395000D01*
X51750000Y-112075000D02*
X27940000Y-112075000D01*
X54930000Y-112075000D02*
X51750000Y-112075000D01*
X78105000Y-112395000D02*
X78425000Y-112075000D01*
X78105000Y-114935000D02*
X78105000Y-112395000D01*
X78425000Y-112075000D02*
X83505000Y-112075000D01*
X73345000Y-112075000D02*
X78425000Y-112075000D01*
X106045000Y-112390000D02*
X106360000Y-112075000D01*
X106045000Y-114935000D02*
X106045000Y-112390000D01*
X113350000Y-112075000D02*
X106360000Y-112075000D01*
X130175000Y-112395000D02*
X130495000Y-112075000D01*
X130175000Y-114935000D02*
X130175000Y-112395000D01*
X130495000Y-112075000D02*
X119700000Y-112075000D01*
X142560000Y-112075000D02*
X129860000Y-112075000D01*
X69215000Y-76195000D02*
X69530000Y-75880000D01*
X69215000Y-78620000D02*
X69215000Y-76195000D01*
X69530000Y-75880000D02*
X68265000Y-75880000D01*
X69535000Y-75880000D02*
X69530000Y-75880000D01*
X113665000Y-78620000D02*
X113665000Y-76195000D01*
X113665000Y-76195000D02*
X113980000Y-75880000D01*
X113980000Y-75880000D02*
X108265000Y-75880000D01*
X98425000Y-76200000D02*
X98105000Y-75880000D01*
X98425000Y-78740000D02*
X98425000Y-76200000D01*
X98105000Y-75880000D02*
X72390000Y-75880000D01*
X108265000Y-75880000D02*
X98105000Y-75880000D01*
X53975000Y-76195000D02*
X53660000Y-75880000D01*
X53975000Y-78740000D02*
X53975000Y-76195000D01*
X53660000Y-75880000D02*
X58740000Y-75880000D01*
X27940000Y-75880000D02*
X53660000Y-75880000D01*
X102235000Y-63500000D02*
X99695000Y-63500000D01*
X52070000Y-131445000D02*
X51689000Y-131064000D01*
X52070000Y-133985000D02*
X52070000Y-131445000D01*
X56261000Y-131064000D02*
X51689000Y-131064000D01*
X78105000Y-131445000D02*
X77724000Y-131064000D01*
X78105000Y-133985000D02*
X78105000Y-131445000D01*
X77724000Y-131064000D02*
X82804000Y-131064000D01*
X68961000Y-131064000D02*
X77724000Y-131064000D01*
X127955000Y-131125000D02*
X129855000Y-131125000D01*
X109540000Y-131125000D02*
X105730000Y-131125000D01*
X115255000Y-131125000D02*
X109540000Y-131125000D01*
X115255000Y-131125000D02*
X127955000Y-131125000D01*
D37*
X122555000Y-148590000D02*
X124460000Y-146685000D01*
X124460000Y-146685000D02*
X124460000Y-144145000D01*
X124460000Y-144145000D02*
X123825000Y-143510000D01*
X123825000Y-143510000D02*
X111760000Y-143510000D01*
X111760000Y-143510000D02*
X111125000Y-144145000D01*
X111125000Y-144145000D02*
X109855000Y-144145000D01*
X109855000Y-144145000D02*
X109220000Y-143510000D01*
X109220000Y-143510000D02*
X109220000Y-142240000D01*
X109220000Y-142240000D02*
X109855000Y-141605000D01*
X109855000Y-141605000D02*
X111125000Y-141605000D01*
X111125000Y-141605000D02*
X111760000Y-142240000D01*
X111760000Y-142240000D02*
X123825000Y-142240000D01*
X123825000Y-142240000D02*
X124460000Y-141605000D01*
X124460000Y-141605000D02*
X125730000Y-141605000D01*
X125730000Y-141605000D02*
X126365000Y-142240000D01*
X126365000Y-142240000D02*
X126365000Y-143510000D01*
X126365000Y-143510000D02*
X125730000Y-144145000D01*
X125730000Y-144145000D02*
X124460000Y-144145000D01*
D34*
X36576000Y-131064000D02*
X32766000Y-131064000D01*
X51689000Y-131064000D02*
X36576000Y-131064000D01*
X50800000Y-56515000D02*
X50165000Y-55880000D01*
X50800000Y-58420000D02*
X50800000Y-56515000D01*
X50165000Y-55880000D02*
X27940000Y-55880000D01*
X74930000Y-56515000D02*
X74295000Y-55880000D01*
X74930000Y-58420000D02*
X74930000Y-56515000D01*
X82550000Y-63495000D02*
X76830000Y-63495000D01*
X74930000Y-61595000D02*
X74930000Y-58420000D01*
X76830000Y-63495000D02*
X74930000Y-61595000D01*
X87635000Y-63500000D02*
X87630000Y-63495000D01*
X99695000Y-63500000D02*
X87635000Y-63500000D01*
X104775000Y-63500000D02*
X109855000Y-63500000D01*
X109855000Y-63500000D02*
X109855000Y-55880000D01*
X109855000Y-55880000D02*
X74295000Y-55880000D01*
X124460000Y-55880000D02*
X109855000Y-55880000D01*
X135255000Y-142875000D02*
X140335000Y-142875000D01*
X130810000Y-138430000D02*
X135255000Y-142875000D01*
X130175000Y-138430000D02*
X130810000Y-138430000D01*
X124587000Y-75880000D02*
X113980000Y-75880000D01*
D37*
X131445000Y-127635000D02*
X131445000Y-124460000D01*
X129540000Y-128270000D02*
X130810000Y-128270000D01*
X128905000Y-124460000D02*
X128905000Y-127635000D01*
X105410000Y-124460000D02*
X107315000Y-124460000D01*
X107315000Y-124460000D02*
X109855000Y-121920000D01*
X109855000Y-121920000D02*
X128905000Y-121920000D01*
X128905000Y-127635000D02*
X129540000Y-128270000D01*
X104775000Y-125095000D02*
X104775000Y-127635000D01*
X127635000Y-123190000D02*
X128905000Y-124460000D01*
X105410000Y-128270000D02*
X106680000Y-128270000D01*
X104775000Y-127635000D02*
X105410000Y-128270000D01*
X106680000Y-128270000D02*
X107315000Y-127635000D01*
X128905000Y-121920000D02*
X131445000Y-124460000D01*
X107315000Y-127635000D02*
X107315000Y-125730000D01*
X105410000Y-124460000D02*
X104775000Y-125095000D01*
X107315000Y-125730000D02*
X109855000Y-123190000D01*
X130810000Y-128270000D02*
X131445000Y-127635000D01*
X109855000Y-123190000D02*
X127635000Y-123190000D01*
D34*
X89215000Y-112075000D02*
X84775000Y-112075000D01*
X106360000Y-112075000D02*
X89215000Y-112075000D01*
X58420000Y-55880000D02*
X50165000Y-55880000D01*
X74295000Y-55880000D02*
X58420000Y-55880000D01*
D38*
%TO.N,Net-(IC21-Pad15)*%
X71120000Y-45085000D02*
X58420000Y-45085000D01*
X72390000Y-43815000D02*
X71120000Y-45085000D01*
X72390000Y-41910000D02*
X72390000Y-43815000D01*
%TO.N,Net-(IC21-Pad12)*%
X64770000Y-34290000D02*
X67310000Y-34290000D01*
%TO.N,Net-(IC21-Pad9)*%
X33020000Y-47625000D02*
X76835000Y-47625000D01*
X33020000Y-47625000D02*
X33020000Y-41910000D01*
%TO.N,Net-(IC21-Pad3)*%
X64770000Y-41910000D02*
X62230000Y-41910000D01*
%TO.N,Net-(IC1-Pad14)*%
X78105000Y-92075000D02*
X93345000Y-92075000D01*
%TO.N,Net-(IC1-Pad13)*%
X95885000Y-89535000D02*
X76835000Y-89535000D01*
%TO.N,Net-(IC1-Pad12)*%
X98425000Y-88265000D02*
X75565000Y-88265000D01*
%TO.N,Net-(IC1-Pad9)*%
X106045000Y-92075000D02*
X94615000Y-92075000D01*
%TO.N,Net-(IC1-Pad7)*%
X110490000Y-93345000D02*
X92075000Y-93345000D01*
X103505000Y-116840000D02*
X103505000Y-114935000D01*
X104140000Y-117475000D02*
X103505000Y-116840000D01*
X110490000Y-117475000D02*
X104140000Y-117475000D01*
%TO.N,Net-(IC1-Pad6)*%
X99695000Y-97155000D02*
X89535000Y-97155000D01*
%TO.N,Net-(IC1-Pad5)*%
X97155000Y-94615000D02*
X86995000Y-94615000D01*
%TO.N,Net-(IC1-Pad4)*%
X94615000Y-95885000D02*
X79375000Y-95885000D01*
%TO.N,Net-(IC1-Pad3)*%
X92075000Y-103505000D02*
X84455000Y-103505000D01*
%TO.N,Net-(IC1-Pad2)*%
X81915000Y-98425000D02*
X89535000Y-98425000D01*
%TO.N,Net-(IC1-Pad1)*%
X88265000Y-114935000D02*
X83185000Y-114935000D01*
X80010000Y-103505000D02*
X75565000Y-103505000D01*
X83185000Y-103505000D02*
X80010000Y-103505000D01*
%TO.N,Net-(IC2-Pad14)*%
X65405000Y-94615000D02*
X37465000Y-94615000D01*
%TO.N,Net-(IC2-Pad13)*%
X42545000Y-95885000D02*
X67945000Y-95885000D01*
%TO.N,Net-(IC2-Pad12)*%
X70485000Y-92075000D02*
X40005000Y-92075000D01*
%TO.N,Net-(IC2-Pad9)*%
X78105000Y-94615000D02*
X85725000Y-94615000D01*
%TO.N,Net-(IC2-Pad7)*%
X76835000Y-97155000D02*
X88265000Y-97155000D01*
%TO.N,Net-(IC2-Pad6)*%
X74295000Y-93345000D02*
X90805000Y-93345000D01*
%TO.N,Net-(IC2-Pad5)*%
X93345000Y-90805000D02*
X71755000Y-90805000D01*
%TO.N,Net-(IC2-Pad4)*%
X45085000Y-97155000D02*
X69215000Y-97155000D01*
%TO.N,Net-(IC2-Pad3)*%
X66675000Y-98425000D02*
X50165000Y-98425000D01*
%TO.N,Net-(IC2-Pad2)*%
X64135000Y-90805000D02*
X47625000Y-90805000D01*
%TO.N,Net-(IC2-Pad1)*%
X49530000Y-102235000D02*
X57785000Y-102235000D01*
X49530000Y-102235000D02*
X36195000Y-102235000D01*
%TO.N,Net-(IC3-Pad9)*%
X52070000Y-99695000D02*
X33655000Y-99695000D01*
%TO.N,Net-(IC3-Pad7)*%
X48260000Y-100965000D02*
X36195000Y-100965000D01*
%TO.N,Net-(IC3-Pad6)*%
X45720000Y-98425000D02*
X36195000Y-98425000D01*
%TO.N,Net-(IC1-Pad15)*%
X90805000Y-102235000D02*
X80645000Y-102235000D01*
%TO.N,Net-(IC2-Pad15)*%
X62865000Y-93345000D02*
X34925000Y-93345000D01*
%TO.N,Net-(IC6-Pad3)*%
X67945000Y-139065000D02*
X36830000Y-139065000D01*
%TO.N,0.5HZ*%
X103505000Y-27305000D02*
X103505000Y-25400000D01*
X104775000Y-28575000D02*
X103505000Y-27305000D01*
X123825000Y-28575000D02*
X104775000Y-28575000D01*
X132270500Y-28575000D02*
X130810000Y-28575000D01*
X132905500Y-27940000D02*
X132270500Y-28575000D01*
X176530000Y-27940000D02*
X132905500Y-27940000D01*
%TO.N,Net-(IC22-Pad15)*%
X48260000Y-43815000D02*
X48260000Y-41910000D01*
X46990000Y-45085000D02*
X48260000Y-43815000D01*
X34290000Y-45085000D02*
X46990000Y-45085000D01*
%TO.N,Net-(IC22-Pad12)*%
X40640000Y-34290000D02*
X43180000Y-34290000D01*
%TO.N,Net-(IC22-Pad9)*%
X49530000Y-46355000D02*
X34290000Y-46355000D01*
%TO.N,Net-(IC22-Pad3)*%
X40640000Y-41910000D02*
X38100000Y-41910000D01*
%TO.N,Net-(IC23-Pad15)*%
X48260000Y-60325000D02*
X48260000Y-58420000D01*
X46990000Y-61595000D02*
X48260000Y-60325000D01*
X34290000Y-61595000D02*
X46990000Y-61595000D01*
%TO.N,Net-(IC23-Pad12)*%
X43180000Y-50800000D02*
X40640000Y-50800000D01*
%TO.N,Net-(IC23-Pad3)*%
X40640000Y-58420000D02*
X38100000Y-58420000D01*
%TO.N,SDA*%
X171450000Y-16510000D02*
X171450000Y-11430000D01*
X106045000Y-83185000D02*
X61595000Y-83185000D01*
X171450000Y-19050000D02*
X171450000Y-16510000D01*
X150495000Y-19050000D02*
X171450000Y-19050000D01*
X149860000Y-18415000D02*
X150495000Y-19050000D01*
X116205000Y-83185000D02*
X106045000Y-83185000D01*
X130810000Y-32385000D02*
X144780000Y-32385000D01*
X144780000Y-18415000D02*
X149860000Y-18415000D01*
X140970000Y-18415000D02*
X144780000Y-18415000D01*
X116205000Y-83185000D02*
X115570000Y-83185000D01*
X121793000Y-83185000D02*
X116205000Y-83185000D01*
%TO.N,SCL*%
X168910000Y-16510000D02*
X168910000Y-11430000D01*
X168910000Y-16510000D02*
X168910000Y-18415000D01*
X168910000Y-18415000D02*
X151765000Y-18415000D01*
X151765000Y-18415000D02*
X149225000Y-15875000D01*
X149225000Y-15875000D02*
X143510000Y-15875000D01*
X143510000Y-15875000D02*
X140970000Y-15875000D01*
X143510000Y-31115000D02*
X130810000Y-31115000D01*
X116840000Y-81915000D02*
X103505000Y-81915000D01*
X117475000Y-81915000D02*
X116840000Y-81915000D01*
X103505000Y-81915000D02*
X59055000Y-81915000D01*
X59055000Y-81915000D02*
X59055000Y-78740000D01*
X103505000Y-81915000D02*
X103505000Y-78740000D01*
X120904000Y-81915000D02*
X116840000Y-81915000D01*
X121031000Y-81788000D02*
X120904000Y-81915000D01*
%TO.N,TRIGGER*%
X110490000Y-142875000D02*
X125095000Y-142875000D01*
%TO.N,RESET_COUNTER*%
X46990000Y-104775000D02*
X73025000Y-104775000D01*
X73025000Y-104775000D02*
X100965000Y-104775000D01*
X46990000Y-104775000D02*
X28575000Y-104775000D01*
X62230000Y-29845000D02*
X100330000Y-29845000D01*
X100330000Y-29845000D02*
X106045000Y-29845000D01*
X100965000Y-104775000D02*
X100965000Y-107315000D01*
X46990000Y-104775000D02*
X46990000Y-107315000D01*
X73025000Y-104775000D02*
X73025000Y-107315000D01*
X59690000Y-62865000D02*
X34290000Y-62865000D01*
X123698000Y-29845000D02*
X123825000Y-29718000D01*
X106045000Y-29845000D02*
X123698000Y-29845000D01*
X130810000Y-29845000D02*
X132080000Y-29845000D01*
X132080000Y-29845000D02*
X132969000Y-28956000D01*
X132969000Y-28956000D02*
X183769000Y-28956000D01*
X183769000Y-28956000D02*
X189230000Y-23495000D01*
X189230000Y-23495000D02*
X189230000Y-16510000D01*
%TO.N,Net-(IC4-Pad16)*%
X100965000Y-67310000D02*
X106045000Y-67310000D01*
%TO.N,Net-(IC4-Pad15)*%
X107950000Y-68580000D02*
X98425000Y-68580000D01*
X108585000Y-69215000D02*
X107950000Y-68580000D01*
X108585000Y-71120000D02*
X108585000Y-69215000D01*
%TO.N,Net-(IC5-Pad17)*%
X59055000Y-69215000D02*
X59055000Y-71120000D01*
X61595000Y-66675000D02*
X59055000Y-69215000D01*
X84455000Y-66675000D02*
X61595000Y-66675000D01*
X86360000Y-68580000D02*
X84455000Y-66675000D01*
%TO.N,Net-(IC5-Pad16)*%
X61595000Y-69215000D02*
X61595000Y-71120000D01*
X63500000Y-67310000D02*
X61595000Y-69215000D01*
X82550000Y-67310000D02*
X63500000Y-67310000D01*
X83820000Y-68580000D02*
X82550000Y-67310000D01*
%TO.N,Net-(IC5-Pad15)*%
X64770000Y-68580000D02*
X81280000Y-68580000D01*
X64135000Y-69215000D02*
X64770000Y-68580000D01*
X64135000Y-71120000D02*
X64135000Y-69215000D01*
%TO.N,Net-(IC24-Pad6)*%
X46990000Y-27305000D02*
X46990000Y-25400000D01*
X48260000Y-28575000D02*
X46990000Y-27305000D01*
X68580000Y-28575000D02*
X48260000Y-28575000D01*
%TO.N,Net-(IC24-Pad3)*%
X64770000Y-58420000D02*
X62230000Y-58420000D01*
X60960000Y-61595000D02*
X49530000Y-61595000D01*
X62230000Y-60325000D02*
X60960000Y-61595000D01*
X62230000Y-58420000D02*
X62230000Y-60325000D01*
%TO.N,_RESET_PERIOD*%
X125095000Y-103505000D02*
X125095000Y-106680000D01*
X139700000Y-103505000D02*
X125095000Y-103505000D01*
X188722000Y-34925000D02*
X130810000Y-34925000D01*
X189230000Y-34417000D02*
X188722000Y-34925000D01*
X189230000Y-31750000D02*
X189230000Y-34417000D01*
%TO.N,Net-(IC10-Pad5)*%
X46355000Y-84455000D02*
X111760000Y-84455000D01*
X111760000Y-119380000D02*
X88265000Y-119380000D01*
X117475000Y-119380000D02*
X111760000Y-119380000D01*
X46355000Y-78740000D02*
X46355000Y-84455000D01*
X100965000Y-135890000D02*
X100965000Y-133985000D01*
X100330000Y-136525000D02*
X100965000Y-135890000D01*
X88265000Y-136525000D02*
X100330000Y-136525000D01*
%TO.N,Net-(IC5-Pad6)*%
X32385000Y-103505000D02*
X43815000Y-103505000D01*
X49530000Y-124460000D02*
X49530000Y-126365000D01*
X45085000Y-120015000D02*
X49530000Y-124460000D01*
X32385000Y-120015000D02*
X45085000Y-120015000D01*
%TO.N,Net-(IC5-Pad5)*%
X46990000Y-123825000D02*
X46990000Y-126365000D01*
X33020000Y-121285000D02*
X44450000Y-121285000D01*
X32385000Y-121920000D02*
X33020000Y-121285000D01*
X44450000Y-121285000D02*
X46990000Y-123825000D01*
X31115000Y-95885000D02*
X41275000Y-95885000D01*
%TO.N,Net-(IC6-Pad5)*%
X34290000Y-136525000D02*
X73025000Y-136525000D01*
X34290000Y-136525000D02*
X34290000Y-133985000D01*
X73025000Y-136525000D02*
X73025000Y-133985000D01*
%TO.N,Net-(IC7-Pad6)*%
X127635000Y-100965000D02*
X56515000Y-100965000D01*
%TO.N,Net-(IC7-Pad5)*%
X120015000Y-99695000D02*
X55245000Y-99695000D01*
%TO.N,Net-(IC8-Pad1)*%
X123825000Y-120015000D02*
X125095000Y-120015000D01*
X122555000Y-118745000D02*
X123825000Y-120015000D01*
%TO.N,DONE*%
X120015000Y-116840000D02*
X120015000Y-114935000D01*
X120650000Y-117475000D02*
X120015000Y-116840000D01*
X138430000Y-117475000D02*
X120650000Y-117475000D01*
X146304000Y-33655000D02*
X130810000Y-33655000D01*
X150241000Y-29718000D02*
X146304000Y-33655000D01*
X173228000Y-29718000D02*
X150241000Y-29718000D01*
X173990000Y-30480000D02*
X173228000Y-29718000D01*
X173990000Y-31750000D02*
X173990000Y-30480000D01*
%TO.N,Net-(IC10-Pad4)*%
X125095000Y-136525000D02*
X125095000Y-133985000D01*
X105410000Y-136525000D02*
X125095000Y-136525000D01*
X104140000Y-137795000D02*
X105410000Y-136525000D01*
X98425000Y-137795000D02*
X104140000Y-137795000D01*
%TO.N,Net-(IC20-Pad1)*%
X78105000Y-31115000D02*
X49530000Y-31115000D01*
%TO.N,Net-(IC21-Pad1)*%
X57150000Y-46355000D02*
X57150000Y-41910000D01*
X83820000Y-46355000D02*
X57150000Y-46355000D01*
X86360000Y-43815000D02*
X83820000Y-46355000D01*
X86360000Y-41910000D02*
X86360000Y-43815000D01*
%TO.N,Net-(IC10-Pad13)*%
X69215000Y-137795000D02*
X39370000Y-137795000D01*
X93345000Y-137795000D02*
X69215000Y-137795000D01*
%TO.N,Net-(IC10-Pad8)*%
X128270000Y-122555000D02*
X130175000Y-124460000D01*
X109855000Y-122555000D02*
X128270000Y-122555000D01*
X130175000Y-124460000D02*
X130175000Y-126365000D01*
X106045000Y-126365000D02*
X109855000Y-122555000D01*
%TO.N,Net-(IC3-Pad5)*%
X38735000Y-97155000D02*
X42545000Y-97155000D01*
%TO.N,Net-(IC26-Pad12)*%
X49530000Y-17780000D02*
X46990000Y-17780000D01*
X39370000Y-114935000D02*
X39370000Y-117475000D01*
X39370000Y-117475000D02*
X29845000Y-117475000D01*
X34290000Y-65405000D02*
X41910000Y-65405000D01*
%TO.N,_RESET_COUNTER*%
X83820000Y-32385000D02*
X85090000Y-31115000D01*
X83820000Y-34290000D02*
X83820000Y-32385000D01*
X91440000Y-31115000D02*
X108585000Y-31115000D01*
X85090000Y-31115000D02*
X91440000Y-31115000D01*
%TO.N,Net-(IC25-Pad11)*%
X88900000Y-32385000D02*
X96520000Y-32385000D01*
X96520000Y-32385000D02*
X96520000Y-34290000D01*
%TO.N,Net-(IC25-Pad9)*%
X92710000Y-27305000D02*
X55880000Y-27305000D01*
X93980000Y-28575000D02*
X92710000Y-27305000D01*
%TO.N,Net-(IC25-Pad5)*%
X47625000Y-65405000D02*
X93345000Y-65405000D01*
%TD*%
M02*
